<svg width="166" height="44" viewBox="0 0 166 44" fill="none" xmlns="http://www.w3.org/2000/svg">
<g filter="url(#filter0_d_2_73)">
<path d="M0 0H141.5L158 17L141.5 34H0L16.5 17L0 0Z" fill="url(#paint0_linear_2_73)"/>
<path d="M44.054 11.402V13.25H41.716V17.954C41.716 20.544 40.05 22.154 37.376 22.154C34.688 22.154 32.994 20.544 32.994 17.954V11.402H35.206V17.954C35.206 19.368 36.102 20.222 37.39 20.222C38.664 20.222 39.504 19.382 39.504 17.954V11.402H44.054ZM53.7838 15.49H46.8818V17.954C46.8818 19.368 47.7778 20.222 49.0658 20.222C50.3398 20.222 51.1798 19.382 51.1798 17.954V17.226H53.3918V17.954C53.3918 20.544 51.7258 22.154 49.0518 22.154C46.3638 22.154 44.6698 20.544 44.6698 17.954V11.402H46.8818V13.642H53.7838V15.49ZM57.7509 15.448V22H55.5389V15.448C55.5389 12.858 57.2329 11.248 59.9209 11.248C62.5949 11.248 64.2609 12.858 64.2609 15.448V17.212H62.0489V15.448C62.0489 14.02 61.2089 13.18 59.9349 13.18C58.6469 13.18 57.7509 14.034 57.7509 15.448ZM81.5013 11.402V13.25H79.1633V17.954C79.1633 20.544 77.4973 22.154 74.8233 22.154C72.1353 22.154 70.4413 20.544 70.4413 17.954V11.402H72.6533V17.954C72.6533 19.368 73.5493 20.222 74.8373 20.222C76.1113 20.222 76.9513 19.382 76.9513 17.954V11.402H81.5013ZM92.897 20.6L91.693 22.084L89.999 20.656C89.257 21.608 88.053 22.154 86.499 22.154C83.811 22.154 82.117 20.544 82.117 17.954V11.402H84.329V17.954C84.329 19.368 85.225 20.222 86.513 20.222C87.787 20.222 88.627 19.382 88.627 17.954V11.402H90.839V17.954C90.839 18.248 90.811 18.528 90.769 18.794L92.897 20.6ZM95.9501 17.954C95.9501 19.368 96.8461 20.222 98.1341 20.222C99.4081 20.222 100.248 19.382 100.248 17.954V11.402H102.46V17.954C102.46 20.544 100.794 22.154 98.1201 22.154C95.4321 22.154 93.7381 20.544 93.7381 17.954V11.402H95.9501V17.954ZM108.825 13.362C111.583 13.362 113.165 15.098 113.165 17.674V19.032H110.953V17.674C110.953 16.26 110.211 15.294 108.811 15.294C107.481 15.294 106.655 16.036 106.655 17.45V22H104.443V11.402H106.655V14.104C107.243 13.642 107.957 13.362 108.825 13.362ZM122.699 15.714H124.911V17.954C124.911 20.544 123.245 22.154 120.585 22.154C117.883 22.154 116.189 20.544 116.189 17.954V13.25H113.865V11.402H118.401V17.954C118.401 19.368 119.297 20.222 120.585 20.222C121.859 20.222 122.699 19.382 122.699 17.954V15.714Z" fill="#16202A"/>
</g>
<defs>
<filter id="filter0_d_2_73" x="0" y="0" width="166" height="44" filterUnits="userSpaceOnUse" color-interpolation-filters="sRGB">
<feFlood flood-opacity="0" result="BackgroundImageFix"/>
<feColorMatrix in="SourceAlpha" type="matrix" values="0 0 0 0 0 0 0 0 0 0 0 0 0 0 0 0 0 0 127 0" result="hardAlpha"/>
<feOffset dx="4" dy="6"/>
<feGaussianBlur stdDeviation="2"/>
<feComposite in2="hardAlpha" operator="out"/>
<feColorMatrix type="matrix" values="0 0 0 0 0 0 0 0 0 0 0 0 0 0 0 0 0 0 1 0"/>
<feBlend mode="normal" in2="BackgroundImageFix" result="effect1_dropShadow_2_73"/>
<feBlend mode="normal" in="SourceGraphic" in2="effect1_dropShadow_2_73" result="shape"/>
</filter>
<linearGradient id="paint0_linear_2_73" x1="0" y1="17" x2="158" y2="17" gradientUnits="userSpaceOnUse">
<stop stop-color="#D9EAF2"/>
<stop offset="1" stop-color="#7C929C"/>
</linearGradient>
</defs>
</svg>
