<svg width="158" height="42" viewBox="0 0 158 42" fill="none" xmlns="http://www.w3.org/2000/svg">
<rect width="158" height="42" rx="5" fill="#16202A"/>
<rect x="1" y="1" width="156" height="40" rx="4" stroke="url(#paint0_linear_50_5)" stroke-width="2"/>
<path d="M17.108 22.01V23.858H10.206V26H7.994V19.224C7.994 16.634 9.688 15.024 12.376 15.024C15.05 15.024 16.716 16.634 16.716 19.224V20.008H14.504V19.224C14.504 17.796 13.664 16.956 12.39 16.956C11.102 16.956 10.206 17.81 10.206 19.224V22.01H17.108ZM26.5911 19.714H28.8031V21.954C28.8031 24.544 27.1371 26.154 24.4771 26.154C21.7751 26.154 20.0811 24.544 20.0811 21.954V17.25H17.7571V15.402H22.2931V21.954C22.2931 23.368 23.1891 24.222 24.4771 24.222C25.7511 24.222 26.5911 23.382 26.5911 21.954V19.714ZM41.3873 24.6L40.1833 26.084L38.4893 24.656C37.7473 25.608 36.5433 26.154 34.9893 26.154C32.3013 26.154 30.6073 24.544 30.6073 21.954V15.402H32.8193V21.954C32.8193 23.368 33.7153 24.222 35.0033 24.222C36.2773 24.222 37.1173 23.382 37.1173 21.954V15.402H39.3293V21.954C39.3293 22.248 39.3013 22.528 39.2593 22.794L41.3873 24.6ZM48.3884 17.586H50.5864V26.014H48.3884V22.962C47.8284 23.494 47.1284 23.83 46.2604 23.83C43.5024 23.83 42.0464 22.094 42.0464 19.518V15.402H44.2584V19.518C44.2584 20.932 44.8744 21.884 46.2604 21.884C47.5064 21.884 48.2764 21.198 48.3884 19.938V17.586ZM61.692 19.49H54.79V21.954C54.79 23.368 55.686 24.222 56.974 24.222C58.248 24.222 59.088 23.382 59.088 21.954V21.226H61.3V21.954C61.3 24.544 59.634 26.154 56.96 26.154C54.272 26.154 52.578 24.544 52.578 21.954V15.402H54.79V17.642H61.692V19.49ZM69.0751 24.152C70.3911 24.152 71.5391 24.95 71.5391 26.518V27.162H69.3411V26.896C69.3411 26.35 68.9911 26 68.4731 26H63.4891V15.402H65.7011V24.152H69.0751ZM76.7432 17.362C79.5012 17.362 81.0832 19.098 81.0832 21.674V23.032H78.8712V21.674C78.8712 20.26 78.1292 19.294 76.7292 19.294C75.3992 19.294 74.5732 20.036 74.5732 21.45V26H72.3612V15.402H74.5732V18.104C75.1612 17.642 75.8752 17.362 76.7432 17.362ZM93.4978 22.066H95.7098V22.234C95.7098 24.81 93.9038 26.154 91.2438 26.154C88.5418 26.154 86.6238 24.46 86.6238 21.982C86.6238 19.966 87.8278 18.65 89.5218 18.076L87.5478 17.208V15.178L95.6678 18.762V20.778L91.5098 18.944C89.7038 19.462 88.8498 20.596 88.8498 21.982C88.8498 23.27 89.9558 24.222 91.2438 24.222C92.5878 24.222 93.4978 23.606 93.4978 22.234V22.066ZM106.344 19.49H99.4423V21.954C99.4423 23.368 100.338 24.222 101.626 24.222C102.9 24.222 103.74 23.382 103.74 21.954V21.226H105.952V21.954C105.952 24.544 104.286 26.154 101.612 26.154C98.9243 26.154 97.2303 24.544 97.2303 21.954V15.402H99.4423V17.642H106.344V19.49ZM115.827 19.714H118.039V21.954C118.039 24.544 116.373 26.154 113.713 26.154C111.011 26.154 109.317 24.544 109.317 21.954V17.25H106.993V15.402H111.529V21.954C111.529 23.368 112.425 24.222 113.713 24.222C114.987 24.222 115.827 23.382 115.827 21.954V19.714ZM129.21 22.976V24.824H122.378V26H120.166V24.824H119.214V22.976H120.166V19.028C120.166 16.536 121.888 15.234 124.562 15.234C127.04 15.234 128.888 16.48 128.888 18.552C128.888 20.624 127.138 21.884 124.982 21.884C123.946 21.884 123.064 21.646 122.378 21.156V22.976H129.21ZM124.506 16.97C123.246 16.984 122.378 17.614 122.378 18.552C122.378 19.504 123.302 20.148 124.506 20.148C125.752 20.148 126.606 19.504 126.606 18.552C126.606 17.614 125.752 16.97 124.506 16.97ZM139.95 19.49H133.048V21.954C133.048 23.368 133.944 24.222 135.232 24.222C136.506 24.222 137.346 23.382 137.346 21.954V21.226H139.558V21.954C139.558 24.544 137.892 26.154 135.218 26.154C132.53 26.154 130.836 24.544 130.836 21.954V15.402H133.048V17.642H139.95V19.49ZM143.917 19.448V26H141.705V19.448C141.705 16.858 143.399 15.248 146.087 15.248C148.761 15.248 150.427 16.858 150.427 19.448V21.212H148.215V19.448C148.215 18.02 147.375 17.18 146.101 17.18C144.813 17.18 143.917 18.034 143.917 19.448Z" fill="white"/>
<defs>
<linearGradient id="paint0_linear_50_5" x1="0" y1="21" x2="158" y2="21" gradientUnits="userSpaceOnUse">
<stop stop-color="#4F7DA0"/>
<stop offset="1" stop-color="#2A3D50"/>
</linearGradient>
</defs>
</svg>
