<svg width="166" height="44" viewBox="0 0 166 44" fill="none" xmlns="http://www.w3.org/2000/svg">
<g filter="url(#filter0_d_1_106)">
<path d="M0 0H141.5L158 17L141.5 34H0L16.5 17L0 0Z" fill="url(#paint0_linear_1_106)"/>
</g>
<path d="M31.5811 23H28.4453L33.2231 9.17676H36.9805L41.749 23H38.6226L37.5928 19.8457H32.6016L31.5811 23ZM33.3438 17.5635H36.8506L35.1528 12.3311H35.0415L33.3438 17.5635ZM43.4004 23V9.17676H48.9297C50.4512 9.17676 51.5954 9.51074 52.3623 10.1787C53.1292 10.8405 53.5127 11.6878 53.5127 12.7207C53.5127 13.5309 53.2746 14.1896 52.7983 14.6968C52.3283 15.1978 51.7345 15.5286 51.0171 15.6895V15.8286C51.5428 15.8534 52.0345 16.0018 52.4922 16.2739C52.9561 16.5461 53.3302 16.9295 53.6147 17.4243C53.9054 17.9129 54.0508 18.4974 54.0508 19.1777C54.0508 19.9076 53.8714 20.5632 53.5127 21.1445C53.154 21.7197 52.6221 22.1743 51.917 22.5083C51.2119 22.8361 50.3398 23 49.3008 23H43.4004ZM48.4844 14.9658C49.0781 14.9658 49.5729 14.8081 49.9688 14.4927C50.3646 14.1772 50.5625 13.7474 50.5625 13.2031C50.5625 12.7083 50.3862 12.3094 50.0337 12.0063C49.6812 11.6971 49.1833 11.5425 48.54 11.5425H46.3135V14.9658H48.4844ZM48.6978 20.6157C49.5142 20.6157 50.1079 20.458 50.479 20.1426C50.8563 19.8271 51.0449 19.4097 51.0449 18.8901C51.0449 18.3211 50.8408 17.8542 50.4326 17.4893C50.0244 17.1182 49.4709 16.9326 48.772 16.9326H46.3135V20.6157H48.6978ZM62.187 23.1855C60.9624 23.1855 59.8615 22.9072 58.8843 22.3506C57.9071 21.7939 57.134 20.9868 56.5649 19.9292C55.9959 18.8716 55.7114 17.5944 55.7114 16.0977C55.7114 14.5885 55.9959 13.3052 56.5649 12.2476C57.134 11.1899 57.9071 10.3828 58.8843 9.82617C59.8615 9.26953 60.9624 8.99121 62.187 8.99121C63.4116 8.99121 64.5094 9.26953 65.4805 9.82617C66.4577 10.3828 67.2308 11.1899 67.7998 12.2476C68.3688 13.3052 68.6533 14.5885 68.6533 16.0977C68.6533 17.6068 68.3688 18.8901 67.7998 19.9478C67.2308 20.9992 66.4577 21.8032 65.4805 22.3599C64.5094 22.9103 63.4116 23.1855 62.187 23.1855ZM58.6709 16.0977C58.6709 17.5573 58.9894 18.6737 59.6265 19.4468C60.2697 20.2199 61.1232 20.6064 62.187 20.6064C63.2446 20.6064 64.092 20.2199 64.729 19.4468C65.3722 18.6737 65.6938 17.5573 65.6938 16.0977C65.6938 14.6318 65.3722 13.5124 64.729 12.7393C64.092 11.96 63.2446 11.5703 62.187 11.5703C61.1232 11.5703 60.2697 11.96 59.6265 12.7393C58.9894 13.5124 58.6709 14.6318 58.6709 16.0977ZM79.3594 9.17676H82.2725V18.1387C82.2725 19.1468 82.0343 20.0312 81.5581 20.792C81.0819 21.5465 80.4139 22.1341 79.5542 22.5547C78.6945 22.9753 77.6925 23.1855 76.5483 23.1855C75.3979 23.1855 74.3929 22.9753 73.5332 22.5547C72.6797 22.1341 72.0148 21.5465 71.5386 20.792C71.0623 20.0312 70.8242 19.1468 70.8242 18.1387V9.17676H73.7373V17.8975C73.7373 18.6891 73.994 19.3416 74.5073 19.855C75.0207 20.3621 75.701 20.6157 76.5483 20.6157C77.3957 20.6157 78.076 20.3621 78.5894 19.855C79.1027 19.3416 79.3594 18.6891 79.3594 17.8975V9.17676ZM84.1558 11.5889V9.17676H95.502V11.5889H91.29V23H88.377V11.5889H84.1558Z" fill="black"/>
<path d="M111.741 9.17676H114.654V18.1387C114.654 19.1468 114.416 20.0312 113.94 20.792C113.464 21.5465 112.796 22.1341 111.936 22.5547C111.076 22.9753 110.074 23.1855 108.93 23.1855C107.78 23.1855 106.775 22.9753 105.915 22.5547C105.062 22.1341 104.397 21.5465 103.92 20.792C103.444 20.0312 103.206 19.1468 103.206 18.1387V9.17676H106.119V17.8975C106.119 18.6891 106.376 19.3416 106.889 19.855C107.403 20.3621 108.083 20.6157 108.93 20.6157C109.778 20.6157 110.458 20.3621 110.971 19.855C111.485 19.3416 111.741 18.6891 111.741 17.8975V9.17676ZM122.188 23.1948C120.511 23.1948 119.172 22.8114 118.17 22.0444C117.175 21.2775 116.655 20.1488 116.612 18.6582H119.441C119.491 19.3509 119.763 19.8735 120.258 20.2261C120.759 20.5724 121.39 20.7456 122.15 20.7456C122.893 20.7456 123.486 20.5879 123.932 20.2725C124.383 19.957 124.609 19.5457 124.609 19.0386C124.609 18.5747 124.405 18.2191 123.997 17.9717C123.588 17.7181 123.007 17.5016 122.252 17.3223L120.74 16.9512C119.577 16.6729 118.659 16.2306 117.985 15.6245C117.317 15.0122 116.983 14.1958 116.983 13.1753C116.983 12.3403 117.209 11.6105 117.66 10.9858C118.112 10.355 118.73 9.86637 119.516 9.52002C120.307 9.16748 121.207 8.99121 122.215 8.99121C123.242 8.99121 124.139 9.16748 124.906 9.52002C125.673 9.87256 126.27 10.3612 126.696 10.9858C127.129 11.6105 127.352 12.3311 127.364 13.1475H124.544C124.494 12.6094 124.266 12.1888 123.857 11.8857C123.449 11.5827 122.896 11.4312 122.197 11.4312C121.486 11.4312 120.938 11.5796 120.555 11.8765C120.171 12.1672 119.979 12.5382 119.979 12.9897C119.979 13.4784 120.193 13.8494 120.62 14.103C121.046 14.3504 121.56 14.5452 122.16 14.6875L123.394 14.9937C124.198 15.173 124.912 15.4359 125.537 15.7822C126.161 16.1224 126.653 16.5615 127.012 17.0996C127.37 17.6315 127.55 18.2809 127.55 19.0479C127.55 20.3158 127.077 21.3239 126.13 22.0723C125.184 22.8206 123.87 23.1948 122.188 23.1948Z" fill="black"/>
<defs>
<filter id="filter0_d_1_106" x="0" y="0" width="166" height="44" filterUnits="userSpaceOnUse" color-interpolation-filters="sRGB">
<feFlood flood-opacity="0" result="BackgroundImageFix"/>
<feColorMatrix in="SourceAlpha" type="matrix" values="0 0 0 0 0 0 0 0 0 0 0 0 0 0 0 0 0 0 127 0" result="hardAlpha"/>
<feOffset dx="4" dy="6"/>
<feGaussianBlur stdDeviation="2"/>
<feComposite in2="hardAlpha" operator="out"/>
<feColorMatrix type="matrix" values="0 0 0 0 0 0 0 0 0 0 0 0 0 0 0 0 0 0 1 0"/>
<feBlend mode="normal" in2="BackgroundImageFix" result="effect1_dropShadow_1_106"/>
<feBlend mode="normal" in="SourceGraphic" in2="effect1_dropShadow_1_106" result="shape"/>
</filter>
<linearGradient id="paint0_linear_1_106" x1="0" y1="17" x2="158" y2="17" gradientUnits="userSpaceOnUse">
<stop stop-color="#D9EAF2"/>
<stop offset="1" stop-color="#7C929C"/>
</linearGradient>
</defs>
</svg>
