<svg width="190" height="44" viewBox="0 0 190 44" fill="none" xmlns="http://www.w3.org/2000/svg">
<g filter="url(#filter0_d_1_115)">
<path d="M0 0H165L181.5 17L165 34H0L16.5 17L0 0Z" fill="url(#paint0_linear_1_115)"/>
</g>
<path d="M42.2061 23V9.17676H47.6426C48.694 9.17676 49.5877 9.37777 50.3237 9.77979C51.0659 10.1818 51.6318 10.7354 52.0215 11.4404C52.4111 12.1455 52.606 12.9557 52.606 13.8711C52.606 14.7865 52.408 15.5936 52.0122 16.2925C51.6164 16.9914 51.0443 17.5387 50.2959 17.9346C49.5475 18.3242 48.6414 18.519 47.5776 18.519H45.1191V23H42.2061ZM45.1191 16.1812H47.0952C47.9425 16.1812 48.5703 15.9678 48.9785 15.541C49.3929 15.1081 49.6001 14.5514 49.6001 13.8711C49.6001 13.1784 49.3929 12.6217 48.9785 12.2012C48.5641 11.7806 47.9333 11.5703 47.0859 11.5703H45.1191V16.1812ZM54.5078 23V9.17676H59.9443C61.5153 9.17676 62.7337 9.58805 63.5996 10.4106C64.4717 11.2332 64.9077 12.328 64.9077 13.6948C64.9077 14.6411 64.6974 15.4513 64.2769 16.1255C63.8563 16.7935 63.2533 17.2944 62.4678 17.6284L65.3994 23H62.1709L59.5547 18.1016H57.4209V23H54.5078ZM57.4209 15.7544H59.397C61.0669 15.7544 61.9019 15.0679 61.9019 13.6948C61.9019 13.0083 61.6947 12.4826 61.2803 12.1177C60.8659 11.7528 60.235 11.5703 59.3877 11.5703H57.4209V15.7544ZM73.2202 23.1855C71.9956 23.1855 70.8947 22.9072 69.9175 22.3506C68.9403 21.7939 68.1672 20.9868 67.5981 19.9292C67.0291 18.8716 66.7446 17.5944 66.7446 16.0977C66.7446 14.5885 67.0291 13.3052 67.5981 12.2476C68.1672 11.1899 68.9403 10.3828 69.9175 9.82617C70.8947 9.26953 71.9956 8.99121 73.2202 8.99121C74.4448 8.99121 75.5426 9.26953 76.5137 9.82617C77.4909 10.3828 78.264 11.1899 78.833 12.2476C79.402 13.3052 79.6865 14.5885 79.6865 16.0977C79.6865 17.6068 79.402 18.8901 78.833 19.9478C78.264 20.9992 77.4909 21.8032 76.5137 22.3599C75.5426 22.9103 74.4448 23.1855 73.2202 23.1855ZM69.7041 16.0977C69.7041 17.5573 70.0226 18.6737 70.6597 19.4468C71.3029 20.2199 72.1564 20.6064 73.2202 20.6064C74.2778 20.6064 75.1252 20.2199 75.7622 19.4468C76.4054 18.6737 76.7271 17.5573 76.7271 16.0977C76.7271 14.6318 76.4054 13.5124 75.7622 12.7393C75.1252 11.96 74.2778 11.5703 73.2202 11.5703C72.1564 11.5703 71.3029 11.96 70.6597 12.7393C70.0226 13.5124 69.7041 14.6318 69.7041 16.0977ZM86.7559 23H81.8574V9.17676H86.793C88.1846 9.17676 89.3813 9.45508 90.3833 10.0117C91.3853 10.5622 92.1553 11.3538 92.6934 12.3867C93.2376 13.4134 93.5098 14.6442 93.5098 16.0791C93.5098 17.5202 93.2376 18.7572 92.6934 19.79C92.1553 20.8229 91.3822 21.6177 90.374 22.1743C89.3659 22.7248 88.1598 23 86.7559 23ZM84.7705 20.4951H86.626C87.931 20.4951 88.9206 20.1457 89.5947 19.4468C90.2689 18.7479 90.606 17.6253 90.606 16.0791C90.606 14.5452 90.2689 13.4289 89.5947 12.73C88.9206 12.0311 87.931 11.6816 86.626 11.6816H84.7705V20.4951ZM104.216 9.17676H107.129V18.1387C107.129 19.1468 106.891 20.0312 106.415 20.792C105.938 21.5465 105.27 22.1341 104.411 22.5547C103.551 22.9753 102.549 23.1855 101.405 23.1855C100.254 23.1855 99.2493 22.9753 98.3896 22.5547C97.5361 22.1341 96.8713 21.5465 96.395 20.792C95.9188 20.0312 95.6807 19.1468 95.6807 18.1387V9.17676H98.5938V17.8975C98.5938 18.6891 98.8504 19.3416 99.3638 19.855C99.8771 20.3621 100.557 20.6157 101.405 20.6157C102.252 20.6157 102.932 20.3621 103.446 19.855C103.959 19.3416 104.216 18.6891 104.216 17.8975V9.17676ZM115.729 23.1855C114.498 23.1855 113.397 22.9072 112.426 22.3506C111.455 21.7939 110.688 20.9868 110.125 19.9292C109.569 18.8716 109.291 17.5944 109.291 16.0977C109.291 14.5885 109.572 13.3052 110.135 12.2476C110.704 11.1899 111.474 10.3828 112.445 9.82617C113.422 9.26953 114.517 8.99121 115.729 8.99121C116.799 8.99121 117.761 9.18913 118.614 9.58496C119.474 9.98079 120.176 10.5529 120.72 11.3013C121.264 12.0496 121.598 12.9557 121.722 14.0195H118.772C118.661 13.2588 118.336 12.6619 117.798 12.229C117.26 11.7899 116.592 11.5703 115.794 11.5703C114.73 11.5703 113.874 11.9661 113.224 12.7578C112.575 13.5433 112.25 14.6566 112.25 16.0977C112.25 17.5697 112.575 18.6891 113.224 19.4561C113.88 20.223 114.733 20.6064 115.785 20.6064C116.558 20.6064 117.213 20.4023 117.751 19.9941C118.296 19.5859 118.636 19.0138 118.772 18.2778H121.722C121.617 19.1252 121.314 19.923 120.813 20.6714C120.318 21.4198 119.641 22.0259 118.781 22.4897C117.928 22.9536 116.91 23.1855 115.729 23.1855ZM123.299 11.5889V9.17676H134.646V11.5889H130.434V23H127.521V11.5889H123.299ZM141.659 23.1948C139.983 23.1948 138.644 22.8114 137.642 22.0444C136.646 21.2775 136.127 20.1488 136.083 18.6582H138.913C138.963 19.3509 139.235 19.8735 139.729 20.2261C140.23 20.5724 140.861 20.7456 141.622 20.7456C142.364 20.7456 142.958 20.5879 143.403 20.2725C143.855 19.957 144.081 19.5457 144.081 19.0386C144.081 18.5747 143.876 18.2191 143.468 17.9717C143.06 17.7181 142.479 17.5016 141.724 17.3223L140.212 16.9512C139.049 16.6729 138.131 16.2306 137.457 15.6245C136.789 15.0122 136.455 14.1958 136.455 13.1753C136.455 12.3403 136.68 11.6105 137.132 10.9858C137.583 10.355 138.202 9.86637 138.987 9.52002C139.779 9.16748 140.679 8.99121 141.687 8.99121C142.714 8.99121 143.611 9.16748 144.377 9.52002C145.144 9.87256 145.741 10.3612 146.168 10.9858C146.601 11.6105 146.824 12.3311 146.836 13.1475H144.016C143.966 12.6094 143.737 12.1888 143.329 11.8857C142.921 11.5827 142.367 11.4312 141.668 11.4312C140.957 11.4312 140.41 11.5796 140.026 11.8765C139.643 12.1672 139.451 12.5382 139.451 12.9897C139.451 13.4784 139.665 13.8494 140.091 14.103C140.518 14.3504 141.031 14.5452 141.631 14.6875L142.865 14.9937C143.669 15.173 144.384 15.4359 145.008 15.7822C145.633 16.1224 146.125 16.5615 146.483 17.0996C146.842 17.6315 147.021 18.2809 147.021 19.0479C147.021 20.3158 146.548 21.3239 145.602 22.0723C144.656 22.8206 143.341 23.1948 141.659 23.1948Z" fill="white"/>
<defs>
<filter id="filter0_d_1_115" x="0" y="0" width="189.5" height="44" filterUnits="userSpaceOnUse" color-interpolation-filters="sRGB">
<feFlood flood-opacity="0" result="BackgroundImageFix"/>
<feColorMatrix in="SourceAlpha" type="matrix" values="0 0 0 0 0 0 0 0 0 0 0 0 0 0 0 0 0 0 127 0" result="hardAlpha"/>
<feOffset dx="4" dy="6"/>
<feGaussianBlur stdDeviation="2"/>
<feComposite in2="hardAlpha" operator="out"/>
<feColorMatrix type="matrix" values="0 0 0 0 0 0 0 0 0 0 0 0 0 0 0 0 0 0 1 0"/>
<feBlend mode="normal" in2="BackgroundImageFix" result="effect1_dropShadow_1_115"/>
<feBlend mode="normal" in="SourceGraphic" in2="effect1_dropShadow_1_115" result="shape"/>
</filter>
<linearGradient id="paint0_linear_1_115" x1="0" y1="17" x2="181.5" y2="17" gradientUnits="userSpaceOnUse">
<stop stop-color="#16202A"/>
<stop offset="1" stop-color="#609AC4"/>
</linearGradient>
</defs>
</svg>
