<svg width="190" height="44" viewBox="0 0 190 44" fill="none" xmlns="http://www.w3.org/2000/svg">
<g filter="url(#filter0_d_31_4)">
<path d="M0 0H165L181.5 17L165 34H0L16.5 17L0 0Z" fill="url(#paint0_linear_31_4)"/>
</g>
<path d="M41.2061 23V9.17676H46.6426C47.694 9.17676 48.5877 9.37777 49.3237 9.77979C50.0659 10.1818 50.6318 10.7354 51.0215 11.4404C51.4111 12.1455 51.606 12.9557 51.606 13.8711C51.606 14.7865 51.408 15.5936 51.0122 16.2925C50.6164 16.9914 50.0443 17.5387 49.2959 17.9346C48.5475 18.3242 47.6414 18.519 46.5776 18.519H44.1191V23H41.2061ZM44.1191 16.1812H46.0952C46.9425 16.1812 47.5703 15.9678 47.9785 15.541C48.3929 15.1081 48.6001 14.5514 48.6001 13.8711C48.6001 13.1784 48.3929 12.6217 47.9785 12.2012C47.5641 11.7806 46.9333 11.5703 46.0859 11.5703H44.1191V16.1812ZM59.7329 23.1855C58.5083 23.1855 57.4074 22.9072 56.4302 22.3506C55.453 21.7939 54.6799 20.9868 54.1108 19.9292C53.5418 18.8716 53.2573 17.5944 53.2573 16.0977C53.2573 14.5885 53.5418 13.3052 54.1108 12.2476C54.6799 11.1899 55.453 10.3828 56.4302 9.82617C57.4074 9.26953 58.5083 8.99121 59.7329 8.99121C60.9575 8.99121 62.0553 9.26953 63.0264 9.82617C64.0036 10.3828 64.7767 11.1899 65.3457 12.2476C65.9147 13.3052 66.1992 14.5885 66.1992 16.0977C66.1992 17.6068 65.9147 18.8901 65.3457 19.9478C64.7767 20.9992 64.0036 21.8032 63.0264 22.3599C62.0553 22.9103 60.9575 23.1855 59.7329 23.1855ZM56.2168 16.0977C56.2168 17.5573 56.5353 18.6737 57.1724 19.4468C57.8156 20.2199 58.6691 20.6064 59.7329 20.6064C60.7905 20.6064 61.6379 20.2199 62.2749 19.4468C62.9181 18.6737 63.2397 17.5573 63.2397 16.0977C63.2397 14.6318 62.9181 13.5124 62.2749 12.7393C61.6379 11.96 60.7905 11.5703 59.7329 11.5703C58.6691 11.5703 57.8156 11.96 57.1724 12.7393C56.5353 13.5124 56.2168 14.6318 56.2168 16.0977ZM68.3701 23V9.17676H73.8066C75.3776 9.17676 76.596 9.58805 77.4619 10.4106C78.334 11.2332 78.77 12.328 78.77 13.6948C78.77 14.6411 78.5597 15.4513 78.1392 16.1255C77.7186 16.7935 77.1156 17.2944 76.3301 17.6284L79.2617 23H76.0332L73.417 18.1016H71.2832V23H68.3701ZM71.2832 15.7544H73.2593C74.9292 15.7544 75.7642 15.0679 75.7642 13.6948C75.7642 13.0083 75.557 12.4826 75.1426 12.1177C74.7282 11.7528 74.0973 11.5703 73.25 11.5703H71.2832V15.7544ZM80.3286 11.5889V9.17676H91.6748V11.5889H87.4629V23H84.5498V11.5889H80.3286ZM93.5674 23V9.17676H102.715V11.5889H96.4805V15.3833H102.103V17.749H96.4805V23H93.5674ZM110.907 23.1855C109.682 23.1855 108.581 22.9072 107.604 22.3506C106.627 21.7939 105.854 20.9868 105.285 19.9292C104.716 18.8716 104.431 17.5944 104.431 16.0977C104.431 14.5885 104.716 13.3052 105.285 12.2476C105.854 11.1899 106.627 10.3828 107.604 9.82617C108.581 9.26953 109.682 8.99121 110.907 8.99121C112.131 8.99121 113.229 9.26953 114.2 9.82617C115.177 10.3828 115.951 11.1899 116.52 12.2476C117.089 13.3052 117.373 14.5885 117.373 16.0977C117.373 17.6068 117.089 18.8901 116.52 19.9478C115.951 20.9992 115.177 21.8032 114.2 22.3599C113.229 22.9103 112.131 23.1855 110.907 23.1855ZM107.391 16.0977C107.391 17.5573 107.709 18.6737 108.346 19.4468C108.989 20.2199 109.843 20.6064 110.907 20.6064C111.964 20.6064 112.812 20.2199 113.449 19.4468C114.092 18.6737 114.414 17.5573 114.414 16.0977C114.414 14.6318 114.092 13.5124 113.449 12.7393C112.812 11.96 111.964 11.5703 110.907 11.5703C109.843 11.5703 108.989 11.96 108.346 12.7393C107.709 13.5124 107.391 14.6318 107.391 16.0977ZM119.544 23V9.17676H122.457V20.5879H128.385V23H119.544ZM133.256 9.17676V23H130.343V9.17676H133.256ZM141.893 23.1855C140.668 23.1855 139.568 22.9072 138.59 22.3506C137.613 21.7939 136.84 20.9868 136.271 19.9292C135.702 18.8716 135.417 17.5944 135.417 16.0977C135.417 14.5885 135.702 13.3052 136.271 12.2476C136.84 11.1899 137.613 10.3828 138.59 9.82617C139.568 9.26953 140.668 8.99121 141.893 8.99121C143.118 8.99121 144.215 9.26953 145.187 9.82617C146.164 10.3828 146.937 11.1899 147.506 12.2476C148.075 13.3052 148.359 14.5885 148.359 16.0977C148.359 17.6068 148.075 18.8901 147.506 19.9478C146.937 20.9992 146.164 21.8032 145.187 22.3599C144.215 22.9103 143.118 23.1855 141.893 23.1855ZM138.377 16.0977C138.377 17.5573 138.695 18.6737 139.333 19.4468C139.976 20.2199 140.829 20.6064 141.893 20.6064C142.951 20.6064 143.798 20.2199 144.435 19.4468C145.078 18.6737 145.4 17.5573 145.4 16.0977C145.4 14.6318 145.078 13.5124 144.435 12.7393C143.798 11.96 142.951 11.5703 141.893 11.5703C140.829 11.5703 139.976 11.96 139.333 12.7393C138.695 13.5124 138.377 14.6318 138.377 16.0977Z" fill="white"/>
<defs>
<filter id="filter0_d_31_4" x="0" y="0" width="189.5" height="44" filterUnits="userSpaceOnUse" color-interpolation-filters="sRGB">
<feFlood flood-opacity="0" result="BackgroundImageFix"/>
<feColorMatrix in="SourceAlpha" type="matrix" values="0 0 0 0 0 0 0 0 0 0 0 0 0 0 0 0 0 0 127 0" result="hardAlpha"/>
<feOffset dx="4" dy="6"/>
<feGaussianBlur stdDeviation="2"/>
<feComposite in2="hardAlpha" operator="out"/>
<feColorMatrix type="matrix" values="0 0 0 0 0 0 0 0 0 0 0 0 0 0 0 0 0 0 1 0"/>
<feBlend mode="normal" in2="BackgroundImageFix" result="effect1_dropShadow_31_4"/>
<feBlend mode="normal" in="SourceGraphic" in2="effect1_dropShadow_31_4" result="shape"/>
</filter>
<linearGradient id="paint0_linear_31_4" x1="0" y1="17" x2="181.5" y2="17" gradientUnits="userSpaceOnUse">
<stop stop-color="#16202A"/>
<stop offset="1" stop-color="#609AC4"/>
</linearGradient>
</defs>
</svg>
