<svg width="167" height="44" viewBox="0 0 167 44" fill="none" xmlns="http://www.w3.org/2000/svg">
<g filter="url(#filter0_d_1_109)">
<path d="M0 0H144.545L159 17L144.545 34H0L14.4545 17L0 0Z" fill="url(#paint0_linear_1_109)"/>
</g>
<path d="M30.2061 23V9.17676H35.6426C36.694 9.17676 37.5877 9.37777 38.3237 9.77979C39.0659 10.1818 39.6318 10.7354 40.0215 11.4404C40.4111 12.1455 40.606 12.9557 40.606 13.8711C40.606 14.7865 40.408 15.5936 40.0122 16.2925C39.6164 16.9914 39.0443 17.5387 38.2959 17.9346C37.5475 18.3242 36.6414 18.519 35.5776 18.519H33.1191V23H30.2061ZM33.1191 16.1812H35.0952C35.9425 16.1812 36.5703 15.9678 36.9785 15.541C37.3929 15.1081 37.6001 14.5514 37.6001 13.8711C37.6001 13.1784 37.3929 12.6217 36.9785 12.2012C36.5641 11.7806 35.9333 11.5703 35.0859 11.5703H33.1191V16.1812ZM48.7329 23.1855C47.5083 23.1855 46.4074 22.9072 45.4302 22.3506C44.453 21.7939 43.6799 20.9868 43.1108 19.9292C42.5418 18.8716 42.2573 17.5944 42.2573 16.0977C42.2573 14.5885 42.5418 13.3052 43.1108 12.2476C43.6799 11.1899 44.453 10.3828 45.4302 9.82617C46.4074 9.26953 47.5083 8.99121 48.7329 8.99121C49.9575 8.99121 51.0553 9.26953 52.0264 9.82617C53.0036 10.3828 53.7767 11.1899 54.3457 12.2476C54.9147 13.3052 55.1992 14.5885 55.1992 16.0977C55.1992 17.6068 54.9147 18.8901 54.3457 19.9478C53.7767 20.9992 53.0036 21.8032 52.0264 22.3599C51.0553 22.9103 49.9575 23.1855 48.7329 23.1855ZM45.2168 16.0977C45.2168 17.5573 45.5353 18.6737 46.1724 19.4468C46.8156 20.2199 47.6691 20.6064 48.7329 20.6064C49.7905 20.6064 50.6379 20.2199 51.2749 19.4468C51.9181 18.6737 52.2397 17.5573 52.2397 16.0977C52.2397 14.6318 51.9181 13.5124 51.2749 12.7393C50.6379 11.96 49.7905 11.5703 48.7329 11.5703C47.6691 11.5703 46.8156 11.96 46.1724 12.7393C45.5353 13.5124 45.2168 14.6318 45.2168 16.0977ZM57.3701 23V9.17676H62.8066C64.3776 9.17676 65.596 9.58805 66.4619 10.4106C67.334 11.2332 67.77 12.328 67.77 13.6948C67.77 14.6411 67.5597 15.4513 67.1392 16.1255C66.7186 16.7935 66.1156 17.2944 65.3301 17.6284L68.2617 23H65.0332L62.417 18.1016H60.2832V23H57.3701ZM60.2832 15.7544H62.2593C63.9292 15.7544 64.7642 15.0679 64.7642 13.6948C64.7642 13.0083 64.557 12.4826 64.1426 12.1177C63.7282 11.7528 63.0973 11.5703 62.25 11.5703H60.2832V15.7544ZM69.3286 11.5889V9.17676H80.6748V11.5889H76.4629V23H73.5498V11.5889H69.3286ZM82.5674 23V9.17676H91.7148V11.5889H85.4805V15.3833H91.1025V17.749H85.4805V23H82.5674ZM99.9067 23.1855C98.6821 23.1855 97.5812 22.9072 96.604 22.3506C95.6268 21.7939 94.8537 20.9868 94.2847 19.9292C93.7157 18.8716 93.4312 17.5944 93.4312 16.0977C93.4312 14.5885 93.7157 13.3052 94.2847 12.2476C94.8537 11.1899 95.6268 10.3828 96.604 9.82617C97.5812 9.26953 98.6821 8.99121 99.9067 8.99121C101.131 8.99121 102.229 9.26953 103.2 9.82617C104.177 10.3828 104.951 11.1899 105.52 12.2476C106.089 13.3052 106.373 14.5885 106.373 16.0977C106.373 17.6068 106.089 18.8901 105.52 19.9478C104.951 20.9992 104.177 21.8032 103.2 22.3599C102.229 22.9103 101.131 23.1855 99.9067 23.1855ZM96.3906 16.0977C96.3906 17.5573 96.7091 18.6737 97.3462 19.4468C97.9894 20.2199 98.8429 20.6064 99.9067 20.6064C100.964 20.6064 101.812 20.2199 102.449 19.4468C103.092 18.6737 103.414 17.5573 103.414 16.0977C103.414 14.6318 103.092 13.5124 102.449 12.7393C101.812 11.96 100.964 11.5703 99.9067 11.5703C98.8429 11.5703 97.9894 11.96 97.3462 12.7393C96.7091 13.5124 96.3906 14.6318 96.3906 16.0977ZM108.544 23V9.17676H111.457V20.5879H117.385V23H108.544ZM122.256 9.17676V23H119.343V9.17676H122.256ZM130.893 23.1855C129.668 23.1855 128.568 22.9072 127.59 22.3506C126.613 21.7939 125.84 20.9868 125.271 19.9292C124.702 18.8716 124.417 17.5944 124.417 16.0977C124.417 14.5885 124.702 13.3052 125.271 12.2476C125.84 11.1899 126.613 10.3828 127.59 9.82617C128.568 9.26953 129.668 8.99121 130.893 8.99121C132.118 8.99121 133.215 9.26953 134.187 9.82617C135.164 10.3828 135.937 11.1899 136.506 12.2476C137.075 13.3052 137.359 14.5885 137.359 16.0977C137.359 17.6068 137.075 18.8901 136.506 19.9478C135.937 20.9992 135.164 21.8032 134.187 22.3599C133.215 22.9103 132.118 23.1855 130.893 23.1855ZM127.377 16.0977C127.377 17.5573 127.695 18.6737 128.333 19.4468C128.976 20.2199 129.829 20.6064 130.893 20.6064C131.951 20.6064 132.798 20.2199 133.435 19.4468C134.078 18.6737 134.4 17.5573 134.4 16.0977C134.4 14.6318 134.078 13.5124 133.435 12.7393C132.798 11.96 131.951 11.5703 130.893 11.5703C129.829 11.5703 128.976 11.96 128.333 12.7393C127.695 13.5124 127.377 14.6318 127.377 16.0977Z" fill="black"/>
<defs>
<filter id="filter0_d_1_109" x="0" y="0" width="167" height="44" filterUnits="userSpaceOnUse" color-interpolation-filters="sRGB">
<feFlood flood-opacity="0" result="BackgroundImageFix"/>
<feColorMatrix in="SourceAlpha" type="matrix" values="0 0 0 0 0 0 0 0 0 0 0 0 0 0 0 0 0 0 127 0" result="hardAlpha"/>
<feOffset dx="4" dy="6"/>
<feGaussianBlur stdDeviation="2"/>
<feComposite in2="hardAlpha" operator="out"/>
<feColorMatrix type="matrix" values="0 0 0 0 0 0 0 0 0 0 0 0 0 0 0 0 0 0 1 0"/>
<feBlend mode="normal" in2="BackgroundImageFix" result="effect1_dropShadow_1_109"/>
<feBlend mode="normal" in="SourceGraphic" in2="effect1_dropShadow_1_109" result="shape"/>
</filter>
<linearGradient id="paint0_linear_1_109" x1="0" y1="17" x2="159" y2="17" gradientUnits="userSpaceOnUse">
<stop stop-color="#D9EAF2"/>
<stop offset="1" stop-color="#7C929C"/>
</linearGradient>
</defs>
</svg>
