<svg width="167" height="44" viewBox="0 0 167 44" fill="none" xmlns="http://www.w3.org/2000/svg">
<g filter="url(#filter0_d_31_3)">
<path d="M0 0H144.545L159 17L144.545 34H0L14.4545 17L0 0Z" fill="url(#paint0_linear_31_3)"/>
</g>
<path d="M39.394 23.1855C38.1632 23.1855 37.0623 22.9072 36.0913 22.3506C35.1203 21.7939 34.3534 20.9868 33.7905 19.9292C33.2339 18.8716 32.9556 17.5944 32.9556 16.0977C32.9556 14.5885 33.237 13.3052 33.7998 12.2476C34.3688 11.1899 35.1388 10.3828 36.1099 9.82617C37.0871 9.26953 38.1818 8.99121 39.394 8.99121C40.464 8.99121 41.4258 9.18913 42.2793 9.58496C43.139 9.98079 43.841 10.5529 44.3853 11.3013C44.9295 12.0496 45.2635 12.9557 45.3872 14.0195H42.437C42.3257 13.2588 42.001 12.6619 41.4629 12.229C40.9248 11.7899 40.2568 11.5703 39.459 11.5703C38.3952 11.5703 37.5386 11.9661 36.8892 12.7578C36.2397 13.5433 35.915 14.6566 35.915 16.0977C35.915 17.5697 36.2397 18.6891 36.8892 19.4561C37.5448 20.223 38.3983 20.6064 39.4497 20.6064C40.2228 20.6064 40.8784 20.4023 41.4165 19.9941C41.9608 19.5859 42.3009 19.0138 42.437 18.2778H45.3872C45.2821 19.1252 44.979 19.923 44.478 20.6714C43.9832 21.4198 43.306 22.0259 42.4463 22.4897C41.5928 22.9536 40.5754 23.1855 39.394 23.1855ZM49.8682 23H46.7324L51.5103 9.17676H55.2676L60.0361 23H56.9097L55.8799 19.8457H50.8887L49.8682 23ZM51.6309 17.5635H55.1377L53.4399 12.3311H53.3286L51.6309 17.5635ZM61.1587 11.5889V9.17676H72.5049V11.5889H68.293V23H65.3799V11.5889H61.1587ZM76.7725 23H73.6367L78.4146 9.17676H82.1719L86.9404 23H83.814L82.7842 19.8457H77.793L76.7725 23ZM78.5352 17.5635H82.042L80.3442 12.3311H80.2329L78.5352 17.5635ZM88.5918 23V9.17676H91.5049V20.5879H97.4331V23H88.5918ZM105.616 23.1855C104.391 23.1855 103.29 22.9072 102.313 22.3506C101.336 21.7939 100.563 20.9868 99.9937 19.9292C99.4246 18.8716 99.1401 17.5944 99.1401 16.0977C99.1401 14.5885 99.4246 13.3052 99.9937 12.2476C100.563 11.1899 101.336 10.3828 102.313 9.82617C103.29 9.26953 104.391 8.99121 105.616 8.99121C106.84 8.99121 107.938 9.26953 108.909 9.82617C109.886 10.3828 110.66 11.1899 111.229 12.2476C111.798 13.3052 112.082 14.5885 112.082 16.0977C112.082 17.6068 111.798 18.8901 111.229 19.9478C110.66 20.9992 109.886 21.8032 108.909 22.3599C107.938 22.9103 106.84 23.1855 105.616 23.1855ZM102.1 16.0977C102.1 17.5573 102.418 18.6737 103.055 19.4468C103.698 20.2199 104.552 20.6064 105.616 20.6064C106.673 20.6064 107.521 20.2199 108.158 19.4468C108.801 18.6737 109.123 17.5573 109.123 16.0977C109.123 14.6318 108.801 13.5124 108.158 12.7393C107.521 11.96 106.673 11.5703 105.616 11.5703C104.552 11.5703 103.698 11.96 103.055 12.7393C102.418 13.5124 102.1 14.6318 102.1 16.0977ZM120.524 23.1855C119.232 23.1855 118.094 22.901 117.11 22.332C116.133 21.7568 115.369 20.9404 114.819 19.8828C114.275 18.819 114.002 17.5604 114.002 16.1069C114.002 14.6102 114.287 13.333 114.856 12.2754C115.425 11.2116 116.198 10.3983 117.175 9.83545C118.153 9.27262 119.25 8.99121 120.469 8.99121C121.514 8.99121 122.457 9.18913 123.298 9.58496C124.146 9.98079 124.838 10.5282 125.376 11.2271C125.921 11.9259 126.255 12.7331 126.378 13.6484H123.419C123.227 12.999 122.884 12.4919 122.389 12.127C121.894 11.7559 121.27 11.5703 120.515 11.5703C119.458 11.5703 118.601 11.9631 117.945 12.7485C117.29 13.5278 116.962 14.638 116.962 16.0791C116.962 17.5202 117.284 18.6366 117.927 19.4282C118.576 20.2137 119.451 20.6064 120.552 20.6064C121.517 20.6064 122.275 20.356 122.825 19.855C123.382 19.3478 123.669 18.6644 123.688 17.8047H120.729V15.606H126.518V17.3501C126.518 18.5623 126.261 19.6045 125.748 20.4766C125.234 21.3486 124.526 22.0197 123.623 22.4897C122.72 22.9536 121.687 23.1855 120.524 23.1855Z" fill="black"/>
<defs>
<filter id="filter0_d_31_3" x="0" y="0" width="167" height="44" filterUnits="userSpaceOnUse" color-interpolation-filters="sRGB">
<feFlood flood-opacity="0" result="BackgroundImageFix"/>
<feColorMatrix in="SourceAlpha" type="matrix" values="0 0 0 0 0 0 0 0 0 0 0 0 0 0 0 0 0 0 127 0" result="hardAlpha"/>
<feOffset dx="4" dy="6"/>
<feGaussianBlur stdDeviation="2"/>
<feComposite in2="hardAlpha" operator="out"/>
<feColorMatrix type="matrix" values="0 0 0 0 0 0 0 0 0 0 0 0 0 0 0 0 0 0 1 0"/>
<feBlend mode="normal" in2="BackgroundImageFix" result="effect1_dropShadow_31_3"/>
<feBlend mode="normal" in="SourceGraphic" in2="effect1_dropShadow_31_3" result="shape"/>
</filter>
<linearGradient id="paint0_linear_31_3" x1="0" y1="17" x2="159" y2="17" gradientUnits="userSpaceOnUse">
<stop stop-color="#D9EAF2"/>
<stop offset="1" stop-color="#7C929C"/>
</linearGradient>
</defs>
</svg>
