<svg width="193" height="44" viewBox="0 0 193 44" fill="none" xmlns="http://www.w3.org/2000/svg">
<g filter="url(#filter0_d_1_108)">
<path d="M0.5 0H170.469L185 17L170.469 34H0.5L15.031 17L0.5 0Z" fill="url(#paint0_linear_1_108)"/>
</g>
<path d="M36.2061 23V9.17676H41.6426C42.694 9.17676 43.5877 9.37777 44.3237 9.77979C45.0659 10.1818 45.6318 10.7354 46.0215 11.4404C46.4111 12.1455 46.606 12.9557 46.606 13.8711C46.606 14.7865 46.408 15.5936 46.0122 16.2925C45.6164 16.9914 45.0443 17.5387 44.2959 17.9346C43.5475 18.3242 42.6414 18.519 41.5776 18.519H39.1191V23H36.2061ZM39.1191 16.1812H41.0952C41.9425 16.1812 42.5703 15.9678 42.9785 15.541C43.3929 15.1081 43.6001 14.5514 43.6001 13.8711C43.6001 13.1784 43.3929 12.6217 42.9785 12.2012C42.5641 11.7806 41.9333 11.5703 41.0859 11.5703H39.1191V16.1812ZM48.5078 23V9.17676H53.9443C55.5153 9.17676 56.7337 9.58805 57.5996 10.4106C58.4717 11.2332 58.9077 12.328 58.9077 13.6948C58.9077 14.6411 58.6974 15.4513 58.2769 16.1255C57.8563 16.7935 57.2533 17.2944 56.4678 17.6284L59.3994 23H56.1709L53.5547 18.1016H51.4209V23H48.5078ZM51.4209 15.7544H53.397C55.0669 15.7544 55.9019 15.0679 55.9019 13.6948C55.9019 13.0083 55.6947 12.4826 55.2803 12.1177C54.8659 11.7528 54.235 11.5703 53.3877 11.5703H51.4209V15.7544ZM67.2202 23.1855C65.9956 23.1855 64.8947 22.9072 63.9175 22.3506C62.9403 21.7939 62.1672 20.9868 61.5981 19.9292C61.0291 18.8716 60.7446 17.5944 60.7446 16.0977C60.7446 14.5885 61.0291 13.3052 61.5981 12.2476C62.1672 11.1899 62.9403 10.3828 63.9175 9.82617C64.8947 9.26953 65.9956 8.99121 67.2202 8.99121C68.4448 8.99121 69.5426 9.26953 70.5137 9.82617C71.4909 10.3828 72.264 11.1899 72.833 12.2476C73.402 13.3052 73.6865 14.5885 73.6865 16.0977C73.6865 17.6068 73.402 18.8901 72.833 19.9478C72.264 20.9992 71.4909 21.8032 70.5137 22.3599C69.5426 22.9103 68.4448 23.1855 67.2202 23.1855ZM63.7041 16.0977C63.7041 17.5573 64.0226 18.6737 64.6597 19.4468C65.3029 20.2199 66.1564 20.6064 67.2202 20.6064C68.2778 20.6064 69.1252 20.2199 69.7622 19.4468C70.4054 18.6737 70.7271 17.5573 70.7271 16.0977C70.7271 14.6318 70.4054 13.5124 69.7622 12.7393C69.1252 11.96 68.2778 11.5703 67.2202 11.5703C66.1564 11.5703 65.3029 11.96 64.6597 12.7393C64.0226 13.5124 63.7041 14.6318 63.7041 16.0977ZM80.7559 23H75.8574V9.17676H80.793C82.1846 9.17676 83.3813 9.45508 84.3833 10.0117C85.3853 10.5622 86.1553 11.3538 86.6934 12.3867C87.2376 13.4134 87.5098 14.6442 87.5098 16.0791C87.5098 17.5202 87.2376 18.7572 86.6934 19.79C86.1553 20.8229 85.3822 21.6177 84.374 22.1743C83.3659 22.7248 82.1598 23 80.7559 23ZM78.7705 20.4951H80.626C81.931 20.4951 82.9206 20.1457 83.5947 19.4468C84.2689 18.7479 84.606 17.6253 84.606 16.0791C84.606 14.5452 84.2689 13.4289 83.5947 12.73C82.9206 12.0311 81.931 11.6816 80.626 11.6816H78.7705V20.4951ZM98.2158 9.17676H101.129V18.1387C101.129 19.1468 100.891 20.0312 100.415 20.792C99.9383 21.5465 99.2703 22.1341 98.4106 22.5547C97.5509 22.9753 96.549 23.1855 95.4048 23.1855C94.2544 23.1855 93.2493 22.9753 92.3896 22.5547C91.5361 22.1341 90.8713 21.5465 90.395 20.792C89.9188 20.0312 89.6807 19.1468 89.6807 18.1387V9.17676H92.5938V17.8975C92.5938 18.6891 92.8504 19.3416 93.3638 19.855C93.8771 20.3621 94.5575 20.6157 95.4048 20.6157C96.2521 20.6157 96.9325 20.3621 97.4458 19.855C97.9591 19.3416 98.2158 18.6891 98.2158 17.8975V9.17676ZM109.729 23.1855C108.498 23.1855 107.397 22.9072 106.426 22.3506C105.455 21.7939 104.688 20.9868 104.125 19.9292C103.569 18.8716 103.291 17.5944 103.291 16.0977C103.291 14.5885 103.572 13.3052 104.135 12.2476C104.704 11.1899 105.474 10.3828 106.445 9.82617C107.422 9.26953 108.517 8.99121 109.729 8.99121C110.799 8.99121 111.761 9.18913 112.614 9.58496C113.474 9.98079 114.176 10.5529 114.72 11.3013C115.264 12.0496 115.598 12.9557 115.722 14.0195H112.772C112.661 13.2588 112.336 12.6619 111.798 12.229C111.26 11.7899 110.592 11.5703 109.794 11.5703C108.73 11.5703 107.874 11.9661 107.224 12.7578C106.575 13.5433 106.25 14.6566 106.25 16.0977C106.25 17.5697 106.575 18.6891 107.224 19.4561C107.88 20.223 108.733 20.6064 109.785 20.6064C110.558 20.6064 111.213 20.4023 111.751 19.9941C112.296 19.5859 112.636 19.0138 112.772 18.2778H115.722C115.617 19.1252 115.314 19.923 114.813 20.6714C114.318 21.4198 113.641 22.0259 112.781 22.4897C111.928 22.9536 110.91 23.1855 109.729 23.1855ZM117.299 11.5889V9.17676H128.646V11.5889H124.434V23H121.521V11.5889H117.299ZM135.659 23.1948C133.983 23.1948 132.644 22.8114 131.642 22.0444C130.646 21.2775 130.127 20.1488 130.083 18.6582H132.913C132.963 19.3509 133.235 19.8735 133.729 20.2261C134.23 20.5724 134.861 20.7456 135.622 20.7456C136.364 20.7456 136.958 20.5879 137.403 20.2725C137.855 19.957 138.081 19.5457 138.081 19.0386C138.081 18.5747 137.876 18.2191 137.468 17.9717C137.06 17.7181 136.479 17.5016 135.724 17.3223L134.212 16.9512C133.049 16.6729 132.131 16.2306 131.457 15.6245C130.789 15.0122 130.455 14.1958 130.455 13.1753C130.455 12.3403 130.68 11.6105 131.132 10.9858C131.583 10.355 132.202 9.86637 132.987 9.52002C133.779 9.16748 134.679 8.99121 135.687 8.99121C136.714 8.99121 137.611 9.16748 138.377 9.52002C139.144 9.87256 139.741 10.3612 140.168 10.9858C140.601 11.6105 140.824 12.3311 140.836 13.1475H138.016C137.966 12.6094 137.737 12.1888 137.329 11.8857C136.921 11.5827 136.367 11.4312 135.668 11.4312C134.957 11.4312 134.41 11.5796 134.026 11.8765C133.643 12.1672 133.451 12.5382 133.451 12.9897C133.451 13.4784 133.665 13.8494 134.091 14.103C134.518 14.3504 135.031 14.5452 135.631 14.6875L136.865 14.9937C137.669 15.173 138.384 15.4359 139.008 15.7822C139.633 16.1224 140.125 16.5615 140.483 17.0996C140.842 17.6315 141.021 18.2809 141.021 19.0479C141.021 20.3158 140.548 21.3239 139.602 22.0723C138.656 22.8206 137.341 23.1948 135.659 23.1948Z" fill="black"/>
<defs>
<filter id="filter0_d_1_108" x="0.5" y="0" width="192.5" height="44" filterUnits="userSpaceOnUse" color-interpolation-filters="sRGB">
<feFlood flood-opacity="0" result="BackgroundImageFix"/>
<feColorMatrix in="SourceAlpha" type="matrix" values="0 0 0 0 0 0 0 0 0 0 0 0 0 0 0 0 0 0 127 0" result="hardAlpha"/>
<feOffset dx="4" dy="6"/>
<feGaussianBlur stdDeviation="2"/>
<feComposite in2="hardAlpha" operator="out"/>
<feColorMatrix type="matrix" values="0 0 0 0 0 0 0 0 0 0 0 0 0 0 0 0 0 0 1 0"/>
<feBlend mode="normal" in2="BackgroundImageFix" result="effect1_dropShadow_1_108"/>
<feBlend mode="normal" in="SourceGraphic" in2="effect1_dropShadow_1_108" result="shape"/>
</filter>
<linearGradient id="paint0_linear_1_108" x1="0.5" y1="17" x2="185" y2="17" gradientUnits="userSpaceOnUse">
<stop stop-color="#D9EAF2"/>
<stop offset="1" stop-color="#7C929C"/>
</linearGradient>
</defs>
</svg>
