<svg width="157" height="44" viewBox="0 0 157 44" fill="none" xmlns="http://www.w3.org/2000/svg">
<g filter="url(#filter0_d_1_110)">
<path d="M0 0H126.445L149 17L126.445 34H0L22.555 17L0 0Z" fill="url(#paint0_linear_1_110)"/>
</g>
<path d="M32.394 23.1855C31.1632 23.1855 30.0623 22.9072 29.0913 22.3506C28.1203 21.7939 27.3534 20.9868 26.7905 19.9292C26.2339 18.8716 25.9556 17.5944 25.9556 16.0977C25.9556 14.5885 26.237 13.3052 26.7998 12.2476C27.3688 11.1899 28.1388 10.3828 29.1099 9.82617C30.0871 9.26953 31.1818 8.99121 32.394 8.99121C33.464 8.99121 34.4258 9.18913 35.2793 9.58496C36.139 9.98079 36.841 10.5529 37.3853 11.3013C37.9295 12.0496 38.2635 12.9557 38.3872 14.0195H35.437C35.3257 13.2588 35.001 12.6619 34.4629 12.229C33.9248 11.7899 33.2568 11.5703 32.459 11.5703C31.3952 11.5703 30.5386 11.9661 29.8892 12.7578C29.2397 13.5433 28.915 14.6566 28.915 16.0977C28.915 17.5697 29.2397 18.6891 29.8892 19.4561C30.5448 20.223 31.3983 20.6064 32.4497 20.6064C33.2228 20.6064 33.8784 20.4023 34.4165 19.9941C34.9608 19.5859 35.3009 19.0138 35.437 18.2778H38.3872C38.2821 19.1252 37.979 19.923 37.478 20.6714C36.9832 21.4198 36.306 22.0259 35.4463 22.4897C34.5928 22.9536 33.5754 23.1855 32.394 23.1855ZM46.7183 23.1855C45.4937 23.1855 44.3927 22.9072 43.4155 22.3506C42.4383 21.7939 41.6652 20.9868 41.0962 19.9292C40.5272 18.8716 40.2427 17.5944 40.2427 16.0977C40.2427 14.5885 40.5272 13.3052 41.0962 12.2476C41.6652 11.1899 42.4383 10.3828 43.4155 9.82617C44.3927 9.26953 45.4937 8.99121 46.7183 8.99121C47.9429 8.99121 49.0407 9.26953 50.0117 9.82617C50.9889 10.3828 51.762 11.1899 52.3311 12.2476C52.9001 13.3052 53.1846 14.5885 53.1846 16.0977C53.1846 17.6068 52.9001 18.8901 52.3311 19.9478C51.762 20.9992 50.9889 21.8032 50.0117 22.3599C49.0407 22.9103 47.9429 23.1855 46.7183 23.1855ZM43.2021 16.0977C43.2021 17.5573 43.5207 18.6737 44.1577 19.4468C44.8009 20.2199 45.6545 20.6064 46.7183 20.6064C47.7759 20.6064 48.6232 20.2199 49.2603 19.4468C49.9035 18.6737 50.2251 17.5573 50.2251 16.0977C50.2251 14.6318 49.9035 13.5124 49.2603 12.7393C48.6232 11.96 47.7759 11.5703 46.7183 11.5703C45.6545 11.5703 44.8009 11.96 44.1577 12.7393C43.5207 13.5124 43.2021 14.6318 43.2021 16.0977ZM66.915 9.17676V23H64.3823L58.3799 14.3071H58.2686V23H55.3555V9.17676H57.916L63.8813 17.8696H64.002V9.17676H66.915ZM68.7983 11.5889V9.17676H80.1445V11.5889H75.9326V23H73.0195V11.5889H68.7983ZM84.4121 23H81.2764L86.0542 9.17676H89.8115L94.5801 23H91.4536L90.4238 19.8457H85.4326L84.4121 23ZM86.1748 17.5635H89.6816L87.9839 12.3311H87.8726L86.1748 17.5635ZM102.419 23.1855C101.189 23.1855 100.088 22.9072 99.1167 22.3506C98.1457 21.7939 97.3787 20.9868 96.8159 19.9292C96.2593 18.8716 95.981 17.5944 95.981 16.0977C95.981 14.5885 96.2624 13.3052 96.8252 12.2476C97.3942 11.1899 98.1642 10.3828 99.1353 9.82617C100.112 9.26953 101.207 8.99121 102.419 8.99121C103.489 8.99121 104.451 9.18913 105.305 9.58496C106.164 9.98079 106.866 10.5529 107.411 11.3013C107.955 12.0496 108.289 12.9557 108.413 14.0195H105.462C105.351 13.2588 105.026 12.6619 104.488 12.229C103.95 11.7899 103.282 11.5703 102.484 11.5703C101.421 11.5703 100.564 11.9661 99.9146 12.7578C99.2651 13.5433 98.9404 14.6566 98.9404 16.0977C98.9404 17.5697 99.2651 18.6891 99.9146 19.4561C100.57 20.223 101.424 20.6064 102.475 20.6064C103.248 20.6064 103.904 20.4023 104.442 19.9941C104.986 19.5859 105.326 19.0138 105.462 18.2778H108.413C108.307 19.1252 108.004 19.923 107.503 20.6714C107.009 21.4198 106.331 22.0259 105.472 22.4897C104.618 22.9536 103.601 23.1855 102.419 23.1855ZM109.99 11.5889V9.17676H121.336V11.5889H117.124V23H114.211V11.5889H109.99ZM128.35 23.1948C126.674 23.1948 125.334 22.8114 124.333 22.0444C123.337 21.2775 122.817 20.1488 122.774 18.6582H125.604C125.653 19.3509 125.925 19.8735 126.42 20.2261C126.921 20.5724 127.552 20.7456 128.312 20.7456C129.055 20.7456 129.648 20.5879 130.094 20.2725C130.545 19.957 130.771 19.5457 130.771 19.0386C130.771 18.5747 130.567 18.2191 130.159 17.9717C129.75 17.7181 129.169 17.5016 128.415 17.3223L126.902 16.9512C125.74 16.6729 124.821 16.2306 124.147 15.6245C123.479 15.0122 123.145 14.1958 123.145 13.1753C123.145 12.3403 123.371 11.6105 123.822 10.9858C124.274 10.355 124.892 9.86637 125.678 9.52002C126.469 9.16748 127.369 8.99121 128.377 8.99121C129.404 8.99121 130.301 9.16748 131.068 9.52002C131.835 9.87256 132.432 10.3612 132.858 10.9858C133.291 11.6105 133.514 12.3311 133.526 13.1475H130.706C130.657 12.6094 130.428 12.1888 130.02 11.8857C129.611 11.5827 129.058 11.4312 128.359 11.4312C127.648 11.4312 127.1 11.5796 126.717 11.8765C126.333 12.1672 126.142 12.5382 126.142 12.9897C126.142 13.4784 126.355 13.8494 126.782 14.103C127.208 14.3504 127.722 14.5452 128.322 14.6875L129.556 14.9937C130.36 15.173 131.074 15.4359 131.699 15.7822C132.323 16.1224 132.815 16.5615 133.174 17.0996C133.533 17.6315 133.712 18.2809 133.712 19.0479C133.712 20.3158 133.239 21.3239 132.292 22.0723C131.346 22.8206 130.032 23.1948 128.35 23.1948Z" fill="black"/>
<defs>
<filter id="filter0_d_1_110" x="0" y="0" width="157" height="44" filterUnits="userSpaceOnUse" color-interpolation-filters="sRGB">
<feFlood flood-opacity="0" result="BackgroundImageFix"/>
<feColorMatrix in="SourceAlpha" type="matrix" values="0 0 0 0 0 0 0 0 0 0 0 0 0 0 0 0 0 0 127 0" result="hardAlpha"/>
<feOffset dx="4" dy="6"/>
<feGaussianBlur stdDeviation="2"/>
<feComposite in2="hardAlpha" operator="out"/>
<feColorMatrix type="matrix" values="0 0 0 0 0 0 0 0 0 0 0 0 0 0 0 0 0 0 1 0"/>
<feBlend mode="normal" in2="BackgroundImageFix" result="effect1_dropShadow_1_110"/>
<feBlend mode="normal" in="SourceGraphic" in2="effect1_dropShadow_1_110" result="shape"/>
</filter>
<linearGradient id="paint0_linear_1_110" x1="0" y1="17" x2="149" y2="17" gradientUnits="userSpaceOnUse">
<stop stop-color="#D9EAF2"/>
<stop offset="1" stop-color="#7C929C"/>
</linearGradient>
</defs>
</svg>
