<svg width="218" height="44" viewBox="0 0 218 44" fill="none" xmlns="http://www.w3.org/2000/svg">
<g filter="url(#filter0_d_1_107)">
<path d="M0 0H193L209.5 17L193 34H0L16.5 17L0 0Z" fill="url(#paint0_linear_1_107)"/>
</g>
<path d="M63.3271 23.1948C61.651 23.1948 60.312 22.8114 59.3101 22.0444C58.3143 21.2775 57.7948 20.1488 57.7515 18.6582H60.5811C60.6305 19.3509 60.9027 19.8735 61.3975 20.2261C61.8984 20.5724 62.5293 20.7456 63.29 20.7456C64.0322 20.7456 64.626 20.5879 65.0713 20.2725C65.5228 19.957 65.7485 19.5457 65.7485 19.0386C65.7485 18.5747 65.5444 18.2191 65.1362 17.9717C64.728 17.7181 64.1466 17.5016 63.3921 17.3223L61.8799 16.9512C60.7171 16.6729 59.7987 16.2306 59.1245 15.6245C58.4565 15.0122 58.1226 14.1958 58.1226 13.1753C58.1226 12.3403 58.3483 11.6105 58.7998 10.9858C59.2513 10.355 59.8698 9.86637 60.6553 9.52002C61.4469 9.16748 62.3468 8.99121 63.355 8.99121C64.3817 8.99121 65.2785 9.16748 66.0454 9.52002C66.8123 9.87256 67.4092 10.3612 67.8359 10.9858C68.2689 11.6105 68.4915 12.3311 68.5039 13.1475H65.6836C65.6341 12.6094 65.4053 12.1888 64.9971 11.8857C64.5889 11.5827 64.0353 11.4312 63.3364 11.4312C62.6252 11.4312 62.0778 11.5796 61.6943 11.8765C61.3109 12.1672 61.1191 12.5382 61.1191 12.9897C61.1191 13.4784 61.3325 13.8494 61.7593 14.103C62.186 14.3504 62.6994 14.5452 63.2993 14.6875L64.5332 14.9937C65.3372 15.173 66.0516 15.4359 66.6763 15.7822C67.3009 16.1224 67.7926 16.5615 68.1514 17.0996C68.5101 17.6315 68.6895 18.2809 68.6895 19.0479C68.6895 20.3158 68.2163 21.3239 67.27 22.0723C66.3237 22.8206 65.0094 23.1948 63.3271 23.1948ZM70.6562 23V9.17676H79.9707V11.5889H73.5693V14.8359H79.479V17.2017H73.5693V20.5879H79.9893V23H70.6562ZM82.29 23V9.17676H87.7266C89.2975 9.17676 90.516 9.58805 91.3818 10.4106C92.2539 11.2332 92.6899 12.328 92.6899 13.6948C92.6899 14.6411 92.4797 15.4513 92.0591 16.1255C91.6385 16.7935 91.0355 17.2944 90.25 17.6284L93.1816 23H89.9531L87.3369 18.1016H85.2031V23H82.29ZM85.2031 15.7544H87.1792C88.8491 15.7544 89.6841 15.0679 89.6841 13.6948C89.6841 13.0083 89.4769 12.4826 89.0625 12.1177C88.6481 11.7528 88.0173 11.5703 87.1699 11.5703H85.2031V15.7544ZM97.2729 9.17676L100.604 19.6787H100.743L104.083 9.17676H107.32L102.552 23H98.7944L94.0166 9.17676H97.2729ZM111.885 9.17676V23H108.972V9.17676H111.885ZM120.485 23.1855C119.254 23.1855 118.153 22.9072 117.182 22.3506C116.211 21.7939 115.444 20.9868 114.881 19.9292C114.325 18.8716 114.046 17.5944 114.046 16.0977C114.046 14.5885 114.328 13.3052 114.891 12.2476C115.46 11.1899 116.23 10.3828 117.201 9.82617C118.178 9.26953 119.273 8.99121 120.485 8.99121C121.555 8.99121 122.517 9.18913 123.37 9.58496C124.23 9.98079 124.932 10.5529 125.476 11.3013C126.02 12.0496 126.354 12.9557 126.478 14.0195H123.528C123.417 13.2588 123.092 12.6619 122.554 12.229C122.016 11.7899 121.348 11.5703 120.55 11.5703C119.486 11.5703 118.629 11.9661 117.98 12.7578C117.331 13.5433 117.006 14.6566 117.006 16.0977C117.006 17.5697 117.331 18.6891 117.98 19.4561C118.636 20.223 119.489 20.6064 120.541 20.6064C121.314 20.6064 121.969 20.4023 122.507 19.9941C123.052 19.5859 123.392 19.0138 123.528 18.2778H126.478C126.373 19.1252 126.07 19.923 125.569 20.6714C125.074 21.4198 124.397 22.0259 123.537 22.4897C122.684 22.9536 121.666 23.1855 120.485 23.1855ZM128.584 23V9.17676H137.898V11.5889H131.497V14.8359H137.407V17.2017H131.497V20.5879H137.917V23H128.584ZM145.339 23.1948C143.663 23.1948 142.324 22.8114 141.322 22.0444C140.326 21.2775 139.806 20.1488 139.763 18.6582H142.593C142.642 19.3509 142.914 19.8735 143.409 20.2261C143.91 20.5724 144.541 20.7456 145.302 20.7456C146.044 20.7456 146.638 20.5879 147.083 20.2725C147.535 19.957 147.76 19.5457 147.76 19.0386C147.76 18.5747 147.556 18.2191 147.148 17.9717C146.74 17.7181 146.158 17.5016 145.404 17.3223L143.892 16.9512C142.729 16.6729 141.81 16.2306 141.136 15.6245C140.468 15.0122 140.134 14.1958 140.134 13.1753C140.134 12.3403 140.36 11.6105 140.812 10.9858C141.263 10.355 141.882 9.86637 142.667 9.52002C143.459 9.16748 144.359 8.99121 145.367 8.99121C146.393 8.99121 147.29 9.16748 148.057 9.52002C148.824 9.87256 149.421 10.3612 149.848 10.9858C150.281 11.6105 150.503 12.3311 150.516 13.1475H147.695C147.646 12.6094 147.417 12.1888 147.009 11.8857C146.601 11.5827 146.047 11.4312 145.348 11.4312C144.637 11.4312 144.09 11.5796 143.706 11.8765C143.323 12.1672 143.131 12.5382 143.131 12.9897C143.131 13.4784 143.344 13.8494 143.771 14.103C144.198 14.3504 144.711 14.5452 145.311 14.6875L146.545 14.9937C147.349 15.173 148.063 15.4359 148.688 15.7822C149.313 16.1224 149.804 16.5615 150.163 17.0996C150.522 17.6315 150.701 18.2809 150.701 19.0479C150.701 20.3158 150.228 21.3239 149.282 22.0723C148.335 22.8206 147.021 23.1948 145.339 23.1948Z" fill="black"/>
<defs>
<filter id="filter0_d_1_107" x="0" y="0" width="217.5" height="44" filterUnits="userSpaceOnUse" color-interpolation-filters="sRGB">
<feFlood flood-opacity="0" result="BackgroundImageFix"/>
<feColorMatrix in="SourceAlpha" type="matrix" values="0 0 0 0 0 0 0 0 0 0 0 0 0 0 0 0 0 0 127 0" result="hardAlpha"/>
<feOffset dx="4" dy="6"/>
<feGaussianBlur stdDeviation="2"/>
<feComposite in2="hardAlpha" operator="out"/>
<feColorMatrix type="matrix" values="0 0 0 0 0 0 0 0 0 0 0 0 0 0 0 0 0 0 1 0"/>
<feBlend mode="normal" in2="BackgroundImageFix" result="effect1_dropShadow_1_107"/>
<feBlend mode="normal" in="SourceGraphic" in2="effect1_dropShadow_1_107" result="shape"/>
</filter>
<linearGradient id="paint0_linear_1_107" x1="0" y1="17" x2="209.5" y2="17" gradientUnits="userSpaceOnUse">
<stop stop-color="#D9EAF2"/>
<stop offset="1" stop-color="#7C929C"/>
</linearGradient>
</defs>
</svg>
