<svg width="16" height="12" viewBox="0 0 16 12" fill="none" xmlns="http://www.w3.org/2000/svg">
<path d="M15.1934 0.00526472C15.1253 -0.00175491 15.0566 -0.00175491 14.9885 0.00526472H0.994576C0.904887 0.00664669 0.815792 0.0200949 0.729691 0.0452474L7.95156 7.23713L15.1934 0.00526472Z" fill="url(#paint0_linear_7_191)"/>
<path d="M15.9331 0.699951L8.65625 7.94681C8.46897 8.13298 8.21563 8.23748 7.95156 8.23748C7.68749 8.23748 7.43414 8.13298 7.24686 7.94681L0.0349849 0.754927C0.0128142 0.836412 0.00105888 0.920379 0 1.00482V11.0005C0 11.2656 0.105311 11.5198 0.292766 11.7073C0.480222 11.8947 0.734465 12.0001 0.999567 12.0001H14.9935C15.2586 12.0001 15.5129 11.8947 15.7003 11.7073C15.8878 11.5198 15.9931 11.2656 15.9931 11.0005V1.00482C15.9891 0.900692 15.9689 0.797826 15.9331 0.699951ZM1.68427 11.0005H0.989572V10.2858L4.623 6.68236L5.32769 7.38706L1.68427 11.0005ZM14.9835 11.0005H14.2838L10.6404 7.38706L11.3451 6.68236L14.9785 10.2858L14.9835 11.0005Z" fill="url(#paint1_linear_7_191)"/>
<defs>
<linearGradient id="paint0_linear_7_191" x1="7.96156" y1="0" x2="7.96156" y2="7.23713" gradientUnits="userSpaceOnUse">
<stop stop-color="#2E4A5E"/>
<stop offset="1" stop-color="#609AC4"/>
</linearGradient>
<linearGradient id="paint1_linear_7_191" x1="7.99654" y1="0.699951" x2="7.99654" y2="12.0001" gradientUnits="userSpaceOnUse">
<stop stop-color="#2E4A5E"/>
<stop offset="1" stop-color="#609AC4"/>
</linearGradient>
</defs>
</svg>
