<svg width="164" height="42" viewBox="0 0 164 42" fill="none" xmlns="http://www.w3.org/2000/svg">
<rect width="164" height="42" rx="5" fill="#16202A"/>
<rect x="1" y="1" width="162" height="40" rx="4" stroke="url(#paint0_linear_61_21)" stroke-width="2"/>
<path d="M18.232 26H16.084L14.752 23.6H14.572H12.82V26H10.924V17.6H14.572C16.768 17.6 18.016 18.656 18.016 20.516C18.016 21.812 17.464 22.748 16.444 23.228L18.232 26ZM12.82 19.172V22.016H14.572C15.616 22.016 16.216 21.536 16.216 20.576C16.216 19.64 15.616 19.172 14.572 19.172H12.82ZM19.6076 17.6H26.0036V19.172H21.5036V20.996H25.5476V22.568H21.5036V24.428H26.1356V26H19.6076V17.6ZM33.1552 19.94C32.2672 19.4 31.2112 19.076 30.5392 19.076C29.9032 19.076 29.4712 19.316 29.4712 19.784C29.4712 21.368 33.9472 20.492 33.9352 23.552C33.9352 25.208 32.5072 26.108 30.6472 26.108C29.2672 26.108 27.8872 25.58 26.9392 24.764L27.6952 23.216C28.5592 23.996 29.7832 24.488 30.6712 24.488C31.4512 24.488 31.9192 24.188 31.9192 23.648C31.9192 22.028 27.4432 22.976 27.4432 19.952C27.4432 18.416 28.7512 17.444 30.6952 17.444C31.8712 17.444 33.0472 17.816 33.8872 18.368L33.1552 19.94ZM35.2638 17.6H37.1598V26H35.2638V17.6ZM42.5896 17.6C45.1936 17.6 47.0056 19.316 47.0056 21.8C47.0056 24.272 45.1696 26 42.5176 26H39.0256V17.6H42.5896ZM42.6376 24.404C44.0416 24.404 45.0736 23.348 45.0736 21.812C45.0736 20.264 43.9936 19.196 42.5536 19.196H40.9216V24.404H42.6376ZM48.2482 17.6H54.6442V19.172H50.1442V20.996H54.1882V22.568H50.1442V24.428H54.7762V26H48.2482V17.6ZM62.0718 17.6H63.8718V26H62.1438L58.0758 20.6V26H56.2638V17.6H57.9918L62.0718 23.024V17.6ZM64.8929 17.6H71.9129V19.208H69.3449V26H67.4489V19.208H64.8929V17.6ZM78.253 26L77.593 24.368H73.705L73.045 26H71.089L74.737 17.6H76.693L80.281 26H78.253ZM74.329 22.844H76.981L75.661 19.58L74.329 22.844ZM81.1545 17.6H83.0505V24.344H86.6505V26H81.1545V17.6ZM95.2372 17.6C97.0852 17.6 98.2372 18.404 98.2372 19.7C98.2372 20.6 97.6852 21.308 96.7852 21.548C97.8772 21.752 98.5372 22.568 98.5372 23.672C98.5372 25.112 97.3132 26 95.3692 26H91.3732V17.6H95.2372ZM95.1412 20.984C95.8612 20.984 96.2932 20.636 96.2932 20.048C96.2932 19.472 95.8612 19.136 95.1412 19.148H93.2692V20.984H95.1412ZM95.1412 24.452C96.0292 24.452 96.5812 24.08 96.5812 23.432C96.5812 22.82 96.0292 22.448 95.1412 22.46H93.2692V24.452H95.1412ZM101.668 22.532C101.668 23.744 102.424 24.476 103.54 24.476C104.632 24.476 105.352 23.756 105.352 22.532V17.6H107.248V22.532C107.248 24.752 105.82 26.132 103.528 26.132C101.224 26.132 99.7722 24.752 99.7722 22.532V17.6H101.668V22.532ZM108.951 17.6H110.847V26H108.951V17.6ZM112.713 17.6H114.609V24.344H118.209V26H112.713V17.6ZM122.898 17.6C125.502 17.6 127.314 19.316 127.314 21.8C127.314 24.272 125.478 26 122.826 26H119.334V17.6H122.898ZM122.946 24.404C124.35 24.404 125.382 23.348 125.382 21.812C125.382 20.264 124.302 19.196 122.862 19.196H121.23V24.404H122.946ZM128.557 17.6H130.453V26H128.557V17.6ZM138.127 17.6H139.927V26H138.199L134.131 20.6V26H132.319V17.6H134.047L138.127 23.024V17.6ZM147.416 24.008V21.764H149.06V25.028C148.172 25.676 146.816 26.132 145.652 26.132C143.108 26.132 141.176 24.26 141.176 21.788C141.176 19.328 143.144 17.468 145.76 17.468C147.008 17.468 148.28 17.948 149.132 18.716L148.064 20.072C147.44 19.484 146.576 19.124 145.76 19.124C144.272 19.124 143.12 20.288 143.12 21.788C143.12 23.312 144.284 24.476 145.772 24.476C146.276 24.476 146.876 24.296 147.416 24.008ZM156.249 19.94C155.361 19.4 154.305 19.076 153.633 19.076C152.997 19.076 152.565 19.316 152.565 19.784C152.565 21.368 157.041 20.492 157.029 23.552C157.029 25.208 155.601 26.108 153.741 26.108C152.361 26.108 150.981 25.58 150.033 24.764L150.789 23.216C151.653 23.996 152.877 24.488 153.765 24.488C154.545 24.488 155.013 24.188 155.013 23.648C155.013 22.028 150.537 22.976 150.537 19.952C150.537 18.416 151.845 17.444 153.789 17.444C154.965 17.444 156.141 17.816 156.981 18.368L156.249 19.94Z" fill="white"/>
<defs>
<linearGradient id="paint0_linear_61_21" x1="0" y1="21" x2="164" y2="21" gradientUnits="userSpaceOnUse">
<stop stop-color="#4F7DA0"/>
<stop offset="1" stop-color="#2A3D50"/>
</linearGradient>
</defs>
</svg>
