<svg width="123" height="42" viewBox="0 0 123 42" fill="none" xmlns="http://www.w3.org/2000/svg">
<rect width="123" height="42" rx="5" fill="#16202A"/>
<rect x="1" y="1" width="121" height="40" rx="4" stroke="url(#paint0_linear_65_46)" stroke-width="2"/>
<path d="M18.6403 15.6C20.7763 15.6 22.0003 16.656 22.0003 18.516C22.0003 20.472 20.7763 21.6 18.6403 21.6H16.9723V24H15.0763V15.6H18.6403ZM18.5443 20.016C19.6003 20.016 20.2003 19.536 20.2003 18.576C20.2003 17.64 19.6003 17.172 18.5443 17.172H16.9723V20.016H18.5443ZM24.9612 20.532C24.9612 21.744 25.7172 22.476 26.8332 22.476C27.9252 22.476 28.6452 21.756 28.6452 20.532V15.6H30.5412V20.532C30.5412 22.752 29.1132 24.132 26.8212 24.132C24.5172 24.132 23.0652 22.752 23.0652 20.532V15.6H24.9612V20.532ZM36.1083 15.6C37.9563 15.6 39.1083 16.404 39.1083 17.7C39.1083 18.6 38.5563 19.308 37.6563 19.548C38.7483 19.752 39.4083 20.568 39.4083 21.672C39.4083 23.112 38.1843 24 36.2403 24H32.2443V15.6H36.1083ZM36.0123 18.984C36.7323 18.984 37.1643 18.636 37.1643 18.048C37.1643 17.472 36.7323 17.136 36.0123 17.148H34.1403V18.984H36.0123ZM36.0123 22.452C36.9003 22.452 37.4523 22.08 37.4523 21.432C37.4523 20.82 36.9003 20.448 36.0123 20.46H34.1403V22.452H36.0123ZM40.7873 15.6H42.6833V22.344H46.2833V24H40.7873V15.6ZM47.4084 15.6H49.3044V24H47.4084V15.6ZM57.2541 18.228C56.6781 17.544 55.8501 17.124 55.0701 17.124C53.6301 17.124 52.5141 18.264 52.5141 19.752C52.5141 21.24 53.6301 22.404 55.0701 22.404C55.8261 22.404 56.6541 22.02 57.2541 21.408L58.3701 22.62C57.4821 23.544 56.1981 24.132 54.9741 24.132C52.4661 24.132 50.5701 22.248 50.5701 19.776C50.5701 17.328 52.5021 15.468 55.0461 15.468C56.2581 15.468 57.5301 16.008 58.3581 16.872L57.2541 18.228ZM66.6638 15.6C68.7998 15.6 70.0238 16.656 70.0238 18.516C70.0238 20.472 68.7998 21.6 66.6638 21.6H64.9958V24H63.0998V15.6H66.6638ZM66.5678 20.016C67.6238 20.016 68.2238 19.536 68.2238 18.576C68.2238 17.64 67.6238 17.172 66.5678 17.172H64.9958V20.016H66.5678ZM71.2326 15.6H73.1286V22.344H76.7286V24H71.2326V15.6ZM84.1046 24L83.4446 22.368H79.5566L78.8966 24H76.9406L80.5886 15.6H82.5446L86.1326 24H84.1046ZM80.1806 20.844H82.8326L81.5126 17.58L80.1806 20.844ZM92.8674 18.228C92.2914 17.544 91.4634 17.124 90.6834 17.124C89.2434 17.124 88.1274 18.264 88.1274 19.752C88.1274 21.24 89.2434 22.404 90.6834 22.404C91.4394 22.404 92.2674 22.02 92.8674 21.408L93.9834 22.62C93.0954 23.544 91.8114 24.132 90.5874 24.132C88.0794 24.132 86.1834 22.248 86.1834 19.776C86.1834 17.328 88.1154 15.468 90.6594 15.468C91.8714 15.468 93.1434 16.008 93.9714 16.872L92.8674 18.228ZM95.1154 15.6H101.511V17.172H97.0114V18.996H101.055V20.568H97.0114V22.428H101.643V24H95.1154V15.6ZM108.663 17.94C107.775 17.4 106.719 17.076 106.047 17.076C105.411 17.076 104.979 17.316 104.979 17.784C104.979 19.368 109.455 18.492 109.443 21.552C109.443 23.208 108.015 24.108 106.155 24.108C104.775 24.108 103.395 23.58 102.447 22.764L103.203 21.216C104.067 21.996 105.291 22.488 106.179 22.488C106.959 22.488 107.427 22.188 107.427 21.648C107.427 20.028 102.951 20.976 102.951 17.952C102.951 16.416 104.259 15.444 106.203 15.444C107.379 15.444 108.555 15.816 109.395 16.368L108.663 17.94Z" fill="white"/>
<defs>
<linearGradient id="paint0_linear_65_46" x1="0" y1="21" x2="123" y2="21" gradientUnits="userSpaceOnUse">
<stop stop-color="#4F7DA0"/>
<stop offset="1" stop-color="#2A3D50"/>
</linearGradient>
</defs>
</svg>
