<svg width="240" height="42" viewBox="0 0 240 42" fill="none" xmlns="http://www.w3.org/2000/svg">
<rect width="240" height="42" rx="5" fill="#16202A"/>
<rect x="1" y="1" width="238" height="40" rx="4" stroke="url(#paint0_linear_50_4)" stroke-width="2"/>
<path d="M14.3548 20.246C16.1048 20.82 16.4268 22.15 16.3848 23.186V26H14.1728V23.004V22.99C14.1728 22.178 13.7248 21.226 11.4428 21.226H8.61484V19.378H11.3868C12.8568 19.378 13.8228 19.196 13.8228 18.216C13.8228 17.502 13.0808 17.166 11.6248 17.152H8.25084V15.304H11.5408H11.5828H11.6248C14.7328 15.346 15.9928 16.144 15.9928 18.118C15.9928 19.252 15.1948 20.078 14.3548 20.246ZM28.7926 24.6L27.5886 26.084L25.8946 24.656C25.1526 25.608 23.9486 26.154 22.3946 26.154C19.7066 26.154 18.0126 24.544 18.0126 21.954V15.402H20.2246V21.954C20.2246 23.368 21.1206 24.222 22.4086 24.222C23.6826 24.222 24.5226 23.382 24.5226 21.954V15.402H26.7346V21.954C26.7346 22.248 26.7066 22.528 26.6646 22.794L28.7926 24.6ZM31.8456 21.954C31.8456 23.368 32.7416 24.222 34.0296 24.222C35.3036 24.222 36.1436 23.382 36.1436 21.954V15.402H38.3556V21.954C38.3556 24.544 36.6896 26.154 34.0156 26.154C31.3276 26.154 29.6336 24.544 29.6336 21.954V15.402H31.8456V21.954ZM51.1187 24.6L49.9147 26.084L48.2207 24.656C47.4787 25.608 46.2747 26.154 44.7207 26.154C42.0327 26.154 40.3387 24.544 40.3387 21.954V15.402H42.5507V21.954C42.5507 23.368 43.4467 24.222 44.7347 24.222C46.0087 24.222 46.8487 23.382 46.8487 21.954V15.402H49.0607V21.954C49.0607 22.248 49.0327 22.528 48.9907 22.794L51.1187 24.6ZM54.1718 19.448V26H51.9598V19.448C51.9598 16.858 53.6538 15.248 56.3418 15.248C59.0158 15.248 60.6818 16.858 60.6818 19.448V21.212H58.4698V19.448C58.4698 18.02 57.6298 17.18 56.3558 17.18C55.0678 17.18 54.1718 18.034 54.1718 19.448ZM73.4449 24.6L72.2409 26.084L70.5469 24.656C69.8049 25.608 68.6009 26.154 67.0469 26.154C64.3589 26.154 62.6649 24.544 62.6649 21.954V15.402H64.8769V21.954C64.8769 23.368 65.7729 24.222 67.0609 24.222C68.3349 24.222 69.1749 23.382 69.1749 21.954V15.402H71.3869V21.954C71.3869 22.248 71.3589 22.528 71.3169 22.794L73.4449 24.6ZM80.446 17.586H82.644V26.014H80.446V22.962C79.886 23.494 79.186 23.83 78.318 23.83C75.56 23.83 74.104 22.094 74.104 19.518V15.402H76.316V19.518C76.316 20.932 76.932 21.884 78.318 21.884C79.564 21.884 80.334 21.198 80.446 19.938V17.586ZM95.4156 24.6L94.2116 26.084L92.5176 24.656C91.7756 25.608 90.5716 26.154 89.0176 26.154C86.3296 26.154 84.6356 24.544 84.6356 21.954V15.402H86.8476V21.954C86.8476 23.368 87.7436 24.222 89.0316 24.222C90.3056 24.222 91.1456 23.382 91.1456 21.954V15.402H93.3576V21.954C93.3576 22.248 93.3296 22.528 93.2876 22.794L95.4156 24.6ZM102.417 17.586H104.615V26.014H102.417V22.962C101.857 23.494 101.157 23.83 100.289 23.83C97.5307 23.83 96.0747 22.094 96.0747 19.518V15.402H98.2867V19.518C98.2867 20.932 98.9027 21.884 100.289 21.884C101.535 21.884 102.305 21.198 102.417 19.938V17.586ZM117.386 24.6L116.182 26.084L114.488 24.656C113.746 25.608 112.542 26.154 110.988 26.154C108.3 26.154 106.606 24.544 106.606 21.954V15.402H108.818V21.954C108.818 23.368 109.714 24.222 111.002 24.222C112.276 24.222 113.116 23.382 113.116 21.954V15.402H115.328V21.954C115.328 22.248 115.3 22.528 115.258 22.794L117.386 24.6ZM125.955 19.714H128.167V21.954C128.167 24.544 126.501 26.154 123.841 26.154C121.139 26.154 119.445 24.544 119.445 21.954V17.25H117.121V15.402H121.657V21.954C121.657 23.368 122.553 24.222 123.841 24.222C125.115 24.222 125.955 23.382 125.955 21.954V19.714ZM133.777 22.206H136.003C136.031 23.564 137.039 24.292 138.537 24.306C140.077 24.334 141.085 23.858 141.085 22.878C141.113 20.456 134.169 22.276 134.211 18.034C134.225 16.382 135.821 15.192 138.551 15.248C140.581 15.276 142.807 16.228 142.821 18.356H140.595C140.637 17.726 139.937 17.11 138.551 17.096C137.277 17.068 136.409 17.446 136.409 18.118C136.381 20.246 143.409 18.58 143.297 23.074C143.241 25.16 141.197 26.182 138.509 26.154C136.115 26.126 133.693 24.978 133.777 22.206ZM155.64 24.6L154.436 26.084L152.742 24.656C152 25.608 150.796 26.154 149.242 26.154C146.554 26.154 144.86 24.544 144.86 21.954V15.402H147.072V21.954C147.072 23.368 147.968 24.222 149.256 24.222C150.53 24.222 151.37 23.382 151.37 21.954V15.402H153.582V21.954C153.582 22.248 153.554 22.528 153.512 22.794L155.64 24.6ZM158.693 19.448V26H156.481V19.448C156.481 16.858 158.175 15.248 160.863 15.248C163.537 15.248 165.203 16.858 165.203 19.448V21.212H162.991V19.448C162.991 18.02 162.151 17.18 160.877 17.18C159.589 17.18 158.693 18.034 158.693 19.448ZM177.966 24.6L176.762 26.084L175.068 24.656C174.326 25.608 173.122 26.154 171.568 26.154C168.88 26.154 167.186 24.544 167.186 21.954V15.402H169.398V21.954C169.398 23.368 170.294 24.222 171.582 24.222C172.856 24.222 173.696 23.382 173.696 21.954V15.402H175.908V21.954C175.908 22.248 175.88 22.528 175.838 22.794L177.966 24.6ZM190.007 16.76V18.594H188.229C188.831 19.378 189.181 20.344 189.181 21.436C189.181 24.11 187.221 26.154 184.295 26.154C181.355 26.154 179.381 24.124 179.381 21.436C179.381 20.344 179.731 19.364 180.333 18.594C178.961 18.538 178.233 17.838 178.233 16.396V15.402H180.445V15.99C180.445 16.48 180.711 16.76 181.187 16.76H190.007ZM184.309 24.222C185.933 24.222 186.997 23.004 186.997 21.436C186.997 19.882 185.793 18.692 184.309 18.692C182.811 18.692 181.565 19.882 181.565 21.436C181.565 23.004 182.685 24.222 184.309 24.222ZM200.793 22.976V24.824H193.961V26H191.749V24.824H190.797V22.976H191.749V19.028C191.749 16.536 193.471 15.234 196.145 15.234C198.623 15.234 200.471 16.48 200.471 18.552C200.471 20.624 198.721 21.884 196.565 21.884C195.529 21.884 194.647 21.646 193.961 21.156V22.976H200.793ZM196.089 16.97C194.829 16.984 193.961 17.614 193.961 18.552C193.961 19.504 194.885 20.148 196.089 20.148C197.335 20.148 198.189 19.504 198.189 18.552C198.189 17.614 197.335 16.97 196.089 16.97ZM210.147 19.714H212.359V21.954C212.359 24.544 210.693 26.154 208.033 26.154C205.331 26.154 203.637 24.544 203.637 21.954V17.25H201.313V15.402H205.849V21.954C205.849 23.368 206.745 24.222 208.033 24.222C209.307 24.222 210.147 23.382 210.147 21.954V19.714ZM223.277 19.49H216.375V21.954C216.375 23.368 217.271 24.222 218.559 24.222C219.833 24.222 220.673 23.382 220.673 21.954V21.226H222.885V21.954C222.885 24.544 221.219 26.154 218.545 26.154C215.857 26.154 214.163 24.544 214.163 21.954V15.402H216.375V17.642H223.277V19.49ZM227.244 19.448V26H225.032V19.448C225.032 16.858 226.726 15.248 229.414 15.248C232.088 15.248 233.754 16.858 233.754 19.448V21.212H231.542V19.448C231.542 18.02 230.702 17.18 229.428 17.18C228.14 17.18 227.244 18.034 227.244 19.448Z" fill="white"/>
<defs>
<linearGradient id="paint0_linear_50_4" x1="0" y1="21" x2="240" y2="21" gradientUnits="userSpaceOnUse">
<stop stop-color="#4F7DA0"/>
<stop offset="1" stop-color="#2A3D50"/>
</linearGradient>
</defs>
</svg>
