<svg width="190" height="44" viewBox="0 0 190 44" fill="none" xmlns="http://www.w3.org/2000/svg">
<g filter="url(#filter0_d_2_74)">
<path d="M0 0H165L181.5 17L165 34H0L16.5 17L0 0Z" fill="url(#paint0_linear_2_74)"/>
<path d="M42.774 20.6L41.57 22.084L39.876 20.656C39.134 21.608 37.93 22.154 36.376 22.154C33.688 22.154 31.994 20.544 31.994 17.954V11.402H34.206V17.954C34.206 19.368 35.102 20.222 36.39 20.222C37.664 20.222 38.504 19.382 38.504 17.954V11.402H40.716V17.954C40.716 18.248 40.688 18.528 40.646 18.794L42.774 20.6ZM50.0271 18.066H52.2391V18.234C52.2391 20.81 50.4331 22.154 47.7731 22.154C45.0711 22.154 43.1531 20.46 43.1531 17.982C43.1531 15.966 44.3571 14.65 46.0511 14.076L44.0771 13.208V11.178L52.1971 14.762V16.778L48.0391 14.944C46.2331 15.462 45.3791 16.596 45.3791 17.982C45.3791 19.27 46.4851 20.222 47.7731 20.222C49.1171 20.222 50.0271 19.606 50.0271 18.234V18.066ZM62.9156 13.614H65.1276V16.624C65.1276 19.214 63.8816 20.67 61.5016 20.67C59.0936 20.67 57.8196 19.214 57.8196 16.624V15.448H55.9716V22H53.7596V11.402H55.9716V13.614H60.0316V16.624C60.0316 17.884 60.3816 18.738 61.5016 18.738C62.5516 18.738 62.9156 18.052 62.9156 16.624V13.614ZM77.7193 20.6L76.5153 22.084L74.8213 20.656C74.0793 21.608 72.8753 22.154 71.3213 22.154C68.6333 22.154 66.9393 20.544 66.9393 17.954V11.402H69.1513V17.954C69.1513 19.368 70.0473 20.222 71.3353 20.222C72.6093 20.222 73.4493 19.382 73.4493 17.954V11.402H75.6613V17.954C75.6613 18.248 75.6333 18.528 75.5913 18.794L77.7193 20.6ZM78.1684 18.206H80.3944C80.4224 19.564 81.4304 20.292 82.9284 20.306C84.4684 20.334 85.4764 19.858 85.4764 18.878C85.5044 16.456 78.5604 18.276 78.6024 14.034C78.6164 12.382 80.2124 11.192 82.9424 11.248C84.9724 11.276 87.1984 12.228 87.2124 14.356H84.9864C85.0284 13.726 84.3284 13.11 82.9424 13.096C81.6684 13.068 80.8004 13.446 80.8004 14.118C80.7724 16.246 87.8004 14.58 87.6884 19.074C87.6324 21.16 85.5884 22.182 82.9004 22.154C80.5064 22.126 78.0844 20.978 78.1684 18.206ZM100.032 20.6L98.8278 22.084L97.1338 20.656C96.3918 21.608 95.1878 22.154 93.6338 22.154C90.9458 22.154 89.2518 20.544 89.2518 17.954V11.402H91.4638V17.954C91.4638 19.368 92.3598 20.222 93.6478 20.222C94.9218 20.222 95.7618 19.382 95.7618 17.954V11.402H97.9738V17.954C97.9738 18.248 97.9458 18.528 97.9038 18.794L100.032 20.6ZM108.601 15.714H110.813V17.954C110.813 20.544 109.147 22.154 106.487 22.154C103.785 22.154 102.091 20.544 102.091 17.954V13.25H99.7669V11.402H104.303V17.954C104.303 19.368 105.199 20.222 106.487 20.222C107.761 20.222 108.601 19.382 108.601 17.954V15.714ZM121.983 18.976V20.824H115.151V22H112.939V20.824H111.987V18.976H112.939V15.028C112.939 12.536 114.661 11.234 117.335 11.234C119.813 11.234 121.661 12.48 121.661 14.552C121.661 16.624 119.911 17.884 117.755 17.884C116.719 17.884 115.837 17.646 115.151 17.156V18.976H121.983ZM117.279 12.97C116.019 12.984 115.151 13.614 115.151 14.552C115.151 15.504 116.075 16.148 117.279 16.148C118.525 16.148 119.379 15.504 119.379 14.552C119.379 13.614 118.525 12.97 117.279 12.97ZM131.337 15.714H133.549V17.954C133.549 20.544 131.883 22.154 129.223 22.154C126.521 22.154 124.827 20.544 124.827 17.954V13.25H122.503V11.402H127.039V17.954C127.039 19.368 127.935 20.222 129.223 20.222C130.497 20.222 131.337 19.382 131.337 17.954V15.714ZM144.467 15.49H137.565V17.954C137.565 19.368 138.461 20.222 139.749 20.222C141.023 20.222 141.863 19.382 141.863 17.954V17.226H144.075V17.954C144.075 20.544 142.409 22.154 139.735 22.154C137.047 22.154 135.353 20.544 135.353 17.954V11.402H137.565V13.642H144.467V15.49ZM148.435 15.448V22H146.223V15.448C146.223 12.858 147.917 11.248 150.605 11.248C153.279 11.248 154.945 12.858 154.945 15.448V17.212H152.733V15.448C152.733 14.02 151.893 13.18 150.619 13.18C149.331 13.18 148.435 14.034 148.435 15.448Z" fill="#16202A"/>
</g>
<defs>
<filter id="filter0_d_2_74" x="0" y="0" width="189.5" height="44" filterUnits="userSpaceOnUse" color-interpolation-filters="sRGB">
<feFlood flood-opacity="0" result="BackgroundImageFix"/>
<feColorMatrix in="SourceAlpha" type="matrix" values="0 0 0 0 0 0 0 0 0 0 0 0 0 0 0 0 0 0 127 0" result="hardAlpha"/>
<feOffset dx="4" dy="6"/>
<feGaussianBlur stdDeviation="2"/>
<feComposite in2="hardAlpha" operator="out"/>
<feColorMatrix type="matrix" values="0 0 0 0 0 0 0 0 0 0 0 0 0 0 0 0 0 0 1 0"/>
<feBlend mode="normal" in2="BackgroundImageFix" result="effect1_dropShadow_2_74"/>
<feBlend mode="normal" in="SourceGraphic" in2="effect1_dropShadow_2_74" result="shape"/>
</filter>
<linearGradient id="paint0_linear_2_74" x1="0" y1="17" x2="181.5" y2="17" gradientUnits="userSpaceOnUse">
<stop stop-color="#D9EAF2"/>
<stop offset="1" stop-color="#7C929C"/>
</linearGradient>
</defs>
</svg>
