<svg width="167" height="44" viewBox="0 0 167 44" fill="none" xmlns="http://www.w3.org/2000/svg">
<g filter="url(#filter0_d_1_564)">
<path d="M0 0H144.545L159 17L144.545 34H0L14.4545 17L0 0Z" fill="url(#paint0_linear_1_564)"/>
<path d="M49.154 13.586H51.352V22.014H49.154V18.962C48.594 19.494 47.894 19.83 47.026 19.83C44.268 19.83 42.812 18.094 42.812 15.518V11.402H45.024V15.518C45.024 16.932 45.64 17.884 47.026 17.884C48.272 17.884 49.042 17.198 49.154 15.938V13.586ZM64.1236 20.6L62.9196 22.084L61.2256 20.656C60.4836 21.608 59.2796 22.154 57.7256 22.154C55.0376 22.154 53.3436 20.544 53.3436 17.954V11.402H55.5556V17.954C55.5556 19.368 56.4516 20.222 57.7396 20.222C59.0136 20.222 59.8536 19.382 59.8536 17.954V11.402H62.0656V17.954C62.0656 18.248 62.0376 18.528 61.9956 18.794L64.1236 20.6ZM64.5727 18.206H66.7987C66.8267 19.564 67.8347 20.292 69.3327 20.306C70.8727 20.334 71.8807 19.858 71.8807 18.878C71.9087 16.456 64.9647 18.276 65.0067 14.034C65.0207 12.382 66.6167 11.192 69.3467 11.248C71.3767 11.276 73.6027 12.228 73.6167 14.356H71.3907C71.4327 13.726 70.7327 13.11 69.3467 13.096C68.0727 13.068 67.2047 13.446 67.2047 14.118C67.1767 16.246 74.2047 14.58 74.0927 19.074C74.0367 21.16 71.9927 22.182 69.3047 22.154C66.9107 22.126 64.4887 20.978 64.5727 18.206ZM86.4361 20.6L85.2321 22.084L83.5381 20.656C82.7961 21.608 81.5921 22.154 80.0381 22.154C77.3501 22.154 75.6561 20.544 75.6561 17.954V11.402H77.8681V17.954C77.8681 19.368 78.7641 20.222 80.0521 20.222C81.3261 20.222 82.1661 19.382 82.1661 17.954V11.402H84.3781V17.954C84.3781 18.248 84.3501 18.528 84.3081 18.794L86.4361 20.6ZM92.9052 20.152C94.2212 20.152 95.3692 20.95 95.3692 22.518V23.162H93.1712V22.896C93.1712 22.35 92.8212 22 92.3032 22H87.3192V11.402H89.5312V20.152H92.9052ZM98.4033 15.448V22H96.1913V15.448C96.1913 12.858 97.8853 11.248 100.573 11.248C103.247 11.248 104.913 12.858 104.913 15.448V22H102.701V15.448C102.701 14.02 101.861 13.18 100.587 13.18C99.2993 13.18 98.4033 14.034 98.4033 15.448ZM117.48 17.73V19.578H115.324V22.042H113.112V19.578H110.9C107.89 19.564 106.392 17.618 106.392 15.378C106.392 12.886 108.282 11.248 110.928 11.248C113.756 11.22 115.324 12.732 115.324 14.748V17.73H117.48ZM113.112 17.73V14.762C113.112 13.964 112.44 13.166 110.956 13.166C109.556 13.18 108.562 13.964 108.562 15.406C108.604 16.946 109.486 17.688 111.04 17.73H113.112Z" fill="#16202A"/>
</g>
<defs>
<filter id="filter0_d_1_564" x="0" y="0" width="167" height="44" filterUnits="userSpaceOnUse" color-interpolation-filters="sRGB">
<feFlood flood-opacity="0" result="BackgroundImageFix"/>
<feColorMatrix in="SourceAlpha" type="matrix" values="0 0 0 0 0 0 0 0 0 0 0 0 0 0 0 0 0 0 127 0" result="hardAlpha"/>
<feOffset dx="4" dy="6"/>
<feGaussianBlur stdDeviation="2"/>
<feComposite in2="hardAlpha" operator="out"/>
<feColorMatrix type="matrix" values="0 0 0 0 0 0 0 0 0 0 0 0 0 0 0 0 0 0 1 0"/>
<feBlend mode="normal" in2="BackgroundImageFix" result="effect1_dropShadow_1_564"/>
<feBlend mode="normal" in="SourceGraphic" in2="effect1_dropShadow_1_564" result="shape"/>
</filter>
<linearGradient id="paint0_linear_1_564" x1="0" y1="17" x2="159" y2="17" gradientUnits="userSpaceOnUse">
<stop stop-color="#D9EAF2"/>
<stop offset="1" stop-color="#7C929C"/>
</linearGradient>
</defs>
</svg>
