<svg width="167" height="44" viewBox="0 0 167 44" fill="none" xmlns="http://www.w3.org/2000/svg">
<g filter="url(#filter0_d_1_490)">
<path d="M0 0H144.545L159 17L144.545 34H0L14.4545 17L0 0Z" fill="url(#paint0_linear_1_490)"/>
<path d="M42.774 20.6L41.57 22.084L39.876 20.656C39.134 21.608 37.93 22.154 36.376 22.154C33.688 22.154 31.994 20.544 31.994 17.954V11.402H34.206V17.954C34.206 19.368 35.102 20.222 36.39 20.222C37.664 20.222 38.504 19.382 38.504 17.954V11.402H40.716V17.954C40.716 18.248 40.688 18.528 40.646 18.794L42.774 20.6ZM49.0051 11.248C52.5051 11.248 54.5491 12.858 54.5491 15.448V22H52.3231V15.448C52.2531 14.23 51.3011 13.558 50.1391 13.292V18.64H47.9271V13.278C46.7371 13.502 45.7431 14.146 45.7431 15.448V17.156H43.5171V15.448C43.5171 12.858 45.5191 11.248 49.0051 11.248ZM58.7333 15.448V22H56.5213V15.448C56.5213 12.858 58.2153 11.248 60.9033 11.248C63.5773 11.248 65.2433 12.858 65.2433 15.448V17.212H63.0313V15.448C63.0313 14.02 62.1913 13.18 60.9173 13.18C59.6293 13.18 58.7333 14.034 58.7333 15.448ZM78.0064 20.6L76.8024 22.084L75.1084 20.656C74.3664 21.608 73.1624 22.154 71.6084 22.154C68.9204 22.154 67.2264 20.544 67.2264 17.954V11.402H69.4384V17.954C69.4384 19.368 70.3344 20.222 71.6224 20.222C72.8964 20.222 73.7364 19.382 73.7364 17.954V11.402H75.9484V17.954C75.9484 18.248 75.9204 18.528 75.8784 18.794L78.0064 20.6ZM86.5755 15.714H88.7875V17.954C88.7875 20.544 87.1215 22.154 84.4615 22.154C81.7595 22.154 80.0655 20.544 80.0655 17.954V13.25H77.7415V11.402H82.2775V17.954C82.2775 19.368 83.1735 20.222 84.4615 20.222C85.7355 20.222 86.5755 19.382 86.5755 17.954V15.714ZM99.9577 18.976V20.824H93.1257V22H90.9137V20.824H89.9617V18.976H90.9137V15.028C90.9137 12.536 92.6357 11.234 95.3097 11.234C97.7877 11.234 99.6357 12.48 99.6357 14.552C99.6357 16.624 97.8857 17.884 95.7297 17.884C94.6937 17.884 93.8117 17.646 93.1257 17.156V18.976H99.9577ZM95.2537 12.97C93.9937 12.984 93.1257 13.614 93.1257 14.552C93.1257 15.504 94.0497 16.148 95.2537 16.148C96.4997 16.148 97.3537 15.504 97.3537 14.552C97.3537 13.614 96.4997 12.97 95.2537 12.97ZM109.312 15.714H111.524V17.954C111.524 20.544 109.858 22.154 107.198 22.154C104.496 22.154 102.802 20.544 102.802 17.954V13.25H100.478V11.402H105.014V17.954C105.014 19.368 105.91 20.222 107.198 20.222C108.472 20.222 109.312 19.382 109.312 17.954V15.714ZM122.442 15.49H115.54V17.954C115.54 19.368 116.436 20.222 117.724 20.222C118.998 20.222 119.838 19.382 119.838 17.954V17.226H122.05V17.954C122.05 20.544 120.384 22.154 117.71 22.154C115.022 22.154 113.328 20.544 113.328 17.954V11.402H115.54V13.642H122.442V15.49ZM126.409 15.448V22H124.197V15.448C124.197 12.858 125.891 11.248 128.579 11.248C131.253 11.248 132.919 12.858 132.919 15.448V17.212H130.707V15.448C130.707 14.02 129.867 13.18 128.593 13.18C127.305 13.18 126.409 14.034 126.409 15.448Z" fill="#16202A"/>
</g>
<defs>
<filter id="filter0_d_1_490" x="0" y="0" width="167" height="44" filterUnits="userSpaceOnUse" color-interpolation-filters="sRGB">
<feFlood flood-opacity="0" result="BackgroundImageFix"/>
<feColorMatrix in="SourceAlpha" type="matrix" values="0 0 0 0 0 0 0 0 0 0 0 0 0 0 0 0 0 0 127 0" result="hardAlpha"/>
<feOffset dx="4" dy="6"/>
<feGaussianBlur stdDeviation="2"/>
<feComposite in2="hardAlpha" operator="out"/>
<feColorMatrix type="matrix" values="0 0 0 0 0 0 0 0 0 0 0 0 0 0 0 0 0 0 1 0"/>
<feBlend mode="normal" in2="BackgroundImageFix" result="effect1_dropShadow_1_490"/>
<feBlend mode="normal" in="SourceGraphic" in2="effect1_dropShadow_1_490" result="shape"/>
</filter>
<linearGradient id="paint0_linear_1_490" x1="0" y1="17" x2="159" y2="17" gradientUnits="userSpaceOnUse">
<stop stop-color="#D9EAF2"/>
<stop offset="1" stop-color="#7C929C"/>
</linearGradient>
</defs>
</svg>
