<svg width="122" height="42" viewBox="0 0 122 42" fill="none" xmlns="http://www.w3.org/2000/svg">
<rect x="1.18457" y="2" width="119.631" height="38" fill="#16202A"/>
<rect x="1" y="1" width="120" height="40" rx="4" stroke="url(#paint0_linear_3_1086)" stroke-width="2"/>
<path d="M28.1103 24.152C29.4263 24.152 30.5743 24.95 30.5743 26.518V27.162H28.3763V26.896C28.3763 26.35 28.0263 26 27.5083 26H22.5243V15.402H24.7363V24.152H28.1103ZM35.7783 17.362C38.5363 17.362 40.1183 19.098 40.1183 21.674V23.032H37.9063V21.674C37.9063 20.26 37.1643 19.294 35.7643 19.294C34.4343 19.294 33.6083 20.036 33.6083 21.45V26H31.3963V15.402H33.6083V18.104C34.1963 17.642 34.9103 17.362 35.7783 17.362ZM49.4137 19.896C50.9957 20.386 51.8497 21.548 51.8217 22.78C51.7517 24.936 49.5817 26.084 46.7817 26.098C44.2197 26.112 41.4897 24.838 41.5737 22.43H43.8137C43.8137 23.564 45.0877 24.25 46.7677 24.236C48.3637 24.222 49.5817 23.83 49.5817 22.64C49.5817 21.8 48.6857 20.988 46.6277 20.988H41.4617V19.154H43.3797C43.1137 18.958 42.6237 18.622 42.5817 17.768C42.6097 15.948 44.4577 15.234 46.6557 15.248C48.8677 15.262 50.7997 16.074 50.7997 17.992C50.7997 19.112 50.0577 19.714 49.4137 19.896ZM46.6837 19.028C47.8457 19.028 48.6157 18.706 48.6157 17.992C48.6157 17.376 47.9017 16.97 46.6837 16.97C45.5217 16.97 44.7237 17.32 44.7237 17.992C44.7237 18.706 45.5217 19.028 46.6837 19.028ZM62.4674 19.49H55.5654V21.954C55.5654 23.368 56.4614 24.222 57.7494 24.222C59.0234 24.222 59.8634 23.382 59.8634 21.954V21.226H62.0754V21.954C62.0754 24.544 60.4094 26.154 57.7354 26.154C55.0474 26.154 53.3534 24.544 53.3534 21.954V15.402H55.5654V17.642H62.4674V19.49ZM71.9505 19.714H74.1625V21.954C74.1625 24.544 72.4965 26.154 69.8365 26.154C67.1345 26.154 65.4405 24.544 65.4405 21.954V17.25H63.1165V15.402H67.6525V21.954C67.6525 23.368 68.5485 24.222 69.8365 24.222C71.1105 24.222 71.9505 23.382 71.9505 21.954V19.714ZM82.3507 23.144C84.2407 23.144 85.1507 23.942 85.1507 25.706V26H82.9247V25.79C82.9247 25.202 82.5327 24.81 81.9167 24.81H77.9827V26H75.7707V21.94H77.9827V23.074C80.6287 22.752 82.6027 20.946 82.6027 19.154C82.6027 17.852 81.5527 17.194 80.2927 17.166C78.9207 17.124 77.9827 17.894 77.9827 19.28V19.546H75.7707V19.168C75.7707 16.62 77.5487 15.22 80.2507 15.248C82.9247 15.262 84.8707 16.704 84.8707 19.126C84.8707 21.058 83.5127 22.598 81.8187 23.144H82.3507ZM90.7393 17.362C93.4973 17.362 95.0793 19.098 95.0793 21.674V23.032H92.8673V21.674C92.8673 20.26 92.1253 19.294 90.7253 19.294C89.3953 19.294 88.5693 20.036 88.5693 21.45V26H86.3573V15.402H88.5693V18.104C89.1573 17.642 89.8713 17.362 90.7393 17.362ZM107.665 24.6L106.461 26.084L104.767 24.656C104.025 25.608 102.821 26.154 101.267 26.154C98.5786 26.154 96.8846 24.544 96.8846 21.954V15.402H99.0966V21.954C99.0966 23.368 99.9926 24.222 101.281 24.222C102.555 24.222 103.395 23.382 103.395 21.954V15.402H105.607V21.954C105.607 22.248 105.579 22.528 105.537 22.794L107.665 24.6Z" fill="#D9EAF2"/>
<defs>
<linearGradient id="paint0_linear_3_1086" x1="0" y1="21" x2="122" y2="21" gradientUnits="userSpaceOnUse">
<stop stop-color="#4F7DA0"/>
<stop offset="1" stop-color="#2A3D50"/>
</linearGradient>
</defs>
</svg>
