<svg width="88" height="42" viewBox="0 0 88 42" fill="none" xmlns="http://www.w3.org/2000/svg">
<rect x="0.854492" y="2" width="86.2913" height="38" fill="#16202A"/>
<rect x="1" y="1" width="86" height="40" rx="4" stroke="url(#paint0_linear_61_16)" stroke-width="2"/>
<path d="M19.0021 17.6H20.8981V24.344H24.4981V26H19.0021V17.6ZM25.6232 17.6H27.5192V26H25.6232V17.6ZM35.4689 20.228C34.8929 19.544 34.0649 19.124 33.2849 19.124C31.8449 19.124 30.7289 20.264 30.7289 21.752C30.7289 23.24 31.8449 24.404 33.2849 24.404C34.0409 24.404 34.8689 24.02 35.4689 23.408L36.5849 24.62C35.6969 25.544 34.4129 26.132 33.1889 26.132C30.6809 26.132 28.7849 24.248 28.7849 21.776C28.7849 19.328 30.7169 17.468 33.2609 17.468C34.4729 17.468 35.7449 18.008 36.5729 18.872L35.4689 20.228ZM37.717 17.6H44.113V19.172H39.613V20.996H43.657V22.568H39.613V24.428H44.245V26H37.717V17.6ZM51.5406 17.6H53.3406V26H51.6126L47.5446 20.6V26H45.7326V17.6H47.4606L51.5406 23.024V17.6ZM60.7216 19.94C59.8336 19.4 58.7776 19.076 58.1056 19.076C57.4696 19.076 57.0376 19.316 57.0376 19.784C57.0376 21.368 61.5136 20.492 61.5016 23.552C61.5016 25.208 60.0736 26.108 58.2136 26.108C56.8336 26.108 55.4536 25.58 54.5056 24.764L55.2616 23.216C56.1256 23.996 57.3496 24.488 58.2376 24.488C59.0176 24.488 59.4856 24.188 59.4856 23.648C59.4856 22.028 55.0096 22.976 55.0096 19.952C55.0096 18.416 56.3176 17.444 58.2616 17.444C59.4376 17.444 60.6136 17.816 61.4536 18.368L60.7216 19.94ZM62.8303 17.6H69.2263V19.172H64.7263V20.996H68.7703V22.568H64.7263V24.428H69.3583V26H62.8303V17.6Z" fill="white"/>
<defs>
<linearGradient id="paint0_linear_61_16" x1="0" y1="21" x2="88" y2="21" gradientUnits="userSpaceOnUse">
<stop stop-color="#4F7DA0"/>
<stop offset="1" stop-color="#2A3D50"/>
</linearGradient>
</defs>
</svg>
