<svg width="14" height="16" viewBox="0 0 14 16" fill="none" xmlns="http://www.w3.org/2000/svg">
<path d="M7.36807 0C5.64479 0.00196598 3.99267 0.66484 2.77413 1.84321C1.55558 3.02159 0.870112 4.61924 0.868079 6.28571C0.866015 7.64756 1.32602 8.97245 2.17753 10.0571C2.17753 10.0571 2.35481 10.2829 2.38376 10.3154L7.36807 16L12.3547 10.3126C12.3807 10.2823 12.5586 10.0571 12.5586 10.0571L12.5592 10.0554C13.4103 8.97121 13.8701 7.64693 13.8681 6.28571C13.866 4.61924 13.1806 3.02159 11.962 1.84321C10.7435 0.66484 9.09135 0.00196598 7.36807 0ZM7.36807 8.57143C6.90059 8.57143 6.44361 8.43737 6.05491 8.18622C5.66621 7.93506 5.36326 7.57808 5.18436 7.16042C5.00546 6.74276 4.95865 6.28318 5.04986 5.83979C5.14106 5.39641 5.36617 4.98913 5.69673 4.66947C6.02729 4.34981 6.44845 4.13211 6.90695 4.04392C7.36545 3.95572 7.8407 4.00099 8.2726 4.17399C8.70449 4.34699 9.07364 4.63996 9.33336 5.01584C9.59308 5.39172 9.73171 5.83364 9.73171 6.28571C9.73092 6.89169 9.48165 7.47263 9.03855 7.90112C8.59545 8.32961 7.99471 8.57067 7.36807 8.57143Z" fill="url(#paint0_linear_7_184)"/>
<defs>
<linearGradient id="paint0_linear_7_184" x1="7.36807" y1="0" x2="7.36807" y2="16" gradientUnits="userSpaceOnUse">
<stop stop-color="#2E4A5E"/>
<stop offset="1" stop-color="#609AC4"/>
</linearGradient>
</defs>
</svg>
