<svg width="133" height="42" viewBox="0 0 133 42" fill="none" xmlns="http://www.w3.org/2000/svg">
<rect width="116" height="42" rx="5" fill="#16202A"/>
<rect x="1" y="1" width="114" height="40" rx="4" stroke="url(#paint0_linear_61_6)" stroke-width="2"/>
<path d="M16.048 20.548L13.168 16.432H15.04L17.812 20.584V16.432H19.504V20.584L22.276 16.432H24.148L21.268 20.548L24.316 25H22.372L19.504 20.656V25H17.812V20.656L14.944 25H13L16.048 20.548ZM25.4003 16.432H27.0323V20.572C27.0323 20.772 27.0283 20.996 27.0203 21.244C27.0123 21.492 27.0043 21.736 26.9963 21.976C26.9883 22.208 26.9803 22.412 26.9723 22.588C26.9643 22.756 26.9563 22.872 26.9483 22.936H26.9843L30.9443 16.432H33.1163V25H31.4963V20.884C31.4963 20.668 31.5003 20.432 31.5083 20.176C31.5163 19.912 31.5243 19.66 31.5323 19.42C31.5483 19.18 31.5603 18.972 31.5683 18.796C31.5843 18.612 31.5963 18.492 31.6043 18.436H31.5563L27.5843 25H25.4003V16.432ZM42.0592 25H40.2472V17.944H38.1472C38.0992 18.312 38.0472 18.712 37.9912 19.144C37.9432 19.576 37.8872 20.016 37.8232 20.464C37.7672 20.904 37.7072 21.324 37.6432 21.724C37.5792 22.116 37.5152 22.464 37.4512 22.768C37.3472 23.264 37.2072 23.688 37.0312 24.04C36.8632 24.392 36.6272 24.66 36.3232 24.844C36.0272 25.028 35.6392 25.12 35.1592 25.12C34.9992 25.12 34.8472 25.108 34.7032 25.084C34.5592 25.06 34.4232 25.028 34.2952 24.988V23.5C34.3992 23.532 34.4992 23.56 34.5952 23.584C34.6992 23.608 34.8112 23.62 34.9312 23.62C35.0912 23.62 35.2232 23.568 35.3272 23.464C35.4312 23.36 35.5232 23.184 35.6032 22.936C35.6832 22.68 35.7632 22.328 35.8432 21.88C35.8832 21.688 35.9312 21.416 35.9872 21.064C36.0432 20.704 36.1072 20.284 36.1792 19.804C36.2592 19.316 36.3392 18.788 36.4192 18.22C36.4992 17.644 36.5752 17.048 36.6472 16.432H42.0592V25ZM44.2206 25V16.432H46.0326V19.72H46.6206C47.4126 19.72 48.0646 19.832 48.5766 20.056C49.0886 20.28 49.4646 20.588 49.7046 20.98C49.9526 21.372 50.0766 21.82 50.0766 22.324C50.0766 22.884 49.9526 23.364 49.7046 23.764C49.4566 24.164 49.0726 24.472 48.5526 24.688C48.0406 24.896 47.3766 25 46.5606 25H44.2206ZM46.5126 23.512C47.0486 23.512 47.4686 23.424 47.7726 23.248C48.0846 23.072 48.2406 22.764 48.2406 22.324C48.2406 22.02 48.1686 21.788 48.0246 21.628C47.8886 21.468 47.6846 21.36 47.4126 21.304C47.1406 21.24 46.8126 21.208 46.4286 21.208H46.0326V23.512H46.5126ZM51.1206 25V16.432H52.9326V25H51.1206ZM60.0276 25H55.0956V16.432H60.0276V17.92H56.9076V19.804H59.8116V21.292H56.9076V23.5H60.0276V25ZM72.1161 16.432V23.488H73.2561V27.496H71.5041V25H66.1401V27.496H64.3881V23.488H65.0481C65.2721 23.04 65.4881 22.568 65.6961 22.072C65.9041 21.576 66.0961 21.044 66.2721 20.476C66.4561 19.908 66.6201 19.292 66.7641 18.628C66.9081 17.956 67.0281 17.224 67.1241 16.432H72.1161ZM68.5641 17.944C68.5081 18.36 68.4281 18.804 68.3241 19.276C68.2201 19.74 68.0961 20.216 67.9521 20.704C67.8161 21.192 67.6641 21.672 67.4961 22.144C67.3281 22.616 67.1481 23.064 66.9561 23.488H70.3041V17.944H68.5641ZM82.3482 20.704C82.3482 21.368 82.2642 21.972 82.0962 22.516C81.9362 23.052 81.6882 23.516 81.3522 23.908C81.0242 24.3 80.6002 24.6 80.0802 24.808C79.5682 25.016 78.9642 25.12 78.2682 25.12C77.5722 25.12 76.9642 25.016 76.4442 24.808C75.9322 24.592 75.5082 24.292 75.1722 23.908C74.8442 23.516 74.5962 23.048 74.4282 22.504C74.2682 21.96 74.1882 21.356 74.1882 20.692C74.1882 19.804 74.3322 19.032 74.6202 18.376C74.9162 17.72 75.3642 17.212 75.9642 16.852C76.5722 16.484 77.3442 16.3 78.2802 16.3C79.2082 16.3 79.9722 16.484 80.5722 16.852C81.1722 17.212 81.6162 17.724 81.9042 18.388C82.2002 19.044 82.3482 19.816 82.3482 20.704ZM76.0962 20.704C76.0962 21.304 76.1722 21.82 76.3242 22.252C76.4762 22.684 76.7122 23.016 77.0322 23.248C77.3522 23.48 77.7642 23.596 78.2682 23.596C78.7882 23.596 79.2042 23.48 79.5162 23.248C79.8362 23.016 80.0682 22.684 80.2122 22.252C80.3642 21.82 80.4402 21.304 80.4402 20.704C80.4402 19.8 80.2722 19.092 79.9362 18.58C79.6002 18.068 79.0482 17.812 78.2802 17.812C77.7682 17.812 77.3522 17.928 77.0322 18.16C76.7122 18.392 76.4762 18.724 76.3242 19.156C76.1722 19.588 76.0962 20.104 76.0962 20.704ZM87.747 25L85.683 18.28H85.635C85.643 18.44 85.655 18.68 85.671 19C85.687 19.32 85.703 19.664 85.719 20.032C85.735 20.392 85.743 20.72 85.743 21.016V25H84.123V16.432H86.595L88.623 22.984H88.659L90.807 16.432H93.279V25H91.587V20.944C91.587 20.672 91.591 20.36 91.599 20.008C91.615 19.656 91.627 19.324 91.635 19.012C91.651 18.692 91.663 18.452 91.671 18.292H91.623L89.415 25H87.747ZM100.687 25L100.063 22.96H96.9433L96.3193 25H94.3633L97.3873 16.396H99.6073L102.643 25H100.687ZM99.0073 19.444C98.9673 19.308 98.9153 19.136 98.8513 18.928C98.7873 18.72 98.7233 18.508 98.6593 18.292C98.5953 18.076 98.5433 17.888 98.5033 17.728C98.4633 17.888 98.4073 18.088 98.3353 18.328C98.2713 18.56 98.2073 18.784 98.1433 19C98.0873 19.208 98.0433 19.356 98.0113 19.444L97.3993 21.436H99.6313L99.0073 19.444Z" fill="white"/>
<defs>
<linearGradient id="paint0_linear_61_6" x1="0" y1="21" x2="116" y2="21" gradientUnits="userSpaceOnUse">
<stop stop-color="#4F7DA0"/>
<stop offset="1" stop-color="#2A3D50"/>
</linearGradient>
</defs>
</svg>
