<svg width="228" height="42" viewBox="0 0 228 42" fill="none" xmlns="http://www.w3.org/2000/svg">
<rect x="27" width="174" height="42" rx="5" fill="#16202A"/>
<rect x="28" y="1" width="172" height="40" rx="4" stroke="url(#paint0_linear_65_45)" stroke-width="2"/>
<path d="M49.7251 20.704C49.7251 21.368 49.6411 21.972 49.4731 22.516C49.3131 23.052 49.0651 23.516 48.7291 23.908C48.4011 24.3 47.9771 24.6 47.4571 24.808C46.9451 25.016 46.3411 25.12 45.6451 25.12C44.9491 25.12 44.3411 25.016 43.8211 24.808C43.3091 24.592 42.8851 24.292 42.5491 23.908C42.2211 23.516 41.9731 23.048 41.8051 22.504C41.6451 21.96 41.5651 21.356 41.5651 20.692C41.5651 19.804 41.7091 19.032 41.9971 18.376C42.2931 17.72 42.7411 17.212 43.3411 16.852C43.9491 16.484 44.7211 16.3 45.6571 16.3C46.5851 16.3 47.3491 16.484 47.9491 16.852C48.5491 17.212 48.9931 17.724 49.2811 18.388C49.5771 19.044 49.7251 19.816 49.7251 20.704ZM43.4731 20.704C43.4731 21.304 43.5491 21.82 43.7011 22.252C43.8531 22.684 44.0891 23.016 44.4091 23.248C44.7291 23.48 45.1411 23.596 45.6451 23.596C46.1651 23.596 46.5811 23.48 46.8931 23.248C47.2131 23.016 47.4451 22.684 47.5891 22.252C47.7411 21.82 47.8171 21.304 47.8171 20.704C47.8171 19.8 47.6491 19.092 47.3131 18.58C46.9771 18.068 46.4251 17.812 45.6571 17.812C45.1451 17.812 44.7291 17.928 44.4091 18.16C44.0891 18.392 43.8531 18.724 43.7011 19.156C43.5491 19.588 43.4731 20.104 43.4731 20.704ZM51.4999 25V16.432H56.9119V17.932H53.3119V19.72H54.0319C54.8399 19.72 55.4999 19.832 56.0119 20.056C56.5319 20.28 56.9159 20.588 57.1639 20.98C57.4119 21.372 57.5359 21.82 57.5359 22.324C57.5359 22.884 57.4119 23.364 57.1639 23.764C56.9159 24.164 56.5319 24.472 56.0119 24.688C55.4919 24.896 54.8199 25 53.9959 25H51.4999ZM53.9239 23.512C54.4759 23.512 54.9079 23.424 55.2199 23.248C55.5399 23.072 55.6999 22.764 55.6999 22.324C55.6999 22.02 55.6199 21.788 55.4599 21.628C55.3079 21.468 55.0879 21.36 54.7999 21.304C54.5199 21.24 54.1799 21.208 53.7799 21.208H53.3119V23.512H53.9239ZM71.2003 23.56V27.496H69.4483V25H59.1523V16.432H60.9643V23.488H63.6283V16.432H65.4523V23.488H68.1163V16.432H69.9283V23.56H71.2003ZM77.4554 25H72.5234V16.432H77.4554V17.92H74.3354V19.804H77.2394V21.292H74.3354V23.5H77.4554V25ZM82.8742 17.824C82.5302 17.824 82.2222 17.892 81.9502 18.028C81.6862 18.164 81.4622 18.36 81.2782 18.616C81.0942 18.864 80.9542 19.168 80.8582 19.528C80.7702 19.888 80.7262 20.292 80.7262 20.74C80.7262 21.348 80.7982 21.868 80.9422 22.3C81.0942 22.724 81.3302 23.048 81.6502 23.272C81.9702 23.496 82.3782 23.608 82.8742 23.608C83.2262 23.608 83.5742 23.568 83.9182 23.488C84.2702 23.408 84.6502 23.296 85.0582 23.152V24.676C84.6822 24.828 84.3102 24.94 83.9422 25.012C83.5742 25.084 83.1622 25.12 82.7062 25.12C81.8262 25.12 81.0982 24.94 80.5222 24.58C79.9542 24.212 79.5342 23.7 79.2622 23.044C78.9902 22.38 78.8542 21.608 78.8542 20.728C78.8542 20.08 78.9422 19.488 79.1182 18.952C79.2942 18.408 79.5502 17.94 79.8862 17.548C80.2302 17.156 80.6502 16.852 81.1462 16.636C81.6502 16.42 82.2262 16.312 82.8742 16.312C83.2982 16.312 83.7222 16.368 84.1462 16.48C84.5782 16.584 84.9902 16.728 85.3822 16.912L84.7942 18.388C84.4742 18.236 84.1502 18.104 83.8222 17.992C83.5022 17.88 83.1862 17.824 82.8742 17.824ZM90.1788 25H88.3668V17.944H86.0388V16.432H92.5068V17.944H90.1788V25ZM96.492 16.432C97.252 16.432 97.888 16.504 98.4 16.648C98.92 16.784 99.308 17.012 99.564 17.332C99.828 17.644 99.96 18.068 99.96 18.604C99.96 18.924 99.908 19.216 99.804 19.48C99.7 19.744 99.548 19.96 99.348 20.128C99.156 20.296 98.92 20.404 98.64 20.452V20.512C98.928 20.568 99.188 20.668 99.42 20.812C99.652 20.956 99.836 21.164 99.972 21.436C100.108 21.708 100.176 22.068 100.176 22.516C100.176 23.036 100.048 23.484 99.792 23.86C99.544 24.228 99.184 24.512 98.712 24.712C98.24 24.904 97.68 25 97.032 25H93.828V16.432H96.492ZM96.696 19.828C97.224 19.828 97.588 19.744 97.788 19.576C97.996 19.408 98.1 19.164 98.1 18.844C98.1 18.516 97.98 18.28 97.74 18.136C97.5 17.992 97.12 17.92 96.6 17.92H95.64V19.828H96.696ZM95.64 21.268V23.5H96.828C97.372 23.5 97.752 23.396 97.968 23.188C98.184 22.972 98.292 22.688 98.292 22.336C98.292 22.12 98.244 21.932 98.148 21.772C98.06 21.612 97.904 21.488 97.68 21.4C97.456 21.312 97.152 21.268 96.768 21.268H95.64ZM106.823 25H101.891V16.432H106.823V17.92H103.703V19.804H106.607V21.292H103.703V23.5H106.823V25ZM115.625 25H113.813V21.304H110.417V25H108.605V16.432H110.417V19.792H113.813V16.432H115.625V25ZM124.801 25H122.989V21.304H119.593V25H117.781V16.432H119.593V19.792H122.989V16.432H124.801V25ZM126.957 25V16.432H128.769V19.72H129.357C130.149 19.72 130.801 19.832 131.313 20.056C131.825 20.28 132.201 20.588 132.441 20.98C132.689 21.372 132.813 21.82 132.813 22.324C132.813 22.884 132.689 23.364 132.441 23.764C132.193 24.164 131.809 24.472 131.289 24.688C130.777 24.896 130.113 25 129.297 25H126.957ZM129.249 23.512C129.785 23.512 130.205 23.424 130.509 23.248C130.821 23.072 130.977 22.764 130.977 22.324C130.977 22.02 130.905 21.788 130.761 21.628C130.625 21.468 130.421 21.36 130.149 21.304C129.877 21.24 129.549 21.208 129.165 21.208H128.769V23.512H129.249ZM133.857 25V16.432H135.669V25H133.857ZM142.764 25H137.832V16.432H142.764V17.92H139.644V19.804H142.548V21.292H139.644V23.5H142.764V25ZM151.768 25L149.704 18.28H149.656C149.664 18.44 149.676 18.68 149.692 19C149.708 19.32 149.724 19.664 149.74 20.032C149.756 20.392 149.764 20.72 149.764 21.016V25H148.144V16.432H150.616L152.644 22.984H152.68L154.828 16.432H157.3V25H155.608V20.944C155.608 20.672 155.612 20.36 155.62 20.008C155.636 19.656 155.648 19.324 155.656 19.012C155.672 18.692 155.684 18.452 155.692 18.292H155.644L153.436 25H151.768ZM164.397 25H159.465V16.432H164.397V17.92H161.277V19.804H164.181V21.292H161.277V23.5H164.397V25ZM169.816 17.824C169.472 17.824 169.164 17.892 168.892 18.028C168.628 18.164 168.404 18.36 168.22 18.616C168.036 18.864 167.896 19.168 167.8 19.528C167.712 19.888 167.668 20.292 167.668 20.74C167.668 21.348 167.74 21.868 167.884 22.3C168.036 22.724 168.272 23.048 168.592 23.272C168.912 23.496 169.32 23.608 169.816 23.608C170.168 23.608 170.516 23.568 170.86 23.488C171.212 23.408 171.592 23.296 172 23.152V24.676C171.624 24.828 171.252 24.94 170.884 25.012C170.516 25.084 170.104 25.12 169.648 25.12C168.768 25.12 168.04 24.94 167.464 24.58C166.896 24.212 166.476 23.7 166.204 23.044C165.932 22.38 165.796 21.608 165.796 20.728C165.796 20.08 165.884 19.488 166.06 18.952C166.236 18.408 166.492 17.94 166.828 17.548C167.172 17.156 167.592 16.852 168.088 16.636C168.592 16.42 169.168 16.312 169.816 16.312C170.24 16.312 170.664 16.368 171.088 16.48C171.52 16.584 171.932 16.728 172.324 16.912L171.736 18.388C171.416 18.236 171.092 18.104 170.764 17.992C170.444 17.88 170.128 17.824 169.816 17.824ZM177.12 25H175.308V17.944H172.98V16.432H179.448V17.944H177.12V25ZM185.17 25L184.546 22.96H181.426L180.802 25H178.846L181.87 16.396H184.09L187.126 25H185.17ZM183.49 19.444C183.45 19.308 183.398 19.136 183.334 18.928C183.27 18.72 183.206 18.508 183.142 18.292C183.078 18.076 183.026 17.888 182.986 17.728C182.946 17.888 182.89 18.088 182.818 18.328C182.754 18.56 182.69 18.784 182.626 19C182.57 19.208 182.526 19.356 182.494 19.444L181.882 21.436H184.114L183.49 19.444Z" fill="white"/>
<defs>
<linearGradient id="paint0_linear_65_45" x1="27" y1="21" x2="201" y2="21" gradientUnits="userSpaceOnUse">
<stop stop-color="#4F7DA0"/>
<stop offset="1" stop-color="#2A3D50"/>
</linearGradient>
</defs>
</svg>
