<svg width="156" height="42" viewBox="0 0 156 42" fill="none" xmlns="http://www.w3.org/2000/svg">
<rect width="156" height="42" rx="5" fill="#16202A"/>
<rect x="1" y="1" width="154" height="40" rx="4" stroke="url(#paint0_linear_68_5)" stroke-width="2"/>
<path d="M13.7251 20.704C13.7251 21.368 13.6411 21.972 13.4731 22.516C13.3131 23.052 13.0651 23.516 12.7291 23.908C12.4011 24.3 11.9771 24.6 11.4571 24.808C10.9451 25.016 10.3411 25.12 9.64514 25.12C8.94914 25.12 8.34114 25.016 7.82114 24.808C7.30914 24.592 6.88514 24.292 6.54914 23.908C6.22114 23.516 5.97314 23.048 5.80514 22.504C5.64514 21.96 5.56514 21.356 5.56514 20.692C5.56514 19.804 5.70914 19.032 5.99714 18.376C6.29314 17.72 6.74114 17.212 7.34114 16.852C7.94914 16.484 8.72114 16.3 9.65714 16.3C10.5851 16.3 11.3491 16.484 11.9491 16.852C12.5491 17.212 12.9931 17.724 13.2811 18.388C13.5771 19.044 13.7251 19.816 13.7251 20.704ZM7.47314 20.704C7.47314 21.304 7.54914 21.82 7.70114 22.252C7.85314 22.684 8.08914 23.016 8.40914 23.248C8.72914 23.48 9.14114 23.596 9.64514 23.596C10.1651 23.596 10.5811 23.48 10.8931 23.248C11.2131 23.016 11.4451 22.684 11.5891 22.252C11.7411 21.82 11.8171 21.304 11.8171 20.704C11.8171 19.8 11.6491 19.092 11.3131 18.58C10.9771 18.068 10.4251 17.812 9.65714 17.812C9.14514 17.812 8.72914 17.928 8.40914 18.16C8.08914 18.392 7.85314 18.724 7.70114 19.156C7.54914 19.588 7.47314 20.104 7.47314 20.704ZM15.4999 25V16.432H20.9119V17.932H17.3119V19.72H18.0319C18.8399 19.72 19.4999 19.832 20.0119 20.056C20.5319 20.28 20.9159 20.588 21.1639 20.98C21.4119 21.372 21.5359 21.82 21.5359 22.324C21.5359 22.884 21.4119 23.364 21.1639 23.764C20.9159 24.164 20.5319 24.472 20.0119 24.688C19.4919 24.896 18.8199 25 17.9959 25H15.4999ZM17.9239 23.512C18.4759 23.512 18.9079 23.424 19.2199 23.248C19.5399 23.072 19.6999 22.764 19.6999 22.324C19.6999 22.02 19.6199 21.788 19.4599 21.628C19.3079 21.468 19.0879 21.36 18.7999 21.304C18.5199 21.24 18.1799 21.208 17.7799 21.208H17.3119V23.512H17.9239ZM35.2003 23.56V27.496H33.4483V25H23.1523V16.432H24.9643V23.488H27.6283V16.432H29.4523V23.488H32.1163V16.432H33.9283V23.56H35.2003ZM41.4554 25H36.5234V16.432H41.4554V17.92H38.3354V19.804H41.2394V21.292H38.3354V23.5H41.4554V25ZM46.8742 17.824C46.5302 17.824 46.2222 17.892 45.9502 18.028C45.6862 18.164 45.4622 18.36 45.2782 18.616C45.0942 18.864 44.9542 19.168 44.8582 19.528C44.7702 19.888 44.7262 20.292 44.7262 20.74C44.7262 21.348 44.7982 21.868 44.9422 22.3C45.0942 22.724 45.3302 23.048 45.6502 23.272C45.9702 23.496 46.3782 23.608 46.8742 23.608C47.2262 23.608 47.5742 23.568 47.9182 23.488C48.2702 23.408 48.6502 23.296 49.0582 23.152V24.676C48.6822 24.828 48.3102 24.94 47.9422 25.012C47.5742 25.084 47.1622 25.12 46.7062 25.12C45.8262 25.12 45.0982 24.94 44.5222 24.58C43.9542 24.212 43.5342 23.7 43.2622 23.044C42.9902 22.38 42.8542 21.608 42.8542 20.728C42.8542 20.08 42.9422 19.488 43.1182 18.952C43.2942 18.408 43.5502 17.94 43.8862 17.548C44.2302 17.156 44.6502 16.852 45.1462 16.636C45.6502 16.42 46.2262 16.312 46.8742 16.312C47.2982 16.312 47.7222 16.368 48.1462 16.48C48.5782 16.584 48.9902 16.728 49.3822 16.912L48.7942 18.388C48.4742 18.236 48.1502 18.104 47.8222 17.992C47.5022 17.88 47.1862 17.824 46.8742 17.824ZM54.1788 25H52.3668V17.944H50.0388V16.432H56.5068V17.944H54.1788V25ZM60.492 16.432C61.252 16.432 61.888 16.504 62.4 16.648C62.92 16.784 63.308 17.012 63.564 17.332C63.828 17.644 63.96 18.068 63.96 18.604C63.96 18.924 63.908 19.216 63.804 19.48C63.7 19.744 63.548 19.96 63.348 20.128C63.156 20.296 62.92 20.404 62.64 20.452V20.512C62.928 20.568 63.188 20.668 63.42 20.812C63.652 20.956 63.836 21.164 63.972 21.436C64.108 21.708 64.176 22.068 64.176 22.516C64.176 23.036 64.048 23.484 63.792 23.86C63.544 24.228 63.184 24.512 62.712 24.712C62.24 24.904 61.68 25 61.032 25H57.828V16.432H60.492ZM60.696 19.828C61.224 19.828 61.588 19.744 61.788 19.576C61.996 19.408 62.1 19.164 62.1 18.844C62.1 18.516 61.98 18.28 61.74 18.136C61.5 17.992 61.12 17.92 60.6 17.92H59.64V19.828H60.696ZM59.64 21.268V23.5H60.828C61.372 23.5 61.752 23.396 61.968 23.188C62.184 22.972 62.292 22.688 62.292 22.336C62.292 22.12 62.244 21.932 62.148 21.772C62.06 21.612 61.904 21.488 61.68 21.4C61.456 21.312 61.152 21.268 60.768 21.268H59.64ZM70.8225 25H65.8905V16.432H70.8225V17.92H67.7025V19.804H70.6065V21.292H67.7025V23.5H70.8225V25ZM79.6254 25H77.8134V21.304H74.4174V25H72.6054V16.432H74.4174V19.792H77.8134V16.432H79.6254V25ZM88.8012 25H86.9892V21.304H83.5932V25H81.7812V16.432H83.5932V19.792H86.9892V16.432H88.8012V25ZM90.957 25V16.432H92.769V19.72H93.357C94.149 19.72 94.801 19.832 95.313 20.056C95.825 20.28 96.201 20.588 96.441 20.98C96.689 21.372 96.813 21.82 96.813 22.324C96.813 22.884 96.689 23.364 96.441 23.764C96.193 24.164 95.809 24.472 95.289 24.688C94.777 24.896 94.113 25 93.297 25H90.957ZM93.249 23.512C93.785 23.512 94.205 23.424 94.509 23.248C94.821 23.072 94.977 22.764 94.977 22.324C94.977 22.02 94.905 21.788 94.761 21.628C94.625 21.468 94.421 21.36 94.149 21.304C93.877 21.24 93.549 21.208 93.165 21.208H92.769V23.512H93.249ZM97.857 25V16.432H99.669V25H97.857ZM106.764 25H101.832V16.432H106.764V17.92H103.644V19.804H106.548V21.292H103.644V23.5H106.764V25ZM115.768 25L113.704 18.28H113.656C113.664 18.44 113.676 18.68 113.692 19C113.708 19.32 113.724 19.664 113.74 20.032C113.756 20.392 113.764 20.72 113.764 21.016V25H112.144V16.432H114.616L116.644 22.984H116.68L118.828 16.432H121.3V25H119.608V20.944C119.608 20.672 119.612 20.36 119.62 20.008C119.636 19.656 119.648 19.324 119.656 19.012C119.672 18.692 119.684 18.452 119.692 18.292H119.644L117.436 25H115.768ZM128.397 25H123.465V16.432H128.397V17.92H125.277V19.804H128.181V21.292H125.277V23.5H128.397V25ZM133.816 17.824C133.472 17.824 133.164 17.892 132.892 18.028C132.628 18.164 132.404 18.36 132.22 18.616C132.036 18.864 131.896 19.168 131.8 19.528C131.712 19.888 131.668 20.292 131.668 20.74C131.668 21.348 131.74 21.868 131.884 22.3C132.036 22.724 132.272 23.048 132.592 23.272C132.912 23.496 133.32 23.608 133.816 23.608C134.168 23.608 134.516 23.568 134.86 23.488C135.212 23.408 135.592 23.296 136 23.152V24.676C135.624 24.828 135.252 24.94 134.884 25.012C134.516 25.084 134.104 25.12 133.648 25.12C132.768 25.12 132.04 24.94 131.464 24.58C130.896 24.212 130.476 23.7 130.204 23.044C129.932 22.38 129.796 21.608 129.796 20.728C129.796 20.08 129.884 19.488 130.06 18.952C130.236 18.408 130.492 17.94 130.828 17.548C131.172 17.156 131.592 16.852 132.088 16.636C132.592 16.42 133.168 16.312 133.816 16.312C134.24 16.312 134.664 16.368 135.088 16.48C135.52 16.584 135.932 16.728 136.324 16.912L135.736 18.388C135.416 18.236 135.092 18.104 134.764 17.992C134.444 17.88 134.128 17.824 133.816 17.824ZM141.12 25H139.308V17.944H136.98V16.432H143.448V17.944H141.12V25ZM149.17 25L148.546 22.96H145.426L144.802 25H142.846L145.87 16.396H148.09L151.126 25H149.17ZM147.49 19.444C147.45 19.308 147.398 19.136 147.334 18.928C147.27 18.72 147.206 18.508 147.142 18.292C147.078 18.076 147.026 17.888 146.986 17.728C146.946 17.888 146.89 18.088 146.818 18.328C146.754 18.56 146.69 18.784 146.626 19C146.57 19.208 146.526 19.356 146.494 19.444L145.882 21.436H148.114L147.49 19.444Z" fill="white"/>
<defs>
<linearGradient id="paint0_linear_68_5" x1="0" y1="21" x2="156" y2="21" gradientUnits="userSpaceOnUse">
<stop stop-color="#4F7DA0"/>
<stop offset="1" stop-color="#2A3D50"/>
</linearGradient>
</defs>
</svg>
