<svg width="166" height="44" viewBox="0 0 166 44" fill="none" xmlns="http://www.w3.org/2000/svg">
<g filter="url(#filter0_d_13_5)">
<path d="M0 0H141.5L158 17L141.5 34H0L16.5 17L0 0Z" fill="url(#paint0_linear_13_5)"/>
</g>
<path d="M58.022 16.198C58.022 17.2493 57.889 18.2057 57.623 19.067C57.3697 19.9157 56.977 20.6503 56.445 21.271C55.9257 21.8917 55.2543 22.3667 54.431 22.696C53.6203 23.0253 52.664 23.19 51.562 23.19C50.46 23.19 49.4973 23.0253 48.674 22.696C47.8633 22.354 47.192 21.879 46.66 21.271C46.1407 20.6503 45.748 19.9093 45.482 19.048C45.2287 18.1867 45.102 17.2303 45.102 16.179C45.102 14.773 45.33 13.5507 45.786 12.512C46.2547 11.4733 46.964 10.669 47.914 10.099C48.8767 9.51633 50.099 9.225 51.581 9.225C53.0503 9.225 54.26 9.51633 55.21 10.099C56.16 10.669 56.863 11.4797 57.319 12.531C57.7877 13.5697 58.022 14.792 58.022 16.198ZM48.123 16.198C48.123 17.148 48.2433 17.965 48.484 18.649C48.7247 19.333 49.0983 19.8587 49.605 20.226C50.1117 20.5933 50.764 20.777 51.562 20.777C52.3853 20.777 53.044 20.5933 53.538 20.226C54.0447 19.8587 54.412 19.333 54.64 18.649C54.8807 17.965 55.001 17.148 55.001 16.198C55.001 14.7667 54.735 13.6457 54.203 12.835C53.671 12.0243 52.797 11.619 51.581 11.619C50.7703 11.619 50.1117 11.8027 49.605 12.17C49.0983 12.5373 48.7247 13.063 48.484 13.747C48.2433 14.431 48.123 15.248 48.123 16.198Z" fill="black"/>
<path d="M79.825 23H76.956V17.148H71.579V23H68.71V9.434H71.579V14.754H76.956V9.434H79.825V23ZM91.5413 23L90.5533 19.77H85.6133L84.6253 23H81.5283L86.3163 9.377H89.8313L94.6383 23H91.5413ZM88.8813 14.203C88.818 13.9877 88.7357 13.7153 88.6343 13.386C88.533 13.0567 88.4317 12.721 88.3303 12.379C88.229 12.037 88.1467 11.7393 88.0833 11.486C88.02 11.7393 87.9313 12.056 87.8173 12.436C87.716 12.8033 87.6147 13.158 87.5133 13.5C87.4247 13.8293 87.355 14.0637 87.3043 14.203L86.3353 17.357H89.8693L88.8813 14.203ZM102.113 11.638C101.569 11.638 101.081 11.7457 100.65 11.961C100.232 12.1763 99.8778 12.4867 99.5865 12.892C99.2952 13.2847 99.0735 13.766 98.9215 14.336C98.7822 14.906 98.7125 15.5457 98.7125 16.255C98.7125 17.2177 98.8265 18.041 99.0545 18.725C99.2952 19.3963 99.6688 19.9093 100.175 20.264C100.682 20.6187 101.328 20.796 102.113 20.796C102.671 20.796 103.222 20.7327 103.766 20.606C104.324 20.4793 104.925 20.302 105.571 20.074V22.487C104.976 22.7277 104.387 22.905 103.804 23.019C103.222 23.133 102.569 23.19 101.847 23.19C100.454 23.19 99.3015 22.905 98.3895 22.335C97.4902 21.7523 96.8252 20.9417 96.3945 19.903C95.9638 18.8517 95.7485 17.6293 95.7485 16.236C95.7485 15.21 95.8878 14.2727 96.1665 13.424C96.4452 12.5627 96.8505 11.8217 97.3825 11.201C97.9272 10.5803 98.5922 10.099 99.3775 9.757C100.175 9.415 101.087 9.244 102.113 9.244C102.785 9.244 103.456 9.33267 104.127 9.51C104.811 9.67467 105.464 9.90267 106.084 10.194L105.153 12.531C104.647 12.2903 104.134 12.0813 103.614 11.904C103.108 11.7267 102.607 11.638 102.113 11.638Z" fill="black"/>
<defs>
<filter id="filter0_d_13_5" x="0" y="0" width="166" height="44" filterUnits="userSpaceOnUse" color-interpolation-filters="sRGB">
<feFlood flood-opacity="0" result="BackgroundImageFix"/>
<feColorMatrix in="SourceAlpha" type="matrix" values="0 0 0 0 0 0 0 0 0 0 0 0 0 0 0 0 0 0 127 0" result="hardAlpha"/>
<feOffset dx="4" dy="6"/>
<feGaussianBlur stdDeviation="2"/>
<feComposite in2="hardAlpha" operator="out"/>
<feColorMatrix type="matrix" values="0 0 0 0 0 0 0 0 0 0 0 0 0 0 0 0 0 0 1 0"/>
<feBlend mode="normal" in2="BackgroundImageFix" result="effect1_dropShadow_13_5"/>
<feBlend mode="normal" in="SourceGraphic" in2="effect1_dropShadow_13_5" result="shape"/>
</filter>
<linearGradient id="paint0_linear_13_5" x1="0" y1="17" x2="158" y2="17" gradientUnits="userSpaceOnUse">
<stop stop-color="#D9EAF2"/>
<stop offset="1" stop-color="#7C929C"/>
</linearGradient>
</defs>
</svg>
