<svg width="193" height="44" viewBox="0 0 193 44" fill="none" xmlns="http://www.w3.org/2000/svg">
<g filter="url(#filter0_d_1_105)">
<path d="M0.5 0H170.469L185 17L170.469 34H0.5L15.031 17L0.5 0Z" fill="url(#paint0_linear_1_105)"/>
</g>
<path d="M28.71 23V9.434H39.445V23H36.576V11.828H31.579V23H28.71ZM47.1992 9.434C48.9472 9.434 50.2202 9.814 51.0182 10.574C51.8289 11.3213 52.2342 12.3537 52.2342 13.671C52.2342 14.2663 52.1456 14.8363 51.9682 15.381C51.7909 15.913 51.4932 16.3943 51.0752 16.825C50.6699 17.243 50.1316 17.5723 49.4602 17.813C48.7889 18.0537 47.9592 18.174 46.9712 18.174H45.7362V23H42.8672V9.434H47.1992ZM47.0472 11.79H45.7362V15.818H46.6862C47.2309 15.818 47.6996 15.7483 48.0922 15.609C48.4849 15.4697 48.7889 15.248 49.0042 14.944C49.2196 14.64 49.3272 14.2473 49.3272 13.766C49.3272 13.0947 49.1436 12.6007 48.7762 12.284C48.4089 11.9547 47.8326 11.79 47.0472 11.79ZM67.1099 16.198C67.1099 17.2493 66.9769 18.2057 66.7109 19.067C66.4576 19.9157 66.0649 20.6503 65.5329 21.271C65.0136 21.8917 64.3422 22.3667 63.5189 22.696C62.7082 23.0253 61.7519 23.19 60.6499 23.19C59.5479 23.19 58.5852 23.0253 57.7619 22.696C56.9512 22.354 56.2799 21.879 55.7479 21.271C55.2286 20.6503 54.8359 19.9093 54.5699 19.048C54.3166 18.1867 54.1899 17.2303 54.1899 16.179C54.1899 14.773 54.4179 13.5507 54.8739 12.512C55.3426 11.4733 56.0519 10.669 57.0019 10.099C57.9646 9.51633 59.1869 9.225 60.6689 9.225C62.1382 9.225 63.3479 9.51633 64.2979 10.099C65.2479 10.669 65.9509 11.4797 66.4069 12.531C66.8756 13.5697 67.1099 14.792 67.1099 16.198ZM57.2109 16.198C57.2109 17.148 57.3312 17.965 57.5719 18.649C57.8126 19.333 58.1862 19.8587 58.6929 20.226C59.1996 20.5933 59.8519 20.777 60.6499 20.777C61.4732 20.777 62.1319 20.5933 62.6259 20.226C63.1326 19.8587 63.4999 19.333 63.7279 18.649C63.9686 17.965 64.0889 17.148 64.0889 16.198C64.0889 14.7667 63.8229 13.6457 63.2909 12.835C62.7589 12.0243 61.8849 11.619 60.6689 11.619C59.8582 11.619 59.1996 11.8027 58.6929 12.17C58.1862 12.5373 57.8126 13.063 57.5719 13.747C57.3312 14.431 57.2109 15.248 57.2109 16.198ZM80.1699 9.434V20.606H81.9749V26.952H79.2009V23H70.7079V26.952H67.9339V20.606H68.9789C69.3335 19.8967 69.6755 19.1493 70.0049 18.364C70.3342 17.5787 70.6382 16.7363 70.9169 15.837C71.2082 14.9377 71.4679 13.9623 71.6959 12.911C71.9239 11.847 72.1139 10.688 72.2659 9.434H80.1699ZM74.5459 11.828C74.4572 12.4867 74.3305 13.1897 74.1659 13.937C74.0012 14.6717 73.8049 15.4253 73.5769 16.198C73.3615 16.9707 73.1209 17.7307 72.8549 18.478C72.5889 19.2253 72.3039 19.9347 71.9999 20.606H77.3009V11.828H74.5459ZM90.7466 19.029C90.3666 19.8903 89.9613 20.6377 89.5306 21.271C89.1126 21.8917 88.5743 22.3667 87.9156 22.696C87.257 23.0253 86.3956 23.19 85.3316 23.19C85.0023 23.19 84.6413 23.1647 84.2486 23.114C83.856 23.0633 83.495 22.9937 83.1656 22.905V20.435C83.4696 20.5617 83.8053 20.6503 84.1726 20.701C84.54 20.7517 84.882 20.777 85.1986 20.777C85.6166 20.777 85.9523 20.7073 86.2056 20.568C86.4716 20.4287 86.6806 20.2387 86.8326 19.998C86.9973 19.7447 87.1303 19.4723 87.2316 19.181L82.5386 9.434H85.5786L88.1056 15.305C88.169 15.4317 88.245 15.5963 88.3336 15.799C88.4223 16.0017 88.511 16.2107 88.5996 16.426C88.6883 16.6413 88.758 16.8313 88.8086 16.996H88.9036C88.9543 16.844 89.0176 16.6603 89.0936 16.445C89.1823 16.217 89.271 15.989 89.3596 15.761C89.461 15.5203 89.5496 15.3113 89.6256 15.134L91.9816 9.434H94.9456L90.7466 19.029ZM107.715 23H104.447L99.5263 16.122V23H96.6573V9.434H99.5263V16.008L104.39 9.434H107.449L102.509 15.951L107.715 23ZM122.172 20.72V26.952H119.398V23H109.423V9.434H112.292V20.606H117.289V9.434H120.158V20.72H122.172ZM124.267 9.434H126.851V15.989C126.851 16.3057 126.844 16.6603 126.832 17.053C126.819 17.4457 126.806 17.832 126.794 18.212C126.781 18.5793 126.768 18.9023 126.756 19.181C126.743 19.447 126.73 19.6307 126.718 19.732H126.775L133.045 9.434H136.484V23H133.919V16.483C133.919 16.141 133.925 15.7673 133.938 15.362C133.95 14.944 133.963 14.545 133.976 14.165C134.001 13.785 134.02 13.4557 134.033 13.177C134.058 12.8857 134.077 12.6957 134.09 12.607H134.014L127.725 23H124.267V9.434ZM144.468 17.794L141.295 23H138.103L141.96 17.034C141.593 16.882 141.226 16.6603 140.858 16.369C140.491 16.065 140.187 15.666 139.946 15.172C139.706 14.6653 139.585 14.0447 139.585 13.31C139.585 12.056 140.035 11.0997 140.934 10.441C141.834 9.76967 143.094 9.434 144.715 9.434H149.123V23H146.254V17.794H144.468ZM144.829 11.79C144.335 11.79 143.911 11.847 143.556 11.961C143.214 12.075 142.948 12.2587 142.758 12.512C142.581 12.7653 142.492 13.101 142.492 13.519C142.492 14.1143 142.689 14.5893 143.081 14.944C143.487 15.286 144.095 15.457 144.905 15.457H146.254V11.79H144.829Z" fill="black"/>
<defs>
<filter id="filter0_d_1_105" x="0.5" y="0" width="192.5" height="44" filterUnits="userSpaceOnUse" color-interpolation-filters="sRGB">
<feFlood flood-opacity="0" result="BackgroundImageFix"/>
<feColorMatrix in="SourceAlpha" type="matrix" values="0 0 0 0 0 0 0 0 0 0 0 0 0 0 0 0 0 0 127 0" result="hardAlpha"/>
<feOffset dx="4" dy="6"/>
<feGaussianBlur stdDeviation="2"/>
<feComposite in2="hardAlpha" operator="out"/>
<feColorMatrix type="matrix" values="0 0 0 0 0 0 0 0 0 0 0 0 0 0 0 0 0 0 1 0"/>
<feBlend mode="normal" in2="BackgroundImageFix" result="effect1_dropShadow_1_105"/>
<feBlend mode="normal" in="SourceGraphic" in2="effect1_dropShadow_1_105" result="shape"/>
</filter>
<linearGradient id="paint0_linear_1_105" x1="0.5" y1="17" x2="185" y2="17" gradientUnits="userSpaceOnUse">
<stop stop-color="#D9EAF2"/>
<stop offset="1" stop-color="#7C929C"/>
</linearGradient>
</defs>
</svg>
