<svg width="167" height="44" viewBox="0 0 167 44" fill="none" xmlns="http://www.w3.org/2000/svg">
<g filter="url(#filter0_d_1_101)">
<path d="M0 0H144.545L159 17L144.545 34H0L14.4545 17L0 0Z" fill="url(#paint0_linear_1_101)"/>
</g>
<path d="M20.71 24V10.434H31.445V24H28.576V12.828H23.579V24H20.71ZM47.1792 17.198C47.1792 18.2493 47.0462 19.2057 46.7802 20.067C46.5269 20.9157 46.1342 21.6503 45.6022 22.271C45.0829 22.8917 44.4116 23.3667 43.5882 23.696C42.7776 24.0253 41.8212 24.19 40.7192 24.19C39.6172 24.19 38.6546 24.0253 37.8312 23.696C37.0206 23.354 36.3492 22.879 35.8172 22.271C35.2979 21.6503 34.9052 20.9093 34.6392 20.048C34.3859 19.1867 34.2592 18.2303 34.2592 17.179C34.2592 15.773 34.4872 14.5507 34.9432 13.512C35.4119 12.4733 36.1212 11.669 37.0712 11.099C38.0339 10.5163 39.2562 10.225 40.7382 10.225C42.2076 10.225 43.4172 10.5163 44.3672 11.099C45.3172 11.669 46.0202 12.4797 46.4762 13.531C46.9449 14.5697 47.1792 15.792 47.1792 17.198ZM37.2802 17.198C37.2802 18.148 37.4006 18.965 37.6412 19.649C37.8819 20.333 38.2556 20.8587 38.7622 21.226C39.2689 21.5933 39.9212 21.777 40.7192 21.777C41.5426 21.777 42.2012 21.5933 42.6952 21.226C43.2019 20.8587 43.5692 20.333 43.7972 19.649C44.0379 18.965 44.1582 18.148 44.1582 17.198C44.1582 15.7667 43.8922 14.6457 43.3602 13.835C42.8282 13.0243 41.9542 12.619 40.7382 12.619C39.9276 12.619 39.2689 12.8027 38.7622 13.17C38.2556 13.5373 37.8819 14.063 37.6412 14.747C37.4006 15.431 37.2802 16.248 37.2802 17.198ZM54.3213 10.434C56.0693 10.434 57.3423 10.814 58.1403 11.574C58.951 12.3213 59.3563 13.3537 59.3563 14.671C59.3563 15.2663 59.2676 15.8363 59.0903 16.381C58.913 16.913 58.6153 17.3943 58.1973 17.825C57.792 18.243 57.2536 18.5723 56.5823 18.813C55.911 19.0537 55.0813 19.174 54.0933 19.174H52.8583V24H49.9893V10.434H54.3213ZM54.1693 12.79H52.8583V16.818H53.8083C54.353 16.818 54.8216 16.7483 55.2143 16.609C55.607 16.4697 55.911 16.248 56.1263 15.944C56.3416 15.64 56.4493 15.2473 56.4493 14.766C56.4493 14.0947 56.2656 13.6007 55.8983 13.284C55.531 12.9547 54.9546 12.79 54.1693 12.79ZM67.145 24H64.276V12.828H60.59V10.434H70.831V12.828H67.145V24ZM80.6749 10.244V11.916C82.1569 11.954 83.3349 12.2137 84.2089 12.695C85.0956 13.1637 85.7289 13.7717 86.1089 14.519C86.5016 15.2663 86.6979 16.0833 86.6979 16.97C86.6979 17.54 86.5966 18.1227 86.3939 18.718C86.2039 19.3133 85.8746 19.8643 85.4059 20.371C84.9499 20.865 84.3356 21.2703 83.5629 21.587C82.7902 21.9037 81.8276 22.0747 80.6749 22.1V24.19H78.0909V22.1C76.9256 22.0747 75.9502 21.9037 75.1649 21.587C74.3922 21.2703 73.7779 20.8587 73.3219 20.352C72.8659 19.8453 72.5429 19.3007 72.3529 18.718C72.1629 18.1227 72.0679 17.54 72.0679 16.97C72.0679 16.3113 72.1756 15.6843 72.3909 15.089C72.6062 14.4937 72.9482 13.9617 73.4169 13.493C73.8856 13.0243 74.5062 12.6507 75.2789 12.372C76.0516 12.0933 76.9889 11.9413 78.0909 11.916V10.244H80.6749ZM78.0909 14.158C77.2676 14.196 76.6089 14.3417 76.1149 14.595C75.6336 14.8357 75.2852 15.1587 75.0699 15.564C74.8672 15.9693 74.7659 16.4317 74.7659 16.951C74.7659 17.521 74.8799 18.0213 75.1079 18.452C75.3486 18.87 75.7096 19.2057 76.1909 19.459C76.6849 19.6997 77.3182 19.839 78.0909 19.877V14.158ZM80.6749 19.877C81.4476 19.839 82.0746 19.6997 82.5559 19.459C83.0499 19.2057 83.4109 18.87 83.6389 18.452C83.8796 18.0213 83.9999 17.521 83.9999 16.951C83.9999 16.4317 83.8922 15.9693 83.6769 15.564C83.4742 15.1587 83.1259 14.8357 82.6319 14.595C82.1506 14.3417 81.4982 14.196 80.6749 14.158V19.877ZM101.582 17.198C101.582 18.2493 101.449 19.2057 101.183 20.067C100.929 20.9157 100.537 21.6503 100.005 22.271C99.4852 22.8917 98.8139 23.3667 97.9906 23.696C97.1799 24.0253 96.2236 24.19 95.1216 24.19C94.0196 24.19 93.0569 24.0253 92.2336 23.696C91.4229 23.354 90.7516 22.879 90.2196 22.271C89.7002 21.6503 89.3076 20.9093 89.0416 20.048C88.7882 19.1867 88.6616 18.2303 88.6616 17.179C88.6616 15.773 88.8896 14.5507 89.3456 13.512C89.8142 12.4733 90.5236 11.669 91.4736 11.099C92.4362 10.5163 93.6586 10.225 95.1406 10.225C96.6099 10.225 97.8196 10.5163 98.7696 11.099C99.7196 11.669 100.423 12.4797 100.879 13.531C101.347 14.5697 101.582 15.792 101.582 17.198ZM91.6826 17.198C91.6826 18.148 91.8029 18.965 92.0436 19.649C92.2842 20.333 92.6579 20.8587 93.1646 21.226C93.6712 21.5933 94.3236 21.777 95.1216 21.777C95.9449 21.777 96.6036 21.5933 97.0976 21.226C97.6042 20.8587 97.9716 20.333 98.1996 19.649C98.4402 18.965 98.5606 18.148 98.5606 17.198C98.5606 15.7667 98.2946 14.6457 97.7626 13.835C97.2306 13.0243 96.3566 12.619 95.1406 12.619C94.3299 12.619 93.6712 12.8027 93.1646 13.17C92.6579 13.5373 92.2842 14.063 92.0436 14.747C91.8029 15.431 91.6826 16.248 91.6826 17.198ZM114.756 24H111.887V12.828H108.562C108.486 13.4107 108.403 14.044 108.315 14.728C108.239 15.412 108.15 16.1087 108.049 16.818C107.96 17.5147 107.865 18.1797 107.764 18.813C107.662 19.4337 107.561 19.9847 107.46 20.466C107.295 21.2513 107.073 21.9227 106.795 22.48C106.529 23.0373 106.155 23.4617 105.674 23.753C105.205 24.0443 104.591 24.19 103.831 24.19C103.577 24.19 103.337 24.171 103.109 24.133C102.881 24.095 102.665 24.0443 102.463 23.981V21.625C102.627 21.6757 102.786 21.72 102.938 21.758C103.102 21.796 103.28 21.815 103.47 21.815C103.723 21.815 103.932 21.7327 104.097 21.568C104.261 21.4033 104.407 21.1247 104.534 20.732C104.66 20.3267 104.787 19.7693 104.914 19.06C104.977 18.756 105.053 18.3253 105.142 17.768C105.23 17.198 105.332 16.533 105.446 15.773C105.572 15.0003 105.699 14.1643 105.826 13.265C105.952 12.353 106.073 11.4093 106.187 10.434H114.756V24ZM118.178 10.434H120.762V16.989C120.762 17.3057 120.755 17.6603 120.743 18.053C120.73 18.4457 120.717 18.832 120.705 19.212C120.692 19.5793 120.679 19.9023 120.667 20.181C120.654 20.447 120.641 20.6307 120.629 20.732H120.686L126.956 10.434H130.395V24H127.83V17.483C127.83 17.141 127.836 16.7673 127.849 16.362C127.861 15.944 127.874 15.545 127.887 15.165C127.912 14.785 127.931 14.4557 127.944 14.177C127.969 13.8857 127.988 13.6957 128.001 13.607H127.925L121.636 24H118.178V10.434ZM146.131 17.198C146.131 18.2493 145.998 19.2057 145.732 20.067C145.479 20.9157 145.086 21.6503 144.554 22.271C144.035 22.8917 143.364 23.3667 142.54 23.696C141.73 24.0253 140.773 24.19 139.671 24.19C138.569 24.19 137.607 24.0253 136.783 23.696C135.973 23.354 135.301 22.879 134.769 22.271C134.25 21.6503 133.857 20.9093 133.591 20.048C133.338 19.1867 133.211 18.2303 133.211 17.179C133.211 15.773 133.439 14.5507 133.895 13.512C134.364 12.4733 135.073 11.669 136.023 11.099C136.986 10.5163 138.208 10.225 139.69 10.225C141.16 10.225 142.369 10.5163 143.319 11.099C144.269 11.669 144.972 12.4797 145.428 13.531C145.897 14.5697 146.131 15.792 146.131 17.198ZM136.232 17.198C136.232 18.148 136.353 18.965 136.593 19.649C136.834 20.333 137.208 20.8587 137.714 21.226C138.221 21.5933 138.873 21.777 139.671 21.777C140.495 21.777 141.153 21.5933 141.647 21.226C142.154 20.8587 142.521 20.333 142.749 19.649C142.99 18.965 143.11 18.148 143.11 17.198C143.11 15.7667 142.844 14.6457 142.312 13.835C141.78 13.0243 140.906 12.619 139.69 12.619C138.88 12.619 138.221 12.8027 137.714 13.17C137.208 13.5373 136.834 14.063 136.593 14.747C136.353 15.431 136.232 16.248 136.232 17.198Z" fill="black"/>
<defs>
<filter id="filter0_d_1_101" x="0" y="0" width="167" height="44" filterUnits="userSpaceOnUse" color-interpolation-filters="sRGB">
<feFlood flood-opacity="0" result="BackgroundImageFix"/>
<feColorMatrix in="SourceAlpha" type="matrix" values="0 0 0 0 0 0 0 0 0 0 0 0 0 0 0 0 0 0 127 0" result="hardAlpha"/>
<feOffset dx="4" dy="6"/>
<feGaussianBlur stdDeviation="2"/>
<feComposite in2="hardAlpha" operator="out"/>
<feColorMatrix type="matrix" values="0 0 0 0 0 0 0 0 0 0 0 0 0 0 0 0 0 0 1 0"/>
<feBlend mode="normal" in2="BackgroundImageFix" result="effect1_dropShadow_1_101"/>
<feBlend mode="normal" in="SourceGraphic" in2="effect1_dropShadow_1_101" result="shape"/>
</filter>
<linearGradient id="paint0_linear_1_101" x1="0" y1="17" x2="159" y2="17" gradientUnits="userSpaceOnUse">
<stop stop-color="#D9EAF2"/>
<stop offset="1" stop-color="#7C929C"/>
</linearGradient>
</defs>
</svg>
