<svg width="167" height="44" viewBox="0 0 167 44" fill="none" xmlns="http://www.w3.org/2000/svg">
<g filter="url(#filter0_d_31_5)">
<path d="M0 0H144.545L159 17L144.545 34H0L14.4545 17L0 0Z" fill="url(#paint0_linear_31_5)"/>
</g>
<path d="M48.768 24H45.5L40.579 17.122V24H37.71V10.434H40.579V17.008L45.443 10.434H48.502L43.562 16.951L48.768 24ZM58.7786 24L57.7906 20.77H52.8506L51.8626 24H48.7656L53.5536 10.377H57.0686L61.8756 24H58.7786ZM56.1186 15.203C56.0553 14.9877 55.973 14.7153 55.8716 14.386C55.7703 14.0567 55.669 13.721 55.5676 13.379C55.4663 13.037 55.384 12.7393 55.3206 12.486C55.2573 12.7393 55.1686 13.056 55.0546 13.436C54.9533 13.8033 54.852 14.158 54.7506 14.5C54.662 14.8293 54.5923 15.0637 54.5416 15.203L53.5726 18.357H57.1066L56.1186 15.203ZM67.4829 24H64.6139V12.828H60.9279V10.434H71.1689V12.828H67.4829V24ZM80.2278 24L79.2398 20.77H74.2998L73.3118 24H70.2148L75.0028 10.377H78.5178L83.3248 24H80.2278ZM77.5678 15.203C77.5045 14.9877 77.4222 14.7153 77.3208 14.386C77.2195 14.0567 77.1182 13.721 77.0168 13.379C76.9155 13.037 76.8332 12.7393 76.7698 12.486C76.7065 12.7393 76.6178 13.056 76.5038 13.436C76.4025 13.8033 76.3012 14.158 76.1998 14.5C76.1112 14.8293 76.0415 15.0637 75.9908 15.203L75.0218 18.357H78.5558L77.5678 15.203ZM95.778 24H92.909V12.828H89.584C89.508 13.4107 89.4257 14.044 89.337 14.728C89.261 15.412 89.1723 16.1087 89.071 16.818C88.9823 17.5147 88.8873 18.1797 88.786 18.813C88.6847 19.4337 88.5833 19.9847 88.482 20.466C88.3173 21.2513 88.0957 21.9227 87.817 22.48C87.551 23.0373 87.1773 23.4617 86.696 23.753C86.2273 24.0443 85.613 24.19 84.853 24.19C84.5997 24.19 84.359 24.171 84.131 24.133C83.903 24.095 83.6877 24.0443 83.485 23.981V21.625C83.6497 21.6757 83.808 21.72 83.96 21.758C84.1247 21.796 84.302 21.815 84.492 21.815C84.7453 21.815 84.9543 21.7327 85.119 21.568C85.2837 21.4033 85.4293 21.1247 85.556 20.732C85.6827 20.3267 85.8093 19.7693 85.936 19.06C85.9993 18.756 86.0753 18.3253 86.164 17.768C86.2527 17.198 86.354 16.533 86.468 15.773C86.5947 15.0003 86.7213 14.1643 86.848 13.265C86.9747 12.353 87.095 11.4093 87.209 10.434H95.778V24ZM111.512 17.198C111.512 18.2493 111.379 19.2057 111.113 20.067C110.86 20.9157 110.467 21.6503 109.935 22.271C109.416 22.8917 108.745 23.3667 107.921 23.696C107.111 24.0253 106.154 24.19 105.052 24.19C103.95 24.19 102.988 24.0253 102.164 23.696C101.354 23.354 100.682 22.879 100.15 22.271C99.6309 21.6503 99.2382 20.9093 98.9722 20.048C98.7189 19.1867 98.5922 18.2303 98.5922 17.179C98.5922 15.773 98.8202 14.5507 99.2762 13.512C99.7449 12.4733 100.454 11.669 101.404 11.099C102.367 10.5163 103.589 10.225 105.071 10.225C106.541 10.225 107.75 10.5163 108.7 11.099C109.65 11.669 110.353 12.4797 110.809 13.531C111.278 14.5697 111.512 15.792 111.512 17.198ZM101.613 17.198C101.613 18.148 101.734 18.965 101.974 19.649C102.215 20.333 102.589 20.8587 103.095 21.226C103.602 21.5933 104.254 21.777 105.052 21.777C105.876 21.777 106.534 21.5933 107.028 21.226C107.535 20.8587 107.902 20.333 108.13 19.649C108.371 18.965 108.491 18.148 108.491 17.198C108.491 15.7667 108.225 14.6457 107.693 13.835C107.161 13.0243 106.287 12.619 105.071 12.619C104.261 12.619 103.602 12.8027 103.095 13.17C102.589 13.5373 102.215 14.063 101.974 14.747C101.734 15.431 101.613 16.248 101.613 17.198ZM122.891 10.434V12.809H117.191V24H114.322V10.434H122.891Z" fill="black"/>
<defs>
<filter id="filter0_d_31_5" x="0" y="0" width="167" height="44" filterUnits="userSpaceOnUse" color-interpolation-filters="sRGB">
<feFlood flood-opacity="0" result="BackgroundImageFix"/>
<feColorMatrix in="SourceAlpha" type="matrix" values="0 0 0 0 0 0 0 0 0 0 0 0 0 0 0 0 0 0 127 0" result="hardAlpha"/>
<feOffset dx="4" dy="6"/>
<feGaussianBlur stdDeviation="2"/>
<feComposite in2="hardAlpha" operator="out"/>
<feColorMatrix type="matrix" values="0 0 0 0 0 0 0 0 0 0 0 0 0 0 0 0 0 0 1 0"/>
<feBlend mode="normal" in2="BackgroundImageFix" result="effect1_dropShadow_31_5"/>
<feBlend mode="normal" in="SourceGraphic" in2="effect1_dropShadow_31_5" result="shape"/>
</filter>
<linearGradient id="paint0_linear_31_5" x1="0" y1="17" x2="159" y2="17" gradientUnits="userSpaceOnUse">
<stop stop-color="#D9EAF2"/>
<stop offset="1" stop-color="#7C929C"/>
</linearGradient>
</defs>
</svg>
