<svg width="157" height="44" viewBox="0 0 157 44" fill="none" xmlns="http://www.w3.org/2000/svg">
<g filter="url(#filter0_d_1_102)">
<path d="M0 5.66244e-07H126.445L149 17L126.445 34H0L22.555 17L0 5.66244e-07Z" fill="url(#paint0_linear_1_102)"/>
</g>
<path d="M38.768 23H35.5L30.579 16.122V23H27.71V9.434H30.579V16.008L35.443 9.434H38.502L33.562 15.951L38.768 23ZM52.4165 16.198C52.4165 17.2493 52.2835 18.2057 52.0175 19.067C51.7642 19.9157 51.3715 20.6503 50.8395 21.271C50.3202 21.8917 49.6489 22.3667 48.8255 22.696C48.0149 23.0253 47.0585 23.19 45.9565 23.19C44.8545 23.19 43.8919 23.0253 43.0685 22.696C42.2579 22.354 41.5865 21.879 41.0545 21.271C40.5352 20.6503 40.1425 19.9093 39.8765 19.048C39.6232 18.1867 39.4965 17.2303 39.4965 16.179C39.4965 14.773 39.7245 13.5507 40.1805 12.512C40.6492 11.4733 41.3585 10.669 42.3085 10.099C43.2712 9.51633 44.4935 9.225 45.9755 9.225C47.4449 9.225 48.6545 9.51633 49.6045 10.099C50.5545 10.669 51.2575 11.4797 51.7135 12.531C52.1822 13.5697 52.4165 14.792 52.4165 16.198ZM42.5175 16.198C42.5175 17.148 42.6379 17.965 42.8785 18.649C43.1192 19.333 43.4929 19.8587 43.9995 20.226C44.5062 20.5933 45.1585 20.777 45.9565 20.777C46.7799 20.777 47.4385 20.5933 47.9325 20.226C48.4392 19.8587 48.8065 19.333 49.0345 18.649C49.2752 17.965 49.3955 17.148 49.3955 16.198C49.3955 14.7667 49.1295 13.6457 48.5975 12.835C48.0655 12.0243 47.1915 11.619 45.9755 11.619C45.1649 11.619 44.5062 11.8027 43.9995 12.17C43.4929 12.5373 43.1192 13.063 42.8785 13.747C42.6379 14.431 42.5175 15.248 42.5175 16.198ZM66.3416 23H63.4726V17.148H58.0956V23H55.2266V9.434H58.0956V14.754H63.4726V9.434H66.3416V23ZM74.9799 23H72.1109V11.828H68.4249V9.434H78.6659V11.828H74.9799V23ZM87.7249 23L86.7369 19.77H81.7969L80.8089 23H77.7119L82.4999 9.377H86.0149L90.8219 23H87.7249ZM85.0649 14.203C85.0016 13.9877 84.9192 13.7153 84.8179 13.386C84.7166 13.0567 84.6152 12.721 84.5139 12.379C84.4126 12.037 84.3302 11.7393 84.2669 11.486C84.2036 11.7393 84.1149 12.056 84.0009 12.436C83.8996 12.8033 83.7982 13.158 83.6969 13.5C83.6082 13.8293 83.5386 14.0637 83.4879 14.203L82.5189 17.357H86.0529L85.0649 14.203ZM103.598 23H100.33L95.4091 16.122V23H92.5401V9.434H95.4091V16.008L100.273 9.434H103.332L98.3921 15.951L103.598 23ZM110.531 23H107.662V11.828H103.976V9.434H114.217V11.828H110.531V23ZM116.309 23V9.434H119.178V14.64H120.109C121.363 14.64 122.395 14.8173 123.206 15.172C124.016 15.5267 124.612 16.0143 124.992 16.635C125.384 17.2557 125.581 17.965 125.581 18.763C125.581 19.6497 125.384 20.4097 124.992 21.043C124.599 21.6763 123.991 22.164 123.168 22.506C122.357 22.8353 121.306 23 120.014 23H116.309ZM119.938 20.644C120.786 20.644 121.451 20.5047 121.933 20.226C122.427 19.9473 122.674 19.4597 122.674 18.763C122.674 18.2817 122.56 17.9143 122.332 17.661C122.116 17.4077 121.793 17.2367 121.363 17.148C120.932 17.0467 120.413 16.996 119.805 16.996H119.178V20.644H119.938ZM127.234 23V9.434H130.103V23H127.234Z" fill="black"/>
<defs>
<filter id="filter0_d_1_102" x="0" y="5.66244e-07" width="157" height="44" filterUnits="userSpaceOnUse" color-interpolation-filters="sRGB">
<feFlood flood-opacity="0" result="BackgroundImageFix"/>
<feColorMatrix in="SourceAlpha" type="matrix" values="0 0 0 0 0 0 0 0 0 0 0 0 0 0 0 0 0 0 127 0" result="hardAlpha"/>
<feOffset dx="4" dy="6"/>
<feGaussianBlur stdDeviation="2"/>
<feComposite in2="hardAlpha" operator="out"/>
<feColorMatrix type="matrix" values="0 0 0 0 0 0 0 0 0 0 0 0 0 0 0 0 0 0 1 0"/>
<feBlend mode="normal" in2="BackgroundImageFix" result="effect1_dropShadow_1_102"/>
<feBlend mode="normal" in="SourceGraphic" in2="effect1_dropShadow_1_102" result="shape"/>
</filter>
<linearGradient id="paint0_linear_1_102" x1="0" y1="17" x2="149" y2="17" gradientUnits="userSpaceOnUse">
<stop stop-color="#D9EAF2"/>
<stop offset="1" stop-color="#7C929C"/>
</linearGradient>
</defs>
</svg>
