<svg width="94" height="42" viewBox="0 0 94 42" fill="none" xmlns="http://www.w3.org/2000/svg">
<rect x="0.912598" y="2" width="92.1748" height="38" fill="#16202A"/>
<rect x="1" y="1" width="92" height="40" rx="4" stroke="url(#paint0_linear_61_11)" stroke-width="2"/>
<path d="M19.9967 24H18.1847V16.944H16.0847C16.0367 17.312 15.9847 17.712 15.9287 18.144C15.8807 18.576 15.8247 19.016 15.7607 19.464C15.7047 19.904 15.6447 20.324 15.5807 20.724C15.5167 21.116 15.4527 21.464 15.3887 21.768C15.2847 22.264 15.1447 22.688 14.9687 23.04C14.8007 23.392 14.5647 23.66 14.2607 23.844C13.9647 24.028 13.5767 24.12 13.0967 24.12C12.9367 24.12 12.7847 24.108 12.6407 24.084C12.4967 24.06 12.3607 24.028 12.2327 23.988V22.5C12.3367 22.532 12.4367 22.56 12.5327 22.584C12.6367 22.608 12.7487 22.62 12.8687 22.62C13.0287 22.62 13.1607 22.568 13.2647 22.464C13.3687 22.36 13.4607 22.184 13.5407 21.936C13.6207 21.68 13.7007 21.328 13.7807 20.88C13.8207 20.688 13.8687 20.416 13.9247 20.064C13.9807 19.704 14.0447 19.284 14.1167 18.804C14.1967 18.316 14.2767 17.788 14.3567 17.22C14.4367 16.644 14.5127 16.048 14.5847 15.432H19.9967V24ZM22.1581 15.432H23.7901V19.572C23.7901 19.772 23.7861 19.996 23.7781 20.244C23.7701 20.492 23.7621 20.736 23.7541 20.976C23.7461 21.208 23.7381 21.412 23.7301 21.588C23.7221 21.756 23.7141 21.872 23.7061 21.936H23.7421L27.7021 15.432H29.8741V24H28.2541V19.884C28.2541 19.668 28.2581 19.432 28.2661 19.176C28.2741 18.912 28.2821 18.66 28.2901 18.42C28.3061 18.18 28.3181 17.972 28.3261 17.796C28.3421 17.612 28.3541 17.492 28.3621 17.436H28.3141L24.3421 24H22.1581V15.432ZM40.089 22.56V26.496H38.337V24H32.037V15.432H33.849V22.488H37.005V15.432H38.817V22.56H40.089ZM46.344 24H41.412V15.432H46.344V16.92H43.224V18.804H46.128V20.292H43.224V22.5H46.344V24ZM55.1469 24H53.3349V20.304H49.9389V24H48.1269V15.432H49.9389V18.792H53.3349V15.432H55.1469V24ZM63.2187 17.436C63.2187 18.012 63.0147 18.476 62.6067 18.828C62.1987 19.18 61.6787 19.4 61.0467 19.488V19.524C61.8307 19.604 62.4307 19.824 62.8467 20.184C63.2707 20.536 63.4827 20.996 63.4827 21.564C63.4827 22.06 63.3467 22.504 63.0747 22.896C62.8027 23.28 62.3987 23.58 61.8627 23.796C61.3267 24.012 60.6627 24.12 59.8707 24.12C59.2227 24.12 58.6467 24.08 58.1427 24C57.6467 23.92 57.2147 23.804 56.8467 23.652V22.128C57.0947 22.248 57.3747 22.352 57.6867 22.44C57.9987 22.52 58.3147 22.584 58.6347 22.632C58.9547 22.672 59.2507 22.692 59.5227 22.692C60.2827 22.692 60.8307 22.584 61.1667 22.368C61.5107 22.144 61.6827 21.832 61.6827 21.432C61.6827 21.024 61.4347 20.728 60.9387 20.544C60.4427 20.352 59.7747 20.256 58.9347 20.256H58.1307V18.84H58.8507C59.5307 18.84 60.0587 18.796 60.4347 18.708C60.8107 18.62 61.0747 18.492 61.2267 18.324C61.3787 18.156 61.4547 17.956 61.4547 17.724C61.4547 17.428 61.3227 17.196 61.0587 17.028C60.8027 16.852 60.4147 16.764 59.8947 16.764C59.4547 16.764 59.0387 16.828 58.6467 16.956C58.2627 17.084 57.9027 17.252 57.5667 17.46L56.7747 16.248C57.0707 16.056 57.3827 15.892 57.7107 15.756C58.0467 15.612 58.4147 15.504 58.8147 15.432C59.2147 15.352 59.6587 15.312 60.1467 15.312C60.7947 15.312 61.3467 15.404 61.8027 15.588C62.2587 15.772 62.6067 16.024 62.8467 16.344C63.0947 16.656 63.2187 17.02 63.2187 17.436ZM65.0839 15.432H66.7159V19.572C66.7159 19.772 66.7119 19.996 66.7039 20.244C66.6959 20.492 66.6879 20.736 66.6799 20.976C66.6719 21.208 66.6639 21.412 66.6559 21.588C66.6479 21.756 66.6399 21.872 66.6319 21.936H66.6679L70.6279 15.432H72.7999V24H71.1799V19.884C71.1799 19.668 71.1839 19.432 71.1919 19.176C71.1999 18.912 71.2079 18.66 71.2159 18.42C71.2319 18.18 71.2439 17.972 71.2519 17.796C71.2679 17.612 71.2799 17.492 71.2879 17.436H71.2399L67.2679 24H65.0839V15.432ZM77.8428 20.712L75.8388 24H73.8228L76.2588 20.232C76.0268 20.136 75.7948 19.996 75.5628 19.812C75.3308 19.62 75.1388 19.368 74.9868 19.056C74.8348 18.736 74.7588 18.344 74.7588 17.88C74.7588 17.088 75.0428 16.484 75.6108 16.068C76.1788 15.644 76.9748 15.432 77.9988 15.432H80.7828V24H78.9708V20.712H77.8428ZM78.0708 16.92C77.7588 16.92 77.4908 16.956 77.2668 17.028C77.0508 17.1 76.8828 17.216 76.7628 17.376C76.6508 17.536 76.5948 17.748 76.5948 18.012C76.5948 18.388 76.7188 18.688 76.9668 18.912C77.2228 19.128 77.6068 19.236 78.1188 19.236H78.9708V16.92H78.0708Z" fill="white"/>
<defs>
<linearGradient id="paint0_linear_61_11" x1="0" y1="21" x2="94" y2="21" gradientUnits="userSpaceOnUse">
<stop stop-color="#4F7DA0"/>
<stop offset="1" stop-color="#2A3D50"/>
</linearGradient>
</defs>
</svg>
