<svg width="190" height="44" viewBox="0 0 190 44" fill="none" xmlns="http://www.w3.org/2000/svg">
<g filter="url(#filter0_d_1_100)">
<path d="M0 0H165L181.5 17L165 34H0L16.5 17L0 0Z" fill="url(#paint0_linear_1_100)"/>
</g>
<path d="M30.71 23V9.434H41.445V23H38.576V11.828H33.579V23H30.71ZM49.1992 9.434C50.9472 9.434 52.2202 9.814 53.0182 10.574C53.8289 11.3213 54.2342 12.3537 54.2342 13.671C54.2342 14.2663 54.1456 14.8363 53.9682 15.381C53.7909 15.913 53.4932 16.3943 53.0752 16.825C52.6699 17.243 52.1316 17.5723 51.4602 17.813C50.7889 18.0537 49.9592 18.174 48.9712 18.174H47.7362V23H44.8672V9.434H49.1992ZM49.0472 11.79H47.7362V15.818H48.6862C49.2309 15.818 49.6996 15.7483 50.0922 15.609C50.4849 15.4697 50.7889 15.248 51.0042 14.944C51.2196 14.64 51.3272 14.2473 51.3272 13.766C51.3272 13.0947 51.1436 12.6007 50.7762 12.284C50.4089 11.9547 49.8326 11.79 49.0472 11.79ZM69.1099 16.198C69.1099 17.2493 68.9769 18.2057 68.7109 19.067C68.4576 19.9157 68.0649 20.6503 67.5329 21.271C67.0136 21.8917 66.3422 22.3667 65.5189 22.696C64.7082 23.0253 63.7519 23.19 62.6499 23.19C61.5479 23.19 60.5852 23.0253 59.7619 22.696C58.9512 22.354 58.2799 21.879 57.7479 21.271C57.2286 20.6503 56.8359 19.9093 56.5699 19.048C56.3166 18.1867 56.1899 17.2303 56.1899 16.179C56.1899 14.773 56.4179 13.5507 56.8739 12.512C57.3426 11.4733 58.0519 10.669 59.0019 10.099C59.9646 9.51633 61.1869 9.225 62.6689 9.225C64.1382 9.225 65.3479 9.51633 66.2979 10.099C67.2479 10.669 67.9509 11.4797 68.4069 12.531C68.8756 13.5697 69.1099 14.792 69.1099 16.198ZM59.2109 16.198C59.2109 17.148 59.3312 17.965 59.5719 18.649C59.8126 19.333 60.1862 19.8587 60.6929 20.226C61.1996 20.5933 61.8519 20.777 62.6499 20.777C63.4732 20.777 64.1319 20.5933 64.6259 20.226C65.1326 19.8587 65.4999 19.333 65.7279 18.649C65.9686 17.965 66.0889 17.148 66.0889 16.198C66.0889 14.7667 65.8229 13.6457 65.2909 12.835C64.7589 12.0243 63.8849 11.619 62.6689 11.619C61.8582 11.619 61.1996 11.8027 60.6929 12.17C60.1862 12.5373 59.8126 13.063 59.5719 13.747C59.3312 14.431 59.2109 15.248 59.2109 16.198ZM82.1699 9.434V20.606H83.9749V26.952H81.2009V23H72.7079V26.952H69.9339V20.606H70.9789C71.3335 19.8967 71.6755 19.1493 72.0049 18.364C72.3342 17.5787 72.6382 16.7363 72.9169 15.837C73.2082 14.9377 73.4679 13.9623 73.6959 12.911C73.9239 11.847 74.1139 10.688 74.2659 9.434H82.1699ZM76.5459 11.828C76.4572 12.4867 76.3305 13.1897 76.1659 13.937C76.0012 14.6717 75.8049 15.4253 75.5769 16.198C75.3615 16.9707 75.1209 17.7307 74.8549 18.478C74.5889 19.2253 74.3039 19.9347 73.9999 20.606H79.3009V11.828H76.5459ZM92.7466 19.029C92.3666 19.8903 91.9613 20.6377 91.5306 21.271C91.1126 21.8917 90.5743 22.3667 89.9156 22.696C89.257 23.0253 88.3956 23.19 87.3316 23.19C87.0023 23.19 86.6413 23.1647 86.2486 23.114C85.856 23.0633 85.495 22.9937 85.1656 22.905V20.435C85.4696 20.5617 85.8053 20.6503 86.1726 20.701C86.54 20.7517 86.882 20.777 87.1986 20.777C87.6166 20.777 87.9523 20.7073 88.2056 20.568C88.4716 20.4287 88.6806 20.2387 88.8326 19.998C88.9973 19.7447 89.1303 19.4723 89.2316 19.181L84.5386 9.434H87.5786L90.1056 15.305C90.169 15.4317 90.245 15.5963 90.3336 15.799C90.4223 16.0017 90.511 16.2107 90.5996 16.426C90.6883 16.6413 90.758 16.8313 90.8086 16.996H90.9036C90.9543 16.844 91.0176 16.6603 91.0936 16.445C91.1823 16.217 91.271 15.989 91.3596 15.761C91.461 15.5203 91.5496 15.3113 91.6256 15.134L93.9816 9.434H96.9456L92.7466 19.029ZM109.715 23H106.447L101.526 16.122V23H98.6573V9.434H101.526V16.008L106.39 9.434H109.449L104.509 15.951L109.715 23ZM124.172 20.72V26.952H121.398V23H111.423V9.434H114.292V20.606H119.289V9.434H122.158V20.72H124.172ZM126.267 9.434H128.851V15.989C128.851 16.3057 128.844 16.6603 128.832 17.053C128.819 17.4457 128.806 17.832 128.794 18.212C128.781 18.5793 128.768 18.9023 128.756 19.181C128.743 19.447 128.73 19.6307 128.718 19.732H128.775L135.045 9.434H138.484V23H135.919V16.483C135.919 16.141 135.925 15.7673 135.938 15.362C135.95 14.944 135.963 14.545 135.976 14.165C136.001 13.785 136.02 13.4557 136.033 13.177C136.058 12.8857 136.077 12.6957 136.09 12.607H136.014L129.725 23H126.267V9.434ZM146.468 17.794L143.295 23H140.103L143.96 17.034C143.593 16.882 143.226 16.6603 142.858 16.369C142.491 16.065 142.187 15.666 141.946 15.172C141.706 14.6653 141.585 14.0447 141.585 13.31C141.585 12.056 142.035 11.0997 142.934 10.441C143.834 9.76967 145.094 9.434 146.715 9.434H151.123V23H148.254V17.794H146.468ZM146.829 11.79C146.335 11.79 145.911 11.847 145.556 11.961C145.214 12.075 144.948 12.2587 144.758 12.512C144.581 12.7653 144.492 13.101 144.492 13.519C144.492 14.1143 144.689 14.5893 145.081 14.944C145.487 15.286 146.095 15.457 146.905 15.457H148.254V11.79H146.829Z" fill="white"/>
<defs>
<filter id="filter0_d_1_100" x="0" y="0" width="189.5" height="44" filterUnits="userSpaceOnUse" color-interpolation-filters="sRGB">
<feFlood flood-opacity="0" result="BackgroundImageFix"/>
<feColorMatrix in="SourceAlpha" type="matrix" values="0 0 0 0 0 0 0 0 0 0 0 0 0 0 0 0 0 0 127 0" result="hardAlpha"/>
<feOffset dx="4" dy="6"/>
<feGaussianBlur stdDeviation="2"/>
<feComposite in2="hardAlpha" operator="out"/>
<feColorMatrix type="matrix" values="0 0 0 0 0 0 0 0 0 0 0 0 0 0 0 0 0 0 1 0"/>
<feBlend mode="normal" in2="BackgroundImageFix" result="effect1_dropShadow_1_100"/>
<feBlend mode="normal" in="SourceGraphic" in2="effect1_dropShadow_1_100" result="shape"/>
</filter>
<linearGradient id="paint0_linear_1_100" x1="0" y1="17" x2="181.5" y2="17" gradientUnits="userSpaceOnUse">
<stop stop-color="#16202A"/>
<stop offset="1" stop-color="#609AC4"/>
</linearGradient>
</defs>
</svg>
