<svg width="190" height="44" viewBox="0 0 190 44" fill="none" xmlns="http://www.w3.org/2000/svg">
<g filter="url(#filter0_d_31_2)">
<path d="M0 0H165L181.5 17L165 34H0L16.5 17L0 0Z" fill="url(#paint0_linear_31_2)"/>
</g>
<path d="M32.71 24V10.434H43.445V24H40.576V12.828H35.579V24H32.71ZM59.1792 17.198C59.1792 18.2493 59.0462 19.2057 58.7802 20.067C58.5269 20.9157 58.1342 21.6503 57.6022 22.271C57.0829 22.8917 56.4116 23.3667 55.5882 23.696C54.7776 24.0253 53.8212 24.19 52.7192 24.19C51.6172 24.19 50.6546 24.0253 49.8312 23.696C49.0206 23.354 48.3492 22.879 47.8172 22.271C47.2979 21.6503 46.9052 20.9093 46.6392 20.048C46.3859 19.1867 46.2592 18.2303 46.2592 17.179C46.2592 15.773 46.4872 14.5507 46.9432 13.512C47.4119 12.4733 48.1212 11.669 49.0712 11.099C50.0339 10.5163 51.2562 10.225 52.7382 10.225C54.2076 10.225 55.4172 10.5163 56.3672 11.099C57.3172 11.669 58.0202 12.4797 58.4762 13.531C58.9449 14.5697 59.1792 15.792 59.1792 17.198ZM49.2802 17.198C49.2802 18.148 49.4006 18.965 49.6412 19.649C49.8819 20.333 50.2556 20.8587 50.7622 21.226C51.2689 21.5933 51.9212 21.777 52.7192 21.777C53.5426 21.777 54.2012 21.5933 54.6952 21.226C55.2019 20.8587 55.5692 20.333 55.7972 19.649C56.0379 18.965 56.1582 18.148 56.1582 17.198C56.1582 15.7667 55.8922 14.6457 55.3602 13.835C54.8282 13.0243 53.9542 12.619 52.7382 12.619C51.9276 12.619 51.2689 12.8027 50.7622 13.17C50.2556 13.5373 49.8819 14.063 49.6412 14.747C49.4006 15.431 49.2802 16.248 49.2802 17.198ZM66.3213 10.434C68.0693 10.434 69.3423 10.814 70.1403 11.574C70.951 12.3213 71.3563 13.3537 71.3563 14.671C71.3563 15.2663 71.2676 15.8363 71.0903 16.381C70.913 16.913 70.6153 17.3943 70.1973 17.825C69.792 18.243 69.2536 18.5723 68.5823 18.813C67.911 19.0537 67.0813 19.174 66.0933 19.174H64.8583V24H61.9893V10.434H66.3213ZM66.1693 12.79H64.8583V16.818H65.8083C66.353 16.818 66.8216 16.7483 67.2143 16.609C67.607 16.4697 67.911 16.248 68.1263 15.944C68.3416 15.64 68.4493 15.2473 68.4493 14.766C68.4493 14.0947 68.2656 13.6007 67.8983 13.284C67.531 12.9547 66.9546 12.79 66.1693 12.79ZM79.145 24H76.276V12.828H72.59V10.434H82.831V12.828H79.145V24ZM92.6749 10.244V11.916C94.1569 11.954 95.3349 12.2137 96.2089 12.695C97.0956 13.1637 97.7289 13.7717 98.1089 14.519C98.5016 15.2663 98.6979 16.0833 98.6979 16.97C98.6979 17.54 98.5966 18.1227 98.3939 18.718C98.2039 19.3133 97.8746 19.8643 97.4059 20.371C96.9499 20.865 96.3356 21.2703 95.5629 21.587C94.7902 21.9037 93.8276 22.0747 92.6749 22.1V24.19H90.0909V22.1C88.9256 22.0747 87.9502 21.9037 87.1649 21.587C86.3922 21.2703 85.7779 20.8587 85.3219 20.352C84.8659 19.8453 84.5429 19.3007 84.3529 18.718C84.1629 18.1227 84.0679 17.54 84.0679 16.97C84.0679 16.3113 84.1756 15.6843 84.3909 15.089C84.6062 14.4937 84.9482 13.9617 85.4169 13.493C85.8856 13.0243 86.5062 12.6507 87.2789 12.372C88.0516 12.0933 88.9889 11.9413 90.0909 11.916V10.244H92.6749ZM90.0909 14.158C89.2676 14.196 88.6089 14.3417 88.1149 14.595C87.6336 14.8357 87.2852 15.1587 87.0699 15.564C86.8672 15.9693 86.7659 16.4317 86.7659 16.951C86.7659 17.521 86.8799 18.0213 87.1079 18.452C87.3486 18.87 87.7096 19.2057 88.1909 19.459C88.6849 19.6997 89.3182 19.839 90.0909 19.877V14.158ZM92.6749 19.877C93.4476 19.839 94.0746 19.6997 94.5559 19.459C95.0499 19.2057 95.4109 18.87 95.6389 18.452C95.8796 18.0213 95.9999 17.521 95.9999 16.951C95.9999 16.4317 95.8922 15.9693 95.6769 15.564C95.4742 15.1587 95.1259 14.8357 94.6319 14.595C94.1506 14.3417 93.4982 14.196 92.6749 14.158V19.877ZM113.582 17.198C113.582 18.2493 113.449 19.2057 113.183 20.067C112.929 20.9157 112.537 21.6503 112.005 22.271C111.485 22.8917 110.814 23.3667 109.991 23.696C109.18 24.0253 108.224 24.19 107.122 24.19C106.02 24.19 105.057 24.0253 104.234 23.696C103.423 23.354 102.752 22.879 102.22 22.271C101.7 21.6503 101.308 20.9093 101.042 20.048C100.788 19.1867 100.662 18.2303 100.662 17.179C100.662 15.773 100.89 14.5507 101.346 13.512C101.814 12.4733 102.524 11.669 103.474 11.099C104.436 10.5163 105.659 10.225 107.141 10.225C108.61 10.225 109.82 10.5163 110.77 11.099C111.72 11.669 112.423 12.4797 112.879 13.531C113.347 14.5697 113.582 15.792 113.582 17.198ZM103.683 17.198C103.683 18.148 103.803 18.965 104.044 19.649C104.284 20.333 104.658 20.8587 105.165 21.226C105.671 21.5933 106.324 21.777 107.122 21.777C107.945 21.777 108.604 21.5933 109.098 21.226C109.604 20.8587 109.972 20.333 110.2 19.649C110.44 18.965 110.561 18.148 110.561 17.198C110.561 15.7667 110.295 14.6457 109.763 13.835C109.231 13.0243 108.357 12.619 107.141 12.619C106.33 12.619 105.671 12.8027 105.165 13.17C104.658 13.5373 104.284 14.063 104.044 14.747C103.803 15.431 103.683 16.248 103.683 17.198ZM126.756 24H123.887V12.828H120.562C120.486 13.4107 120.403 14.044 120.315 14.728C120.239 15.412 120.15 16.1087 120.049 16.818C119.96 17.5147 119.865 18.1797 119.764 18.813C119.662 19.4337 119.561 19.9847 119.46 20.466C119.295 21.2513 119.073 21.9227 118.795 22.48C118.529 23.0373 118.155 23.4617 117.674 23.753C117.205 24.0443 116.591 24.19 115.831 24.19C115.577 24.19 115.337 24.171 115.109 24.133C114.881 24.095 114.665 24.0443 114.463 23.981V21.625C114.627 21.6757 114.786 21.72 114.938 21.758C115.102 21.796 115.28 21.815 115.47 21.815C115.723 21.815 115.932 21.7327 116.097 21.568C116.261 21.4033 116.407 21.1247 116.534 20.732C116.66 20.3267 116.787 19.7693 116.914 19.06C116.977 18.756 117.053 18.3253 117.142 17.768C117.23 17.198 117.332 16.533 117.446 15.773C117.572 15.0003 117.699 14.1643 117.826 13.265C117.952 12.353 118.073 11.4093 118.187 10.434H126.756V24ZM130.178 10.434H132.762V16.989C132.762 17.3057 132.755 17.6603 132.743 18.053C132.73 18.4457 132.717 18.832 132.705 19.212C132.692 19.5793 132.679 19.9023 132.667 20.181C132.654 20.447 132.641 20.6307 132.629 20.732H132.686L138.956 10.434H142.395V24H139.83V17.483C139.83 17.141 139.836 16.7673 139.849 16.362C139.861 15.944 139.874 15.545 139.887 15.165C139.912 14.785 139.931 14.4557 139.944 14.177C139.969 13.8857 139.988 13.6957 140.001 13.607H139.925L133.636 24H130.178V10.434ZM158.131 17.198C158.131 18.2493 157.998 19.2057 157.732 20.067C157.479 20.9157 157.086 21.6503 156.554 22.271C156.035 22.8917 155.364 23.3667 154.54 23.696C153.73 24.0253 152.773 24.19 151.671 24.19C150.569 24.19 149.607 24.0253 148.783 23.696C147.973 23.354 147.301 22.879 146.769 22.271C146.25 21.6503 145.857 20.9093 145.591 20.048C145.338 19.1867 145.211 18.2303 145.211 17.179C145.211 15.773 145.439 14.5507 145.895 13.512C146.364 12.4733 147.073 11.669 148.023 11.099C148.986 10.5163 150.208 10.225 151.69 10.225C153.16 10.225 154.369 10.5163 155.319 11.099C156.269 11.669 156.972 12.4797 157.428 13.531C157.897 14.5697 158.131 15.792 158.131 17.198ZM148.232 17.198C148.232 18.148 148.353 18.965 148.593 19.649C148.834 20.333 149.208 20.8587 149.714 21.226C150.221 21.5933 150.873 21.777 151.671 21.777C152.495 21.777 153.153 21.5933 153.647 21.226C154.154 20.8587 154.521 20.333 154.749 19.649C154.99 18.965 155.11 18.148 155.11 17.198C155.11 15.7667 154.844 14.6457 154.312 13.835C153.78 13.0243 152.906 12.619 151.69 12.619C150.88 12.619 150.221 12.8027 149.714 13.17C149.208 13.5373 148.834 14.063 148.593 14.747C148.353 15.431 148.232 16.248 148.232 17.198Z" fill="white"/>
<defs>
<filter id="filter0_d_31_2" x="0" y="0" width="189.5" height="44" filterUnits="userSpaceOnUse" color-interpolation-filters="sRGB">
<feFlood flood-opacity="0" result="BackgroundImageFix"/>
<feColorMatrix in="SourceAlpha" type="matrix" values="0 0 0 0 0 0 0 0 0 0 0 0 0 0 0 0 0 0 127 0" result="hardAlpha"/>
<feOffset dx="4" dy="6"/>
<feGaussianBlur stdDeviation="2"/>
<feComposite in2="hardAlpha" operator="out"/>
<feColorMatrix type="matrix" values="0 0 0 0 0 0 0 0 0 0 0 0 0 0 0 0 0 0 1 0"/>
<feBlend mode="normal" in2="BackgroundImageFix" result="effect1_dropShadow_31_2"/>
<feBlend mode="normal" in="SourceGraphic" in2="effect1_dropShadow_31_2" result="shape"/>
</filter>
<linearGradient id="paint0_linear_31_2" x1="0" y1="17" x2="181.5" y2="17" gradientUnits="userSpaceOnUse">
<stop stop-color="#16202A"/>
<stop offset="1" stop-color="#609AC4"/>
</linearGradient>
</defs>
</svg>
