<svg width="218" height="44" viewBox="0 0 218 44" fill="none" xmlns="http://www.w3.org/2000/svg">
<g filter="url(#filter0_d_1_104)">
<path d="M0 0H193L209.5 17L193 34H0L16.5 17L0 0Z" fill="url(#paint0_linear_1_104)"/>
</g>
<path d="M74.398 19.029C74.018 19.8903 73.6127 20.6377 73.182 21.271C72.764 21.8917 72.2257 22.3667 71.567 22.696C70.9083 23.0253 70.047 23.19 68.983 23.19C68.6537 23.19 68.2927 23.1647 67.9 23.114C67.5073 23.0633 67.1463 22.9937 66.817 22.905V20.435C67.121 20.5617 67.4567 20.6503 67.824 20.701C68.1913 20.7517 68.5333 20.777 68.85 20.777C69.268 20.777 69.6037 20.7073 69.857 20.568C70.123 20.4287 70.332 20.2387 70.484 19.998C70.6487 19.7447 70.7817 19.4723 70.883 19.181L66.19 9.434H69.23L71.757 15.305C71.8203 15.4317 71.8963 15.5963 71.985 15.799C72.0737 16.0017 72.1623 16.2107 72.251 16.426C72.3397 16.6413 72.4093 16.8313 72.46 16.996H72.555C72.6057 16.844 72.669 16.6603 72.745 16.445C72.8337 16.217 72.9223 15.989 73.011 15.761C73.1123 15.5203 73.201 15.3113 73.277 15.134L75.633 9.434H78.597L74.398 19.029ZM85.8801 11.638C85.3354 11.638 84.8478 11.7457 84.4171 11.961C83.9991 12.1763 83.6444 12.4867 83.3531 12.892C83.0618 13.2847 82.8401 13.766 82.6881 14.336C82.5488 14.906 82.4791 15.5457 82.4791 16.255C82.4791 17.2177 82.5931 18.041 82.8211 18.725C83.0618 19.3963 83.4354 19.9093 83.9421 20.264C84.4488 20.6187 85.0948 20.796 85.8801 20.796C86.4374 20.796 86.9884 20.7327 87.5331 20.606C88.0904 20.4793 88.6921 20.302 89.3381 20.074V22.487C88.7428 22.7277 88.1538 22.905 87.5711 23.019C86.9884 23.133 86.3361 23.19 85.6141 23.19C84.2208 23.19 83.0681 22.905 82.1561 22.335C81.2568 21.7523 80.5918 20.9417 80.1611 19.903C79.7304 18.8517 79.5151 17.6293 79.5151 16.236C79.5151 15.21 79.6544 14.2727 79.9331 13.424C80.2118 12.5627 80.6171 11.8217 81.1491 11.201C81.6938 10.5803 82.3588 10.099 83.1441 9.757C83.9421 9.415 84.8541 9.244 85.8801 9.244C86.5514 9.244 87.2228 9.33267 87.8941 9.51C88.5781 9.67467 89.2304 9.90267 89.8511 10.194L88.9201 12.531C88.4134 12.2903 87.9004 12.0813 87.3811 11.904C86.8744 11.7267 86.3741 11.638 85.8801 11.638ZM102.956 23H100.087V11.828H96.7617C96.6857 12.4107 96.6034 13.044 96.5147 13.728C96.4387 14.412 96.3501 15.1087 96.2487 15.818C96.1601 16.5147 96.0651 17.1797 95.9637 17.813C95.8624 18.4337 95.7611 18.9847 95.6597 19.466C95.4951 20.2513 95.2734 20.9227 94.9947 21.48C94.7287 22.0373 94.3551 22.4617 93.8737 22.753C93.4051 23.0443 92.7907 23.19 92.0307 23.19C91.7774 23.19 91.5367 23.171 91.3087 23.133C91.0807 23.095 90.8654 23.0443 90.6627 22.981V20.625C90.8274 20.6757 90.9857 20.72 91.1377 20.758C91.3024 20.796 91.4797 20.815 91.6697 20.815C91.9231 20.815 92.1321 20.7327 92.2967 20.568C92.4614 20.4033 92.6071 20.1247 92.7337 19.732C92.8604 19.3267 92.9871 18.7693 93.1137 18.06C93.1771 17.756 93.2531 17.3253 93.3417 16.768C93.4304 16.198 93.5317 15.533 93.6457 14.773C93.7724 14.0003 93.8991 13.1643 94.0257 12.265C94.1524 11.353 94.2727 10.4093 94.3867 9.434H102.956V23ZM113.066 19.029C112.686 19.8903 112.281 20.6377 111.85 21.271C111.432 21.8917 110.894 22.3667 110.235 22.696C109.576 23.0253 108.715 23.19 107.651 23.19C107.322 23.19 106.961 23.1647 106.568 23.114C106.175 23.0633 105.814 22.9937 105.485 22.905V20.435C105.789 20.5617 106.125 20.6503 106.492 20.701C106.859 20.7517 107.201 20.777 107.518 20.777C107.936 20.777 108.272 20.7073 108.525 20.568C108.791 20.4287 109 20.2387 109.152 19.998C109.317 19.7447 109.45 19.4723 109.551 19.181L104.858 9.434H107.898L110.425 15.305C110.488 15.4317 110.564 15.5963 110.653 15.799C110.742 16.0017 110.83 16.2107 110.919 16.426C111.008 16.6413 111.077 16.8313 111.128 16.996H111.223C111.274 16.844 111.337 16.6603 111.413 16.445C111.502 16.217 111.59 15.989 111.679 15.761C111.78 15.5203 111.869 15.3113 111.945 15.134L114.301 9.434H117.265L113.066 19.029ZM127.546 9.434V11.809H121.846V23H118.977V9.434H127.546ZM129.627 9.434H132.211V15.989C132.211 16.3057 132.205 16.6603 132.192 17.053C132.179 17.4457 132.167 17.832 132.154 18.212C132.141 18.5793 132.129 18.9023 132.116 19.181C132.103 19.447 132.091 19.6307 132.078 19.732H132.135L138.405 9.434H141.844V23H139.279V16.483C139.279 16.141 139.285 15.7673 139.298 15.362C139.311 14.944 139.323 14.545 139.336 14.165C139.361 13.785 139.38 13.4557 139.393 13.177C139.418 12.8857 139.437 12.6957 139.45 12.607H139.374L133.085 23H129.627V9.434Z" fill="black"/>
<defs>
<filter id="filter0_d_1_104" x="0" y="0" width="217.5" height="44" filterUnits="userSpaceOnUse" color-interpolation-filters="sRGB">
<feFlood flood-opacity="0" result="BackgroundImageFix"/>
<feColorMatrix in="SourceAlpha" type="matrix" values="0 0 0 0 0 0 0 0 0 0 0 0 0 0 0 0 0 0 127 0" result="hardAlpha"/>
<feOffset dx="4" dy="6"/>
<feGaussianBlur stdDeviation="2"/>
<feComposite in2="hardAlpha" operator="out"/>
<feColorMatrix type="matrix" values="0 0 0 0 0 0 0 0 0 0 0 0 0 0 0 0 0 0 1 0"/>
<feBlend mode="normal" in2="BackgroundImageFix" result="effect1_dropShadow_1_104"/>
<feBlend mode="normal" in="SourceGraphic" in2="effect1_dropShadow_1_104" result="shape"/>
</filter>
<linearGradient id="paint0_linear_1_104" x1="0" y1="17" x2="209.5" y2="17" gradientUnits="userSpaceOnUse">
<stop stop-color="#D9EAF2"/>
<stop offset="1" stop-color="#7C929C"/>
</linearGradient>
</defs>
</svg>
