<svg width="218" height="44" viewBox="0 0 218 44" fill="none" xmlns="http://www.w3.org/2000/svg">
<g filter="url(#filter0_d_2_75)">
<path d="M0 0H193L209.5 17L193 34H0L16.5 17L0 0Z" fill="url(#paint0_linear_2_75)"/>
<path d="M38.194 12.76V14.594H36.416C37.018 15.378 37.368 16.344 37.368 17.436C37.368 20.11 35.408 22.154 32.482 22.154C29.542 22.154 27.568 20.124 27.568 17.436C27.568 16.344 27.918 15.364 28.52 14.594C27.148 14.538 26.42 13.838 26.42 12.396V11.402H28.632V11.99C28.632 12.48 28.898 12.76 29.374 12.76H38.194ZM32.496 20.222C34.12 20.222 35.184 19.004 35.184 17.436C35.184 15.882 33.98 14.692 32.496 14.692C30.998 14.692 29.752 15.882 29.752 17.436C29.752 19.004 30.872 20.222 32.496 20.222ZM50.3931 20.6L49.1891 22.084L47.4951 20.656C46.7531 21.608 45.5491 22.154 43.9951 22.154C41.3071 22.154 39.6131 20.544 39.6131 17.954V11.402H41.8251V17.954C41.8251 19.368 42.7211 20.222 44.0091 20.222C45.2831 20.222 46.1231 19.382 46.1231 17.954V11.402H48.3351V17.954C48.3351 18.248 48.3071 18.528 48.2651 18.794L50.3931 20.6ZM62.2942 17.184V19.032H59.9562V22H57.7442V15.448C57.7442 14.02 56.9042 13.18 55.6302 13.18C54.3422 13.18 53.4462 14.034 53.4462 15.448V22H51.2342V15.448C51.2342 12.858 52.9282 11.248 55.6162 11.248C58.2902 11.248 59.9562 12.858 59.9562 15.448V17.184H62.2942ZM74.0592 20.6L72.8552 22.084L71.1612 20.656C70.4192 21.608 69.2152 22.154 67.6612 22.154C64.9732 22.154 63.2792 20.544 63.2792 17.954V11.402H65.4912V17.954C65.4912 19.368 66.3872 20.222 67.6752 20.222C68.9492 20.222 69.7892 19.382 69.7892 17.954V11.402H72.0012V17.954C72.0012 18.248 71.9732 18.528 71.9312 18.794L74.0592 20.6ZM74.8583 17.226V15.378H79.7023C81.1583 15.378 81.9703 15.084 81.9703 14.23C81.9703 13.516 81.1443 13.04 79.8143 13.04C78.5823 13.04 77.9383 13.446 77.8403 14.104H75.6283C75.7263 12.13 77.7003 11.234 79.7723 11.248C81.8863 11.262 84.1823 12.242 84.1823 14.342C84.1823 15.238 83.5663 16.05 82.6283 16.26C84.3783 16.876 84.8403 17.94 84.8123 18.962C84.7563 20.978 82.7683 22.14 80.0103 22.154C77.5323 22.168 74.9283 20.95 75.0123 18.542H77.2103C77.2103 19.62 78.3583 20.32 79.9963 20.306C81.5083 20.306 82.6003 19.9 82.6003 18.752C82.6003 17.954 81.8303 17.226 79.7303 17.226H74.8583ZM88.6923 15.448V22H86.4803V15.448C86.4803 12.858 88.1743 11.248 90.8623 11.248C93.5363 11.248 95.2023 12.858 95.2023 15.448V22H92.9903V15.448C92.9903 14.02 92.1503 13.18 90.8763 13.18C89.5883 13.18 88.6923 14.034 88.6923 15.448ZM101.301 14.482V16.33H98.9354V22H96.7234V11.402H98.9354V14.482H101.301ZM115.683 15.378V17.226H113.611V19.116C113.611 20.754 112.197 22.154 109.817 22.154C107.633 22.168 105.729 20.894 105.729 18.738C105.729 16.806 107.017 15.378 109.397 15.378H111.399C111.357 13.964 109.831 13.18 107.983 13.18C106.079 13.18 104.497 13.95 104.497 15.504V22H102.285V15.504C102.285 12.774 104.581 11.234 107.969 11.234C111.273 11.234 113.583 12.914 113.611 15.378H115.683ZM123.467 16.26C125.217 16.876 125.679 17.94 125.651 18.962C125.595 20.978 123.607 22.14 120.849 22.154C118.371 22.168 115.767 20.95 115.851 18.542H118.049C118.049 19.62 119.197 20.32 120.835 20.306C122.347 20.306 123.439 19.9 123.439 18.752C123.439 17.954 122.669 17.226 120.569 17.226H115.697V15.378H120.541C121.997 15.378 122.809 15.084 122.809 14.23C122.809 13.516 121.983 13.04 120.653 13.04C119.421 13.04 118.777 13.446 118.679 14.104H116.467C116.565 12.13 118.539 11.234 120.611 11.248C122.725 11.262 125.021 12.242 125.021 14.342C125.021 15.238 124.405 16.05 123.467 16.26ZM111.399 18.92V17.226H109.565C108.613 17.226 107.955 17.814 107.955 18.738C107.955 19.746 108.753 20.306 109.803 20.306C110.895 20.306 111.385 19.592 111.399 18.92ZM129.517 15.448V22H127.305V15.448C127.305 12.858 128.999 11.248 131.687 11.248C134.361 11.248 136.027 12.858 136.027 15.448V22H133.815V15.448C133.815 14.02 132.975 13.18 131.701 13.18C130.413 13.18 129.517 14.034 129.517 15.448ZM142.126 14.482V16.33H139.76V22H137.548V11.402H139.76V14.482H142.126ZM150.837 15.714H153.049V17.954C153.049 20.544 151.383 22.154 148.723 22.154C146.021 22.154 144.327 20.544 144.327 17.954V13.25H142.003V11.402H146.539V17.954C146.539 19.368 147.435 20.222 148.723 20.222C149.997 20.222 150.837 19.382 150.837 17.954V15.714ZM162.581 15.714H164.793V17.954C164.793 20.544 163.127 22.154 160.467 22.154C157.765 22.154 156.071 20.544 156.071 17.954V13.25H153.747V11.402H158.283V17.954C158.283 19.368 159.179 20.222 160.467 20.222C161.741 20.222 162.581 19.382 162.581 17.954V15.714ZM175.712 15.49H168.81V17.954C168.81 19.368 169.706 20.222 170.994 20.222C172.268 20.222 173.108 19.382 173.108 17.954V17.226H175.32V17.954C175.32 20.544 173.654 22.154 170.98 22.154C168.292 22.154 166.598 20.544 166.598 17.954V11.402H168.81V13.642H175.712V15.49ZM179.679 15.448V22H177.467V15.448C177.467 12.858 179.161 11.248 181.849 11.248C184.523 11.248 186.189 12.858 186.189 15.448V17.212H183.977V15.448C183.977 14.02 183.137 13.18 181.863 13.18C180.575 13.18 179.679 14.034 179.679 15.448Z" fill="#16202A"/>
</g>
<defs>
<filter id="filter0_d_2_75" x="0" y="0" width="217.5" height="44" filterUnits="userSpaceOnUse" color-interpolation-filters="sRGB">
<feFlood flood-opacity="0" result="BackgroundImageFix"/>
<feColorMatrix in="SourceAlpha" type="matrix" values="0 0 0 0 0 0 0 0 0 0 0 0 0 0 0 0 0 0 127 0" result="hardAlpha"/>
<feOffset dx="4" dy="6"/>
<feGaussianBlur stdDeviation="2"/>
<feComposite in2="hardAlpha" operator="out"/>
<feColorMatrix type="matrix" values="0 0 0 0 0 0 0 0 0 0 0 0 0 0 0 0 0 0 1 0"/>
<feBlend mode="normal" in2="BackgroundImageFix" result="effect1_dropShadow_2_75"/>
<feBlend mode="normal" in="SourceGraphic" in2="effect1_dropShadow_2_75" result="shape"/>
</filter>
<linearGradient id="paint0_linear_2_75" x1="0" y1="17" x2="209.5" y2="17" gradientUnits="userSpaceOnUse">
<stop stop-color="#D9EAF2"/>
<stop offset="1" stop-color="#7C929C"/>
</linearGradient>
</defs>
</svg>
