<svg width="17" height="16" viewBox="0 0 17 16" fill="none" xmlns="http://www.w3.org/2000/svg">
<path d="M16.8681 12.6364C16.8681 12.8409 16.8302 13.108 16.7544 13.4375C16.6787 13.767 16.5991 14.0265 16.5158 14.2159C16.3567 14.5947 15.8946 14.9962 15.1294 15.4205C14.4173 15.8068 13.7128 16 13.0158 16C12.8113 16 12.6105 15.9867 12.4135 15.9602C12.2166 15.9337 11.9988 15.8864 11.7601 15.8182C11.5215 15.75 11.3435 15.6951 11.226 15.6534C11.1086 15.6117 10.8984 15.5341 10.5953 15.4205C10.2923 15.3068 10.1067 15.2386 10.0385 15.2159C9.2961 14.9508 8.63322 14.6364 8.04989 14.2727C7.08777 13.6742 6.08777 12.8561 5.04989 11.8182C4.01201 10.7803 3.19383 9.7803 2.59535 8.81818C2.23171 8.23485 1.91732 7.57197 1.65216 6.82955C1.62944 6.76136 1.56125 6.57576 1.44762 6.27273C1.33398 5.9697 1.25633 5.75947 1.21466 5.64205C1.173 5.52462 1.11807 5.34659 1.04989 5.10795C0.981709 4.86932 0.93436 4.65152 0.907845 4.45455C0.88133 4.25758 0.868073 4.05682 0.868073 3.85227C0.868073 3.1553 1.06125 2.45076 1.44762 1.73864C1.87186 0.973485 2.27338 0.511364 2.65216 0.352273C2.84156 0.268939 3.10103 0.189394 3.43057 0.113636C3.76012 0.0378788 4.02716 0 4.23171 0C4.33777 0 4.41732 0.0113636 4.47035 0.0340909C4.60671 0.0795455 4.80747 0.367424 5.07262 0.897727C5.15595 1.04167 5.26959 1.24621 5.41353 1.51136C5.55747 1.77652 5.69004 2.01705 5.81125 2.23295C5.93247 2.44886 6.04989 2.65152 6.16353 2.84091C6.18625 2.87121 6.25254 2.96591 6.36239 3.125C6.47224 3.28409 6.55368 3.41856 6.60671 3.52841C6.65974 3.63826 6.68625 3.74621 6.68625 3.85227C6.68625 4.00379 6.5783 4.19318 6.36239 4.42045C6.14648 4.64773 5.91163 4.85606 5.65785 5.04545C5.40406 5.23485 5.16921 5.43561 4.9533 5.64773C4.73739 5.85985 4.62944 6.03409 4.62944 6.17045C4.62944 6.23864 4.64838 6.32386 4.68625 6.42614C4.72413 6.52841 4.75633 6.60606 4.78285 6.65909C4.80936 6.71212 4.86239 6.80303 4.94194 6.93182C5.02148 7.06061 5.06504 7.13258 5.07262 7.14773C5.64838 8.18561 6.30747 9.07576 7.04989 9.81818C7.79232 10.5606 8.68247 11.2197 9.72035 11.7955C9.7355 11.803 9.80747 11.8466 9.93625 11.9261C10.065 12.0057 10.156 12.0587 10.209 12.0852C10.262 12.1117 10.3397 12.1439 10.4419 12.1818C10.5442 12.2197 10.6294 12.2386 10.6976 12.2386C10.834 12.2386 11.0082 12.1307 11.2203 11.9148C11.4325 11.6989 11.6332 11.464 11.8226 11.2102C12.012 10.9564 12.2203 10.7216 12.4476 10.5057C12.6749 10.2898 12.8643 10.1818 13.0158 10.1818C13.1219 10.1818 13.2298 10.2083 13.3397 10.2614C13.4495 10.3144 13.584 10.3958 13.7431 10.5057C13.9022 10.6155 13.9969 10.6818 14.0272 10.7045C14.2166 10.8182 14.4192 10.9356 14.6351 11.0568C14.851 11.178 15.0916 11.3106 15.3567 11.4545C15.6219 11.5985 15.8264 11.7121 15.9703 11.7955C16.5006 12.0606 16.7885 12.2614 16.834 12.3977C16.8567 12.4508 16.8681 12.5303 16.8681 12.6364Z" fill="url(#paint0_linear_7_187)"/>
<defs>
<linearGradient id="paint0_linear_7_187" x1="8.86807" y1="0" x2="8.86807" y2="16" gradientUnits="userSpaceOnUse">
<stop stop-color="#2E4A5E"/>
<stop offset="1" stop-color="#609AC4"/>
</linearGradient>
</defs>
</svg>
