<svg width="21" height="23" viewBox="0 0 21 23" fill="none" xmlns="http://www.w3.org/2000/svg">
<path d="M9.94694 0C8.169 0.0268339 4.34923 0.329673 2.21515 2.36426C0.630035 4.01262 0.0709102 6.42096 0.0127833 9.40815C-0.0453436 12.3944 -0.121001 17.994 5.07536 19.5121H5.07813L5.07443 21.8274C5.07443 21.8274 5.0403 22.7637 5.63725 22.9554C6.35415 23.1873 6.7758 22.4762 7.46409 21.7076C7.83961 21.286 8.36091 20.6688 8.75304 20.1934C12.3052 20.5059 15.0381 19.7948 15.35 19.6903C16.066 19.4488 20.1256 18.9083 20.7862 13.3106C21.469 7.54128 20.4541 3.88995 18.6272 2.24542C18.0773 1.71833 15.8537 0.0412092 10.9 0.019167C10.9 0.019167 10.5356 -0.00479176 9.94325 0.00287506L9.94694 0ZM10.0005 1.62249C10.5033 1.61866 10.8124 1.63878 10.8124 1.63878C15.0031 1.65795 17.0098 2.96898 17.4758 3.4079C19.0212 4.78314 19.8101 8.07316 19.2343 12.8927V12.8946C18.677 17.5695 15.3832 17.8627 14.7761 18.0649C14.5177 18.1512 12.117 18.7712 9.09903 18.5671C9.09903 18.5671 6.85146 21.3847 6.14932 22.1169C6.0386 22.2319 5.90943 22.2769 5.82455 22.2549C5.7046 22.2232 5.67139 22.0747 5.67231 21.8581L5.69076 18.0074C1.29711 16.7424 1.55268 11.9775 1.60343 9.4829C1.65325 6.98735 2.10443 4.94222 3.44504 3.56699C5.25343 1.86783 8.49562 1.63303 10.0051 1.62153L10.0005 1.62249ZM10.3511 4.11612C10.2795 4.11987 10.2121 4.1519 10.1626 4.20565C10.113 4.25939 10.0852 4.33078 10.0847 4.40517C10.0842 4.47957 10.1112 4.55133 10.16 4.60575C10.2089 4.66017 10.2759 4.69312 10.3474 4.69784C11.8458 4.70743 13.0655 5.21248 14.0638 6.22354C15.0538 7.22598 15.5585 8.58875 15.5705 10.377C15.5723 10.5371 15.6997 10.6645 15.8537 10.6645C15.9275 10.6635 15.9979 10.6324 16.0497 10.5779C16.1015 10.5233 16.1305 10.4498 16.1305 10.3732C16.1176 8.47184 15.5603 6.92697 14.455 5.80762C13.3571 4.69593 11.9703 4.12762 10.3511 4.11612ZM6.69737 4.78218C6.50122 4.75397 6.30156 4.79336 6.12902 4.89431L6.1198 4.89622C5.72306 5.13294 5.36691 5.43482 5.06244 5.78941C5.0606 5.79324 5.0569 5.79324 5.05506 5.79707C4.80871 6.10662 4.66755 6.4085 4.63064 6.70559C4.62341 6.7499 4.62125 6.79493 4.62418 6.83976C4.62418 6.9701 4.64448 7.09852 4.68415 7.2231L4.69615 7.23269C4.82071 7.69269 5.13256 8.45554 5.80794 9.72824C6.19545 10.4642 6.64109 11.1658 7.14209 11.8232C7.39121 12.1529 7.65877 12.4682 7.94479 12.7662L8.06659 12.8927C8.35261 13.1879 8.65708 13.4677 8.97447 13.7265C9.60793 14.247 10.2826 14.7109 10.9914 15.1132C12.2167 15.8157 12.9529 16.1387 13.394 16.269L13.4032 16.2824C13.5637 16.3369 13.7336 16.3549 13.9014 16.3351C14.1874 16.3006 14.4799 16.153 14.7761 15.8943C14.7798 15.8943 14.7789 15.8924 14.7835 15.8895C15.1248 15.5732 15.4136 15.1995 15.6415 14.7893L15.6443 14.7797C15.8519 14.3657 15.7827 13.9728 15.4782 13.7064C15.4745 13.7064 14.8342 13.1505 14.5214 12.9109C14.1893 12.6665 13.8479 12.4394 13.4945 12.2305C13.024 11.9574 12.5424 12.1289 12.3431 12.3972L11.9306 12.9378C11.7184 13.209 11.3245 13.1735 11.3245 13.1735C8.44579 12.4107 7.67538 9.38323 7.67538 9.38323C7.67538 9.38323 7.64124 8.97497 7.9042 8.75455L8.42365 8.32521C8.67922 8.11916 8.84438 7.6189 8.5805 7.12918C8.3801 6.76145 8.16145 6.40478 7.92542 6.06062C7.67764 5.72383 7.4223 5.39311 7.15962 5.06873C7.04392 4.91823 6.87915 4.81697 6.69645 4.7841L6.69737 4.78218ZM10.8401 5.62553C10.7659 5.62324 10.6939 5.65164 10.64 5.70448C10.586 5.75732 10.5544 5.83027 10.5522 5.90728C10.55 5.9843 10.5773 6.05907 10.6282 6.11514C10.6791 6.17122 10.7493 6.204 10.8235 6.20629C11.8937 6.28775 12.6844 6.65288 13.2639 7.3084C13.8451 7.96774 14.1219 8.76892 14.0998 9.77136C14.1038 9.84506 14.1345 9.91447 14.1856 9.96574C14.2367 10.017 14.3046 10.0464 14.3756 10.0479C14.4467 10.0495 14.5157 10.0232 14.5689 9.97423C14.6221 9.92527 14.6556 9.85728 14.6626 9.78382C14.6857 8.65775 14.3544 7.68215 13.6781 6.91451C12.9954 6.13825 12.0386 5.7137 10.8641 5.62457H10.8419L10.8401 5.62553ZM11.2673 7.18764C11.1962 7.18872 11.1282 7.21768 11.0768 7.2687C11.0255 7.31972 10.9946 7.38902 10.9905 7.46269C10.9831 7.62274 11.1012 7.75978 11.2562 7.76936C11.7387 7.7962 12.0635 7.93707 12.2831 8.17379C12.5045 8.40858 12.6411 8.76797 12.6669 9.28931C12.6764 9.36157 12.7117 9.42749 12.7657 9.47407C12.8197 9.52064 12.8886 9.54448 12.9587 9.54087C13.0288 9.53726 13.0951 9.50646 13.1444 9.45456C13.1938 9.40266 13.2225 9.33344 13.2251 9.26056C13.1974 8.64338 13.0267 8.13162 12.69 7.7684C12.3514 7.40615 11.8661 7.21831 11.2876 7.18668H11.2709L11.2673 7.18764Z" fill="url(#paint0_linear_1_1022)"/>
<defs>
<linearGradient id="paint0_linear_1_1022" x1="0" y1="11.5" x2="21" y2="11.5" gradientUnits="userSpaceOnUse">
<stop stop-color="#D9EAF2"/>
<stop offset="1" stop-color="#7C929C"/>
</linearGradient>
</defs>
</svg>
