<svg width="23" height="23" viewBox="0 0 23 23" fill="none" xmlns="http://www.w3.org/2000/svg">
<path d="M19.7318 3.53125C18.7016 2.4915 17.4748 1.66718 16.1228 1.10633C14.7708 0.545479 13.3207 0.259309 11.8571 0.264496C5.72382 0.264496 0.725385 5.26153 0.719768 11.3962C0.719768 13.361 1.2338 15.2724 2.20427 16.9648L0.629883 22.7357L6.53419 21.188C8.16757 22.0769 9.99747 22.5428 11.8571 22.5433H11.8627C17.9973 22.5433 22.9943 17.5463 23 11.406C23.0014 9.94262 22.7132 8.49343 22.1521 7.14192C21.5909 5.7904 20.7693 4.56328 19.7318 3.53125ZM11.8571 20.6585C10.1984 20.6591 8.57023 20.2127 7.14372 19.3664L6.80665 19.1642L3.30396 20.0827L4.23932 16.6657L4.02023 16.3131C3.09302 14.8389 2.60264 13.1321 2.60594 11.3905C2.60594 6.29801 6.7589 2.14365 11.8627 2.14365C13.0786 2.14147 14.2829 2.37998 15.4061 2.84544C16.5294 3.3109 17.5494 3.9941 18.4074 4.85564C19.2684 5.71383 19.9509 6.73399 20.4157 7.85728C20.8804 8.98057 21.1182 10.1848 21.1152 11.4004C21.1096 16.5112 16.9566 20.6585 11.8571 20.6585ZM16.9341 13.729C16.6575 13.5899 15.2909 12.9172 15.0339 12.8217C14.7783 12.7304 14.5915 12.6826 14.4089 12.9607C14.2221 13.2374 13.6885 13.868 13.5284 14.0492C13.3682 14.236 13.2025 14.257 12.9244 14.1194C12.6478 13.979 11.7503 13.6868 10.6886 12.736C9.85993 11.9987 9.30517 11.0858 9.13945 10.8091C8.97934 10.531 9.124 10.3822 9.26304 10.2431C9.38522 10.1195 9.53971 9.91728 9.67875 9.75717C9.8192 9.59707 9.86555 9.47909 9.95684 9.2937C10.0481 9.10551 10.0046 8.9454 9.93577 8.80636C9.86555 8.66732 9.31079 7.29517 9.07625 6.74182C8.85153 6.19549 8.62261 6.27133 8.45126 6.26431C8.29116 6.25448 8.10437 6.25448 7.91757 6.25448C7.77652 6.25798 7.63771 6.29061 7.50985 6.3503C7.382 6.41 7.26787 6.49548 7.17462 6.60138C6.91901 6.87946 6.20415 7.55219 6.20415 8.92434C6.20415 10.2965 7.2013 11.6153 7.34175 11.8021C7.47939 11.9888 9.29955 14.7963 12.093 16.0042C12.7531 16.2921 13.2727 16.462 13.6786 16.5912C14.3457 16.8047 14.9483 16.7724 15.4286 16.7036C15.9623 16.6221 17.0732 16.0294 17.3077 15.3792C17.5381 14.7275 17.5381 14.1714 17.4678 14.0548C17.399 13.9368 17.2122 13.868 16.9341 13.729Z" fill="url(#paint0_linear_1_1023)"/>
<defs>
<linearGradient id="paint0_linear_1_1023" x1="0.629883" y1="11.5001" x2="23" y2="11.5001" gradientUnits="userSpaceOnUse">
<stop stop-color="#D9EAF2"/>
<stop offset="1" stop-color="#7C929C"/>
</linearGradient>
</defs>
</svg>
